<?xml version="1.0" encoding="utf-8"?>
<!-- Generator: Adobe Illustrator 24.0.1, SVG Export Plug-In . SVG Version: 6.00 Build 0)  -->
<svg version="1.1" id="line" xmlns="http://www.w3.org/2000/svg" xmlns:xlink="http://www.w3.org/1999/xlink" x="0px" y="0px"
	 width="512px" height="512px" viewBox="0 0 512 512" style="enable-background:new 0 0 512 512;" xml:space="preserve">
<style type="text/css">
	.st0{fill:#5868FF;}
</style>
<g>
	<path class="st0" d="M71.3,17.8h20.1v40.1H71.3C71.3,57.9,71.3,17.8,71.3,17.8z"/>
</g>
<g>
	<path class="st0" d="M6,78.1h40.1v20.1H6V78.1z"/>
</g>
<g>
	<path class="st0" d="M490.9,293.2c-70.4,0-103.3-24.4-104.6-25.4c-4.8-3.7-7.1-10-5.4-16l40.1-148.4c1.8-6.5,7.8-11.2,14.6-11.2
		h55.3c8.3,0,15.1,6.8,15.1,15.1v170.9C506,286.5,499.2,293.2,490.9,293.2z M413,248.4c10.5,4.9,31.1,12.3,62.7,14.3V122.5h-28.7
		L413,248.4z"/>
</g>
<g>
	<path class="st0" d="M89,187.8c-49.9,0-63.7-33.2-64.3-34.6c-2.8-7.1,0-15.1,6.8-18.8c6.1-3.4,149.8-82.2,213.3-82.2
		c48.5,0,140.9,40.1,191.8,64.2l-12.9,27.3c-82.5-38.9-147.8-61.2-178.9-61.2c-40.7,0-133.3,44-181.7,69.4c5.7,3.3,13.8,5.9,26,5.9
		c17.7,0,39.4-7.2,60.6-14.3c23.3-7.8,47.5-15.8,70.1-15.8c42.4,0,98.2,20.2,100.6,21.1L310,177.1c-0.6-0.1-53.3-19.2-90.3-19.2
		c-17.7,0-39.4,7.2-60.6,14.3C135.6,179.8,111.4,187.8,89,187.8L89,187.8z"/>
</g>
<g>
	<path class="st0" d="M397,253.5L203.4,214c-25.6-5.2-44.2-28-44.2-54.1v-9h30.1v9c0,11.9,8.5,22.2,20.1,24.6L403,224L397,253.5z"/>
</g>
<g>
	<path class="st0" d="M93.9,454.1H38.6c-8.3,0-15.1-6.8-15.1-15.1V268.1c0-8.3,6.8-15.1,15.1-15.1c70.4,0,103.3,24.4,104.6,25.4
		c4.8,3.7,7.1,10,5.4,16l-40.1,148.4C106.6,449.5,100.7,454.1,93.9,454.1z M53.8,424h28.7l34.1-126.1c-10.5-4.9-31.1-12.3-62.7-14.3
		L53.8,424L53.8,424z"/>
</g>
<g>
	<path class="st0" d="M284.8,494.2c-48.5,0-140.9-40.1-191.8-64.2l12.9-27.3c82.7,39,147.8,61.3,178.9,61.3
		c40.7,0,133.3-44,181.7-69.4c-5.7-3.3-13.8-5.9-26-5.9c-17.7,0-39.4,7.2-60.6,14.3c-23.3,7.8-47.5,15.8-70.1,15.8
		c-42.4,0-98.2-20.2-100.6-21.1l10.3-28.4c0.6,0.1,53.3,19.2,90.3,19.2c17.7,0,39.4-7.2,60.6-14.3c23.3-7.8,47.5-15.8,70.1-15.8
		c49.9,0,63.7,33.2,64.3,34.6c2.8,7.1,0,15.1-6.8,18.8C492.2,415.3,348.3,494.2,284.8,494.2z"/>
</g>
<g>
	<path class="st0" d="M370.3,395.6h-30.1v-9c0-11.9-8.5-22.2-20.1-24.6l-54.7-11.3l6.1-29.5l54.7,11.3c25.6,5.2,44.2,28,44.2,54.1
		L370.3,395.6L370.3,395.6z"/>
</g>
<g>
	<path class="st0" d="M126.7,322.5l6.1-29.5l99.8,20.4l-6.1,29.5L126.7,322.5z"/>
</g>
</svg>
