<?xml version="1.0" encoding="utf-8"?>
<!-- Generator: Adobe Illustrator 24.0.1, SVG Export Plug-In . SVG Version: 6.00 Build 0)  -->
<svg version="1.1" id="LINE" xmlns="http://www.w3.org/2000/svg" xmlns:xlink="http://www.w3.org/1999/xlink" x="0px" y="0px"
	 width="512px" height="512px" viewBox="0 0 512 512" style="enable-background:new 0 0 512 512;" xml:space="preserve">
<style type="text/css">
	.st0{fill:#5868FF;}
</style>
<path class="st0" d="M393.8,490.7l24.4-24.4l12.3,12.3L406,503L393.8,490.7z"/>
<path class="st0" d="M464,420.4l24.4-24.4l12.3,12.3l-24.4,24.4L464,420.4z"/>
<path class="st0" d="M464,481.6l12.3-12.3l24.4,24.4L488.5,506L464,481.6z"/>
<path class="st0" d="M37.1,57.8c-14.3,0-25.9-11.7-25.9-25.9S22.9,6,37.1,6s26,11.6,26,25.8S51.5,57.8,37.1,57.8z M37.1,23.1
	c-4.7,0-8.6,3.9-8.6,8.6s3.9,8.6,8.6,8.6s8.6-3.9,8.6-8.6C45.9,27,42,23.1,37.1,23.1z"/>
<path class="st0" d="M161.8,130.3l-15.4-20.8c23.5-17.4,51.1-28.8,79.9-33.1l3.8,25.7C205.4,105.7,181.8,115.4,161.8,130.3
	L161.8,130.3z"/>
<path class="st0" d="M404.3,230.7c-3.5-24.6-13.4-48.2-28.2-68.1l20.8-15.4c17.4,23.5,28.8,51.1,33.1,79.9L404.3,230.7z"/>
<path class="st0" d="M279.5,430.7l-3.8-25.7c24.6-3.5,48.2-13.4,68.1-28.2l15.4,20.8C335.9,415,308.3,426.5,279.5,430.7L279.5,430.7
	z"/>
<path class="st0" d="M108.7,360.1c-17.4-23.5-28.8-51.1-33.1-79.9l25.7-3.8c3.5,24.6,13.4,48.2,28.2,68.1L108.7,360.1z"/>
<path class="st0" d="M101.3,230.7l-25.7-3.8c4.1-28.8,15.6-56.4,33.1-79.9l20.8,15.4C114.7,182.6,105,206.1,101.3,230.7z"/>
<path class="st0" d="M226.2,430.7c-28.8-4.1-56.4-15.6-79.9-33.1l15.4-20.8c20.1,14.8,43.7,24.7,68.1,28.2L226.2,430.7z"/>
<path class="st0" d="M396.9,360.1l-20.8-15.4c14.8-20.1,24.7-43.7,28.2-68.1l25.7,3.8C425.7,309,414.3,336.6,396.9,360.1
	L396.9,360.1z"/>
<path class="st0" d="M343.9,130.3c-20.1-14.8-43.7-24.6-68.1-28.2l3.8-25.7c28.7,4.1,56.4,15.6,79.8,33L343.9,130.3z"/>
<path class="st0" d="M252.8,115.2c-19.1,0-34.5-15.6-34.5-34.5s15.6-34.5,34.5-34.5c19,0,34.5,15.6,34.5,34.5
	S271.9,115.2,252.8,115.2z M252.8,72c-4.7,0-8.6,3.9-8.6,8.6c0,4.7,3.9,8.6,8.6,8.6c4.7,0,8.6-3.9,8.6-8.6
	C261.5,75.9,257.6,72,252.8,72z"/>
<path class="st0" d="M375.2,165.9c-8.9,0-17.8-3.4-24.4-10.1c-13.5-13.5-13.5-35.4,0-48.9s35.4-13.5,48.9,0
	c13.5,13.5,13.5,35.4,0,48.9C392.8,162.5,383.9,165.9,375.2,165.9L375.2,165.9z M375.2,122.6c-2.2,0-4.4,0.9-6.1,2.6
	c-3.4,3.4-3.4,8.9,0,12.3s8.9,3.4,12.3,0c3.4-3.4,3.4-8.9,0-12.3C379.5,123.5,377.4,122.6,375.2,122.6z"/>
<path class="st0" d="M425.7,288.1c-19.1,0-34.5-15.6-34.5-34.5s15.6-34.5,34.5-34.5c19.1,0,34.5,15.6,34.5,34.5
	C460.3,272.5,444.8,288.1,425.7,288.1z M425.7,244.9c-4.7,0-8.6,3.9-8.6,8.6c0,4.7,3.9,8.6,8.6,8.6c4.7,0,8.6-3.9,8.6-8.6
	C434.4,248.8,430.5,244.9,425.7,244.9z"/>
<path class="st0" d="M375.2,410.4c-8.9,0-17.8-3.4-24.4-10.1c-13.5-13.5-13.5-35.4,0-48.9c13.5-13.5,35.4-13.5,48.9,0
	c13.5,13.5,13.5,35.4,0,48.9C392.8,407,383.9,410.4,375.2,410.4L375.2,410.4z M375.2,367.3c-2.2,0-4.4,0.9-6.1,2.6
	c-3.4,3.4-3.4,8.9,0,12.3c3.4,3.4,8.9,3.4,12.3,0c3.4-3.4,3.4-8.9,0-12.3C379.5,368.1,377.4,367.3,375.2,367.3z"/>
<path class="st0" d="M252.8,461.1c-19.1,0-34.5-15.6-34.5-34.5c0-19.1,15.6-34.5,34.5-34.5c19,0,34.5,15.6,34.5,34.5
	S271.9,461.1,252.8,461.1z M252.8,417.8c-4.7,0-8.6,3.9-8.6,8.6s3.9,8.6,8.6,8.6c4.7,0,8.6-3.9,8.6-8.6S257.6,417.8,252.8,417.8z"/>
<path class="st0" d="M130.5,410.4c-8.9,0-17.8-3.4-24.4-10.1c-13.5-13.5-13.5-35.4,0-48.9c13.5-13.5,35.4-13.5,48.9,0
	c13.5,13.5,13.5,35.4,0,48.9C148.3,407,139.4,410.4,130.5,410.4L130.5,410.4z M130.5,367.3c-2.2,0-4.4,0.9-6.1,2.6
	c-3.4,3.4-3.4,8.9,0,12.3c3.4,3.4,8.9,3.4,12.3,0c3.4-3.4,3.4-8.9,0-12.3C135,368.1,132.8,367.3,130.5,367.3z"/>
<path class="st0" d="M79.9,288.1c-19.1,0-34.5-15.6-34.5-34.5S61,219,79.9,219s34.5,15.6,34.5,34.5C114.5,272.5,99,288.1,79.9,288.1
	z M79.9,244.9c-4.7,0-8.6,3.9-8.6,8.6c0,4.7,3.9,8.6,8.6,8.6s8.6-3.9,8.6-8.6C88.6,248.8,84.7,244.9,79.9,244.9z"/>
<path class="st0" d="M130.5,165.9c-8.9,0-17.8-3.4-24.4-10.1c-13.5-13.5-13.5-35.4,0-48.9s35.4-13.5,48.9,0
	c13.5,13.5,13.5,35.4,0,48.9C148.3,162.5,139.4,165.9,130.5,165.9L130.5,165.9z M130.5,122.6c-2.2,0-4.4,0.9-6.1,2.6
	c-3.4,3.4-3.4,8.9,0,12.3s8.9,3.4,12.3,0s3.4-8.9,0-12.3C135,123.5,132.8,122.6,130.5,122.6z"/>
<g>
	<path class="st0" d="M192,271.9c0-44.7,24.9-71,60.9-71s60.9,26.5,60.9,71c0,44.7-24.9,72.1-60.9,72.1S192,316.6,192,271.9z
		 M288.7,271.9c0-31-14-49.7-35.7-49.7s-35.7,18.7-35.7,49.7s14,50.8,35.7,50.8C274.6,322.6,288.7,302.9,288.7,271.9z"/>
	<path class="st0" d="M280.6,161.6L253,180.5l-27.6-18.8h-5.7v3.4l22.5,28.1h22l22.4-28.1v-3.4H280.6z"/>
</g>
</svg>
