<?xml version="1.0" encoding="utf-8"?>
<!-- Generator: Adobe Illustrator 24.0.1, SVG Export Plug-In . SVG Version: 6.00 Build 0)  -->
<svg version="1.1" id="LINE" xmlns="http://www.w3.org/2000/svg" xmlns:xlink="http://www.w3.org/1999/xlink" x="0px" y="0px"
	 width="512px" height="512px" viewBox="0 0 512 512" style="enable-background:new 0 0 512 512;" xml:space="preserve">
<style type="text/css">
	.st0{fill:#5868FF;}
</style>
<g>
	<path class="st0" d="M261.5,46.7l25-25l12.6,12.6l-25,25L261.5,46.7z"/>
	<path class="st0" d="M189.4,118.7l25-25l12.6,12.6l-25,25L189.4,118.7z"/>
	<path class="st0" d="M189.4,31.1L202,18.5l25,25l-12.6,12.6L189.4,31.1z"/>
	<path class="st0" d="M32.5,314.9c-14.7,0-26.5-12-26.5-26.5c0-14.7,12-26.5,26.5-26.5s26.5,12,26.5,26.5
		C59.1,302.9,47.3,314.9,32.5,314.9z M32.5,279.4c-4.9,0-8.8,4-8.8,8.8s4,8.8,8.8,8.8s8.8-4,8.8-8.8
		C41.4,283.4,37.4,279.4,32.5,279.4z"/>
</g>
<path class="st0" d="M381.9,418.2c-19.6,0-35.4-16-35.4-35.4s16-35.4,35.4-35.4s35.4,16,35.4,35.4S401.4,418.2,381.9,418.2z
	 M381.9,373.8c-4.9,0-8.8,4-8.8,8.8s4,8.8,8.8,8.8s8.8-4,8.8-8.8S386.7,373.8,381.9,373.8z"/>
<path class="st0" d="M452.8,493.5h-26.5v-8.8c0-12.2-10-22.2-22.2-22.2h-44.4c-12.2,0-22.2,10-22.2,22.2v8.8H311v-8.8
	c0-26.9,21.8-48.7,48.7-48.7h44.4c26.9,0,48.7,21.8,48.7,48.7L452.8,493.5L452.8,493.5z"/>
<path class="st0" d="M178.1,391.5c-29.3,0-53.2-23.8-53.2-53.2c0-29.3,23.8-53.2,53.2-53.2s53.2,23.8,53.2,53.2
	C231.2,367.7,207.4,391.5,178.1,391.5z M178.1,311.8c-14.7,0-26.5,12-26.5,26.5c0,14.7,12,26.5,26.5,26.5s26.5-12,26.5-26.5
	C204.7,323.7,192.7,311.8,178.1,311.8z"/>
<path class="st0" d="M275.6,493.5H249v-26.5c0-12.2-10-22.2-22.2-22.2h-97.5c-12.2,0-22.2,10-22.2,22.2v26.5H80.5v-26.5
	c0-26.9,21.8-48.7,48.7-48.7h97.5c26.9,0,48.7,21.8,48.7,48.7L275.6,493.5L275.6,493.5z"/>
<path class="st0" d="M479.3,94.7h26.5v398.8h-26.5V94.7z"/>
<path class="st0" d="M492.7,258.7H271.1c-5.1,0-9.7-2.9-12-7.4c-2.2-4.5-1.7-10,1.4-14l51.5-67.3l-51.5-67.3c-3.1-4-3.6-9.5-1.4-14
	c2.2-4.5,6.9-7.4,12-7.4h126.4V108H298l41.3,54c3.6,4.7,3.6,11.3,0,16.2l-41.3,54h181.3V108h-40.9V81.3h54.2c7.4,0,13.3,6,13.3,13.3
	v150.7C506,252.7,500,258.7,492.7,258.7L492.7,258.7z"/>
</svg>
