<?xml version="1.0" encoding="utf-8"?>
<!-- Generator: Adobe Illustrator 24.0.1, SVG Export Plug-In . SVG Version: 6.00 Build 0)  -->
<svg version="1.1" id="Layer_1" xmlns="http://www.w3.org/2000/svg" xmlns:xlink="http://www.w3.org/1999/xlink" x="0px" y="0px"
	 width="880px" height="512px" viewBox="0 0 880 512" style="enable-background:new 0 0 880 512;" xml:space="preserve">
<style type="text/css">
	.st0{fill:#D5DBE1;}
	.st1{opacity:0.2;}
	.st2{fill:#F3F3F1;}
	.st3{opacity:0.2;fill:#F3F3F1;enable-background:new    ;}
	.st4{fill:#F47257;}
	.st5{fill:#3C8F7C;}
	.st6{fill:#96D9C9;}
	.st7{fill:#50BFA5;}
	.st8{fill:url(#SVGID_1_);}
	.st9{fill:#FF7020;}
	.st10{fill:url(#SVGID_2_);}
	.st11{fill:#D5DBE1;stroke:#F3F3F1;stroke-width:0.5;stroke-miterlimit:10;}
	.st12{fill:url(#SVGID_3_);}
	.st13{fill:#D5DBE1;stroke:#E2E2E2;stroke-width:0.4;stroke-miterlimit:10;}
	.st14{fill:url(#SVGID_4_);}
	.st15{fill:url(#SVGID_5_);}
	.st16{fill:#B3B3B3;}
	.st17{fill:#332F2D;}
	.st18{fill:#E2E2E2;}
	.st19{fill:url(#SVGID_6_);}
	.st20{fill:#83B74B;}
	.st21{fill:#9ED16F;}
	.st22{fill:url(#SVGID_7_);}
	.st23{fill:url(#SVGID_8_);}
	.st24{fill:#E2E2E2;stroke:#F3F3F1;stroke-width:0.5;stroke-miterlimit:10;}
	.st25{fill:#F0F1F7;}
	.st26{fill:url(#SVGID_9_);}
	.st27{fill:url(#SVGID_10_);}
	.st28{fill:url(#SVGID_11_);}
	.st29{fill:url(#SVGID_12_);}
	.st30{fill:url(#SVGID_13_);}
	.st31{fill:url(#SVGID_14_);}
	.st32{fill:url(#SVGID_15_);}
	.st33{fill:#5868FF;}
	.st34{fill:#3D3AAA;}
	.st35{fill:url(#SVGID_16_);}
	.st36{fill:url(#SVGID_17_);}
	.st37{fill:url(#SVGID_18_);}
	.st38{fill:#EAEBF4;}
	.st39{fill:url(#SVGID_19_);}
</style>
<g>
	<g>
		<g>
			<path class="st0" d="M384.8,359.5c0-29.9,5.6-56,15.2-78.3c-0.5-0.3-1.1-0.5-1.6-0.8c-9.8,22.5-15.4,48.9-15.4,79.1
				C383.7,359.5,384.2,359.5,384.8,359.5z"/>
			<path class="st0" d="M384.9,359.5H383l0,0c0-29,5.2-55.6,15.4-79.2l0,0l1.7,0.9l0,0C390,304.4,384.9,330.8,384.9,359.5
				L384.9,359.5z M383.1,359.4h1.7c0-28.7,5.1-55,15.2-78.3l-1.5-0.8C388.3,303.9,383.1,330.4,383.1,359.4z"/>
		</g>
		<g>
			<path class="st0" d="M514.2,188.2c22.4-5.1,45.8-5.9,68.5-2.5c0.1-0.6,0.2-1.2,0.3-1.8c-23-3.5-46.6-2.6-69.2,2.5
				C513.9,187,514,187.6,514.2,188.2z"/>
			<path class="st0" d="M514.2,188.2l-0.4-1.9l0,0c13.5-3.1,27.3-4.6,41.3-4.6c9.4,0,18.8,0.7,28,2.1l0,0l-0.3,1.9l0,0
				c-9.1-1.4-18.4-2.1-27.7-2.1C541.2,183.6,527.5,185.2,514.2,188.2L514.2,188.2z M513.8,186.4l0.4,1.7c13.3-3,27-4.6,40.8-4.6
				c9.2,0,18.5,0.7,27.6,2.1l0.3-1.7c-9.2-1.4-18.6-2.1-27.9-2.1C541.1,181.8,527.2,183.3,513.8,186.4z"/>
		</g>
		<g>
			<path class="st0" d="M603.4,190.1c22.8,6.3,44.3,17.1,62.8,32.4c0.4-0.5,0.8-1,1.2-1.4c-18.6-15.5-40.4-26.4-63.4-32.7
				C603.7,188.9,603.5,189.5,603.4,190.1z"/>
			<path class="st0" d="M666.2,222.5L666.2,222.5c-18.1-15-39.2-25.9-62.8-32.4l0,0l0.5-1.9l0,0c11.6,3.2,22.9,7.5,33.4,12.9
				c10.8,5.5,20.9,12.2,30.1,19.8l0,0L666.2,222.5z M603.4,190c11.5,3.2,22.6,7.5,33,12.8c10.7,5.5,20.7,12.1,29.7,19.6l1.1-1.4
				c-18.2-15.2-39.5-26.2-63.4-32.7L603.4,190z"/>
		</g>
		<g>
			<path class="st0" d="M675.5,230.8c13,12.7,24.1,27.9,32.4,45.7c0.5-0.3,1.1-0.6,1.6-0.9c-8.5-18-19.6-33.4-32.8-46.2
				C676.3,229.9,675.9,230.4,675.5,230.8z"/>
			<path class="st0" d="M707.9,276.6L707.9,276.6c-8.1-17.3-19-32.7-32.4-45.8l0,0l0.3-0.4l1-1.1l0,0c13.5,13.2,24.6,28.8,32.8,46.2
				l0,0L707.9,276.6z M675.5,230.8c13.4,13.1,24.3,28.4,32.4,45.7l1.5-0.8c-8.2-17.4-19.2-32.9-32.7-46.1L675.5,230.8z"/>
		</g>
		<g>
			<path class="st0" d="M720.5,306.2c-0.6,0.2-1.1,0.4-1.7,0.6c4.2,16,6.4,33.6,6.4,52.7c0.6,0,1.2,0,1.8,0
				C727,340.1,724.7,322.4,720.5,306.2z"/>
			<path class="st0" d="M725.2,359.5L725.2,359.5c0-18.6-2.2-36.3-6.4-52.8l0,0l1.8-0.6l0,0c4.3,16.6,6.5,34.5,6.5,53.3l0,0
				L725.2,359.5z M718.8,306.8c4.3,16.4,6.4,34.1,6.4,52.7h1.7c0-18.7-2.2-36.6-6.5-53.2L718.8,306.8z"/>
		</g>
		<g>
			<path class="st0" d="M411.5,259.4c13.7-21.8,32-39,52.7-51.4c-0.3-0.5-0.6-1.1-0.9-1.6c-21,12.5-39.4,29.8-53.3,51.9
				C410.5,258.7,411,259,411.5,259.4z"/>
			<path class="st0" d="M411.6,259.4l-1.6-1.1l0,0c6.8-10.8,14.9-20.7,24-29.5c8.8-8.5,18.7-16,29.3-22.4l0,0l1,1.7l0,0
				C442.6,221,424.9,238.3,411.6,259.4L411.6,259.4z M410.1,258.3l1.4,1c6.7-10.7,14.7-20.5,23.7-29.2c8.7-8.4,18.4-15.8,29-22.1
				l-0.9-1.5C441.4,219.6,423.5,237,410.1,258.3z"/>
		</g>
	</g>
	<g class="st1">
		<path class="st2" d="M235.9,326.9c48.9,0,97.7,0,146.6,0c-5.4-45.1,8.3-83.7,35.8-112.2c27.3-28.6,68.5-47.1,114-51.9
			c45.4-4.8,95.2,4,136.1,30.2c40.7,26.1,72.5,69.6,77.9,133.9c6.1,0,12.2,0,18.3,0C770,257,746,199.8,703,158.9
			c-42.8-41-104.5-65.7-170.7-70.5c-66-4.8-136.4,10.2-192.7,48.8C283.3,175.7,241.3,237.7,235.9,326.9z"/>
		<path class="st2" d="M764.6,327H746v-0.1c-6.2-73.3-45.7-113.2-77.8-133.8s-70.9-31.4-112.2-31.4c-7.9,0-15.9,0.4-23.8,1.3
			c-46.1,4.9-86.6,23.3-113.9,51.8c-28.6,29.7-41,68.5-35.8,112.1v0.1H235.7v-0.1c6.2-102.3,59.8-159.7,103.7-189.8
			c24.1-16.5,51.3-29.1,81-37.6c28.2-8,57.8-12.1,87.9-12.1c8,0,16,0.3,23.9,0.9c33.2,2.4,64.9,9.7,94.2,21.7
			c29.7,12.2,55.5,28.6,76.6,48.8c22,21,38.5,45.6,49,73.2c11,29,15.3,61,12.6,94.9V327z M746.3,326.8h18
			c5.1-66.5-16.1-124.6-61.5-167.8c-42.3-40.5-102.9-65.5-170.6-70.4c-7.9-0.6-15.9-0.9-23.9-0.9c-62.1,0-122,17.6-168.7,49.6
			c-43.8,30.1-97.3,87.3-103.6,189.5h146.3c-2.6-22-0.8-42.9,5.6-62.2c6.1-18.7,16.3-35.5,30.3-50c13.6-14.2,30.5-25.9,50.2-34.9
			c19.6-8.9,41.1-14.6,63.9-17.1c7.8-0.8,15.9-1.3,23.8-1.3c19.8,0,39.3,2.6,57.9,7.6c19.7,5.3,38,13.4,54.4,23.9
			C700.5,213.5,740.1,253.5,746.3,326.8z"/>
	</g>
	<polygon class="st3" points="755.3,361.9 780,302 754.8,313.8 725.1,302 	"/>
	<g>
		<path class="st0" d="M597.7,437.9h-77.2c-3.1,0-5.6-2.4-5.6-5.3l0,0c0-2.9,2.5-5.3,5.6-5.3h77.2c3.1,0,5.6,2.4,5.6,5.3l0,0
			C603.3,435.6,600.8,437.9,597.7,437.9z"/>
		<path class="st2" d="M596.5,427.4h-77.9c-2.9,0-5.3-2.4-5.3-5.3l0,0c0-2.9,2.4-5.3,5.3-5.3h77.9c2.9,0,5.3,2.4,5.3,5.3l0,0
			C601.8,425,599.4,427.4,596.5,427.4z"/>
		<path class="st0" d="M605.2,416.8H528c-3.1,0-5.6-2.4-5.6-5.3l0,0c0-2.9,2.5-5.3,5.6-5.3h77.2c3.1,0,5.6,2.4,5.6,5.3l0,0
			C610.8,414.4,608.3,416.8,605.2,416.8z"/>
	</g>
	<g>
		<rect x="194.5" y="378.2" class="st4" width="289.8" height="30.3"/>
		<g>
			<path class="st5" d="M407.1,485.6C341.8,451,270.8,429.8,198,422.9c2.7-31.6,5.4-63.2,8.1-94.8c84.2,7.9,166.3,32.5,241.9,72.5
				C434.3,428.9,420.7,457.2,407.1,485.6z"/>
			<path class="st6" d="M204.4,405.6c1.8-19.7,3.7-39.4,5.5-59.2c7.7,0.8,14.5-4.2,15.4-11.2C295.5,344,364,364.5,428,395.9
				c-2.9,6.5,0.5,14.5,7.4,18.1c-8.3,17.8-16.7,35.5-25,53.3c-6.3-3.3-13.9-0.6-16.7,5.9c-56.3-27.6-116.4-45.6-178.1-53.4
				C216.5,412.8,211.4,406.3,204.4,405.6z"/>
			<g>
				<path class="st7" d="M355.2,408.8c-5.9,17-24.1,25.6-40.9,20.4s-27.7-22.8-23.9-40.4c3.8-17.6,22.5-28.1,41.4-22.3
					C350.8,372.4,361.1,391.9,355.2,408.8z"/>
				<path class="st5" d="M314.1,423.3c0.5-1.9,0.9-3.8,1.4-5.7c-2.5-0.8-4.9-2-6.9-3.2c-1.6-1-2.2-3.1-1.3-4.8
					c0-0.1,0.1-0.1,0.1-0.2c1-1.8,3.3-2.4,5.1-1.2c1.8,1.2,3.9,2.3,6.3,2.9c3.4,1,6.1,0.3,6.8-2c0.6-2.3-1-4.3-5.1-7
					c-6-4-9.9-8.1-8.5-14c1.2-5.3,6.1-8.4,13.2-7.8c0.5-1.9,0.9-3.8,1.4-5.7c2.1,0.6,4.2,1.2,6.3,1.8c-0.4,1.8-0.9,3.5-1.3,5.3
					c2.3,0.8,4.1,1.6,5.6,2.5c1.8,1.1,2.4,3.3,1.4,4.9l0,0c-1,1.7-3.4,2.2-5.2,1.1c-1.4-0.8-3.1-1.7-5.3-2.3
					c-4.1-1.2-5.8,0.2-6.2,1.8c-0.5,2,1.4,3.8,6.2,7.2c6.7,4.6,8.7,8.8,7.2,14.2c-1.5,5.3-6.5,8.6-13.6,7.8c-0.5,2-1,4.1-1.6,6.1
					C318,424.3,316.1,423.8,314.1,423.3z"/>
				<path class="st7" d="M280.4,388.2c-16.7-3.8-33.5-7-50.4-9.4c0.4-3,0.8-6.1,1.2-9.1c17.2,2.4,34.2,5.6,51.1,9.5
					C281.7,382.2,281.1,385.2,280.4,388.2z"/>
				<path class="st7" d="M410.3,434.3c-15.5-7.6-31.3-14.5-47.3-20.7c1-2.9,2-5.8,3-8.6c16.2,6.3,32.2,13.3,47.9,21
					C412.8,428.7,411.5,431.5,410.3,434.3z"/>
			</g>
		</g>
		<g>
			<path class="st5" d="M440.3,384.1c-67.4,14.1-131.6,42.3-189.2,83.2c-15.6-26.9-31.1-53.7-46.7-80.6
				c66.6-47.3,140.8-79.9,218.8-96.2C428.9,321.7,434.6,352.9,440.3,384.1z"/>
			<path class="st6" d="M246.2,449.4c-9.6-16.8-19.2-33.7-28.8-50.5c6.1-4.2,8.4-12.5,5.1-18.7c56.7-37.7,118.7-64.9,183.4-80.6
				c1.5,7,8.4,11.2,15.5,9.7c3.7,19.4,7.4,38.9,11.1,58.3c-6.5,1.4-10.5,8.4-9.1,15.3c-56.9,13.9-111.2,37.8-161.1,70.8
				C259.1,447.5,251.8,445.5,246.2,449.4z"/>
			<g>
				<path class="st2" d="M359.3,356.1c5.1,17.2-3.5,35.6-18.8,42.2s-33.1-0.5-40.1-17c-7-16.4,1-36.6,18.2-44
					C335.9,330,354.3,338.9,359.3,356.1z"/>
				<path class="st2" d="M337.1,393.7c-0.7-1.8-1.4-3.6-2.1-5.4c-2.3,1-4.8,1.6-6.9,1.8c-1.8,0.2-3.3-1.1-3.6-2.9c0-0.1,0-0.2,0-0.2
					c-0.3-2.1,1.1-4,3.1-4.2s4.2-0.7,6.3-1.7c3.1-1.4,4.7-3.6,3.9-5.9c-0.8-2.2-3.1-2.8-7.7-2.3c-6.7,0.7-11.8-0.2-14.1-5.7
					c-2-5-0.2-10.6,5.4-14.6c-0.7-1.8-1.4-3.6-2.1-5.4c1.9-0.9,3.7-1.7,5.6-2.6c0.6,1.7,1.3,3.4,1.9,5c2.1-0.8,3.9-1.3,5.5-1.6
					c1.9-0.3,3.6,1.1,3.8,3l0,0c0.2,2-1.2,3.9-3.2,4.2c-1.5,0.2-3.2,0.6-5.2,1.5c-3.7,1.7-4.2,3.8-3.6,5.4c0.7,1.9,3.2,2.1,8.6,1.8
					c7.5-0.6,11.3,1.5,13.2,6.7c1.8,5.1,0,11-5.7,14.9c0.7,1.9,1.5,3.9,2.2,5.8C340.5,392.1,338.8,392.9,337.1,393.7z"/>
				<path class="st2" d="M292.7,387.2c-14.4,7.5-28.6,15.7-42.4,24.6c-1.4-2.7-2.8-5.3-4.2-8c14-9,28.4-17.3,43-24.9
					C290.3,381.7,291.5,384.4,292.7,387.2z"/>
				<path class="st2" d="M414.2,341.3c-15.6,3.8-31.1,8.4-46.4,13.6c-0.9-2.9-1.7-5.9-2.6-8.8c15.5-5.3,31.2-9.9,47-13.8
					C412.9,335.3,413.5,338.3,414.2,341.3z"/>
			</g>
		</g>
		<g>
			<path class="st5" d="M448.4,436c-70.1-4.2-140.3,6-206.9,30.3c-9.2-30.1-18.3-60.2-27.5-90.3c77-28.1,158.2-40,239.3-35.1
				C451.6,372.6,450,404.3,448.4,436z"/>
			<path class="st6" d="M240.8,447.7c-5.6-18.8-11.2-37.7-16.7-56.5c7-2.5,11.3-9.9,9.4-16.7c65-21.4,132.7-31.3,200.6-29.4
				c-0.1,7.1,5.7,13.1,13.1,13.4c-0.9,19.8-1.7,39.6-2.6,59.4c-6.8-0.4-12.4,5.3-12.5,12.4c-59.6-1.7-119.1,7-176.2,25.8
				C254.1,449.3,247.3,445.4,240.8,447.7z"/>
			<g>
				<path class="st2" d="M374.7,387.4c1,18-11.8,33.6-28.5,35.9s-32.7-9.3-35.8-27c-3.1-17.7,9.5-35.2,28.3-37.8
					C357.5,355.9,373.7,369.4,374.7,387.4z"/>
				<path class="st2" d="M343.8,417.9c-0.3-1.9-0.6-3.9-0.8-5.8c-2.5,0.3-5.1,0.3-7.2-0.1c-1.8-0.3-3.1-1.9-2.9-3.8
					c0-0.1,0-0.2,0-0.2c0.2-2.1,2-3.6,4-3.3c2,0.3,4.3,0.4,6.6,0c3.4-0.6,5.5-2.3,5.2-4.7c-0.3-2.3-2.4-3.5-7.1-4.3
					c-6.7-1.1-11.6-3.3-12.6-9.2c-0.9-5.3,2.3-10.3,8.7-12.7c-0.3-1.9-0.6-3.9-0.9-5.8c2-0.3,4.1-0.7,6.2-1c0.2,1.8,0.5,3.6,0.7,5.4
					c2.3-0.3,4.2-0.2,5.8-0.1c2,0.2,3.3,2,3.1,3.9l0,0c-0.3,2-2.1,3.4-4.1,3.2c-1.5-0.2-3.3-0.3-5.5,0.1c-4,0.6-5.1,2.6-4.8,4.3
					c0.3,2,2.6,2.9,8.1,4.1c7.6,1.4,10.9,4.4,11.6,10c0.6,5.5-2.6,10.6-9.1,12.9c0.3,2.1,0.6,4.2,0.8,6.2
					C347.6,417.3,345.7,417.6,343.8,417.9z"/>
				<path class="st2" d="M301.4,399.9c-16.1,3.5-32,7.7-47.8,12.6c-0.8-3-1.5-5.9-2.3-8.9c16-5,32.2-9.2,48.4-12.7
					C300.3,393.8,300.8,396.9,301.4,399.9z"/>
				<path class="st2" d="M432.5,387.6c-16.4-0.4-32.8-0.2-49.1,0.9c-0.2-3.1-0.3-6.1-0.5-9.2c16.6-1,33.2-1.3,49.8-0.9
					C432.6,381.5,432.5,384.6,432.5,387.6z"/>
			</g>
		</g>
		
			<linearGradient id="SVGID_1_" gradientUnits="userSpaceOnUse" x1="235.075" y1="1056.275" x2="443.725" y2="847.625" gradientTransform="matrix(1 0 0 1 0 -510)">
			<stop  offset="0" style="stop-color:#D5DBE1"/>
			<stop  offset="1" style="stop-color:#F3F3F1"/>
		</linearGradient>
		<rect x="194.5" y="378.2" class="st8" width="289.8" height="127.5"/>
		<rect x="205.1" y="384.5" class="st9" width="263.8" height="9.9"/>
		
			<linearGradient id="SVGID_2_" gradientUnits="userSpaceOnUse" x1="208.5" y1="922.45" x2="331.5" y2="922.45" gradientTransform="matrix(1 0 0 1 0 -510)">
			<stop  offset="0" style="stop-color:#ED5306"/>
			<stop  offset="1" style="stop-color:#FF7020"/>
		</linearGradient>
		<rect x="208.5" y="410.8" class="st10" width="123" height="3.3"/>
		<g>
			<g>
				<path class="st11" d="M457,442.3c4,15.6-5.5,31.5-21.1,35.5s-31.5-5.5-35.5-21.1s5.5-31.5,21.1-35.5
					C437.1,417.2,453,426.7,457,442.3z"/>
				
					<linearGradient id="SVGID_3_" gradientUnits="userSpaceOnUse" x1="428.75" y1="983.9496" x2="428.75" y2="934.9503" gradientTransform="matrix(1 0 0 1 0 -510)">
					<stop  offset="0" style="stop-color:#3D3AAA"/>
					<stop  offset="1" style="stop-color:#5868FF"/>
				</linearGradient>
				<path class="st12" d="M452.5,443.4c3.3,13.1-4.6,26.4-17.7,29.8c-13.1,3.3-26.4-4.6-29.8-17.7c-3.3-13.1,4.6-26.4,17.7-29.8
					C435.8,422.4,449.1,430.3,452.5,443.4z"/>
				<g>
					<path class="st13" d="M418.7,450c0.8-7.1,5.3-10.8,11-10.2s9.2,5.4,8.4,12.5c-0.8,7.1-5.3,11-11.1,10.3S417.9,457.1,418.7,450z
						 M434.1,451.8c0.6-4.9-1.3-8.2-4.8-8.6s-6,2.3-6.6,7.2c-0.6,4.9,1.3,8.4,4.7,8.8C430.9,459.6,433.5,456.7,434.1,451.8z"/>
					<path class="st13" d="M434.9,434.1l-4.8,2.5l-4-3.5l-0.9-0.1l-0.1,0.5l3.1,4.9l3.5,0.4l4.1-4.1l0.1-0.5L434.9,434.1z"/>
				</g>
			</g>
		</g>
		<g>
			<g>
				<path class="st11" d="M402.9,408.3c4,15.6-5.5,31.5-21.1,35.5s-31.5-5.5-35.5-21.1s5.5-31.5,21.1-35.5
					C383.1,383.3,398.9,392.7,402.9,408.3z"/>
				
					<linearGradient id="SVGID_4_" gradientUnits="userSpaceOnUse" x1="374.65" y1="950.0496" x2="374.65" y2="901.0504" gradientTransform="matrix(1 0 0 1 0 -510)">
					<stop  offset="0" style="stop-color:#3D3AAA"/>
					<stop  offset="1" style="stop-color:#5868FF"/>
				</linearGradient>
				<path class="st14" d="M398.4,409.5c3.3,13.1-4.6,26.4-17.7,29.8c-13.1,3.3-26.4-4.6-29.8-17.7c-3.3-13.1,4.6-26.4,17.7-29.8
					C381.7,388.5,395,396.4,398.4,409.5z"/>
				<g>
					<path class="st13" d="M364.6,416c0.8-7.1,5.3-10.8,11-10.2s9.2,5.4,8.4,12.5c-0.8,7.1-5.3,11-11.1,10.3S363.8,423.1,364.6,416z
						 M380,417.9c0.6-4.9-1.3-8.2-4.8-8.6s-6,2.3-6.6,7.2c-0.6,4.9,1.3,8.4,4.7,8.8C376.8,425.7,379.5,422.8,380,417.9z"/>
					<path class="st13" d="M380.8,400.1l-4.8,2.5l-4-3.5l-0.9-0.1l-0.1,0.5l3.1,4.9l3.5,0.4l4.1-4.1l0.1-0.5L380.8,400.1z"/>
				</g>
			</g>
		</g>
		
			<linearGradient id="SVGID_5_" gradientUnits="userSpaceOnUse" x1="406.9" y1="1009.6" x2="406.9" y2="939.6" gradientTransform="matrix(1 0 0 1 0 -510)">
			<stop  offset="0" style="stop-color:#3D3AAA"/>
			<stop  offset="1" style="stop-color:#5868FF"/>
		</linearGradient>
		<rect x="341.6" y="429.6" class="st15" width="130.6" height="70"/>
		<g>
			<path class="st13" d="M352.4,480.2c0-7.9,4.4-12.5,10.7-12.5c6.3,0,10.7,4.7,10.7,12.5c0,7.9-4.4,12.7-10.7,12.7
				S352.4,488,352.4,480.2z M369.4,480.2c0-5.4-2.5-8.7-6.3-8.7s-6.3,3.3-6.3,8.7s2.5,8.9,6.3,8.9S369.4,485.6,369.4,480.2z"/>
			<path class="st13" d="M368,460.8l-4.8,3.3l-4.8-3.3h-1v0.6l3.9,4.9h3.9l3.9-4.9v-0.6H368z"/>
		</g>
		<path class="st16" d="M484.2,467.3h-71.7c-3.2,0-5.8,3.2-5.8,7.1l0,0c0,3.9,2.6,7.1,5.8,7.1h-9.3c-3.2,0-5.8,3.2-5.8,7.1l0,0
			c0,3.9,2.6,7.1,5.8,7.1h1.6c-3.2,0-5.8,3.2-5.8,7.1c0,1,0.2,2,0.5,2.9h84.7V467.3z"/>
		<g>
			<g>
				<path class="st17" d="M65.1,503.7L65.1,503.7c0,1.3,1.4,2.3,3.2,2.3h803.4c1.8,0,3.2-1,3.2-2.3l0,0c0-1.3-1.4-2.3-3.2-2.3H68.4
					C66.6,501.3,65.1,502.4,65.1,503.7z"/>
			</g>
		</g>
		<path class="st18" d="M484.9,501.3h-74c-3,0-5.4-2.4-5.4-5.4l0,0c0-3,2.4-5.4,5.4-5.4h74c3,0,5.4,2.4,5.4,5.4l0,0
			C490.3,498.9,487.9,501.3,484.9,501.3z"/>
		<path class="st2" d="M483.4,490.6h-74c-3,0-5.4-2.4-5.4-5.4l0,0c0-3,2.4-5.4,5.4-5.4h74c3,0,5.4,2.4,5.4,5.4l0,0
			C488.8,488.2,486.4,490.6,483.4,490.6z"/>
		<path class="st18" d="M492.1,479.8h-74c-3,0-5.4-2.4-5.4-5.4l0,0c0-3,2.4-5.4,5.4-5.4h74c3,0,5.4,2.4,5.4,5.4l0,0
			C497.5,477.4,495.1,479.8,492.1,479.8z"/>
	</g>
	<g>
		<g>
			<path class="st11" d="M308.1,328.4c-5.4,15.2-22.1,23.1-37.3,17.7c-15.2-5.4-23.1-22.1-17.7-37.3c5.4-15.2,22.1-23.1,37.3-17.7
				C305.6,296.5,313.6,313.2,308.1,328.4z"/>
			
				<linearGradient id="SVGID_6_" gradientUnits="userSpaceOnUse" x1="280.65" y1="853.0526" x2="280.65" y2="804.0474" gradientTransform="matrix(1 0 0 1 0 -510)">
				<stop  offset="0" style="stop-color:#3D3AAA"/>
				<stop  offset="1" style="stop-color:#5868FF"/>
			</linearGradient>
			<path class="st19" d="M303.7,326.8c-4.6,12.7-18.6,19.4-31.3,14.8c-12.7-4.6-19.4-18.6-14.8-31.3c4.6-12.7,18.6-19.4,31.3-14.8
				C301.6,300,308.3,314.1,303.7,326.8z"/>
			<g>
				<path class="st13" d="M272.1,313.4c4.7-5.4,10.5-6,14.8-2.3c4.4,3.8,4.6,9.6,0,15c-4.7,5.4-10.6,6.2-14.9,2.4
					S267.4,318.8,272.1,313.4z M283.8,323.5c3.2-3.8,3.5-7.5,0.9-9.8s-6.3-1.5-9.5,2.3s-3.6,7.6-1,9.9
					C276.8,328.2,280.6,327.2,283.8,323.5z"/>
				<path class="st13" d="M294.4,309.2l-5.3-0.6l-1.4-5.2l-0.7-0.6l-0.4,0.4l-0.2,5.8l2.7,2.3l5.7-1.1l0.4-0.4L294.4,309.2z"/>
			</g>
		</g>
	</g>
	<g>
		<g>
			<path class="st20" d="M162.7,497.1c0,0-72.1,9-90.8,1s-5.3-17.8-5.3-17.8s-40.1-7.9-43.2-20.2c-3.1-12.3,16-11.1,16-11.1
				s-39.1-25.1-34-33.5C15,399.9,59,425,59,425s-14.9-13.7-5-19.4c14.9-8.6,38.5,29,38.5,29s-1.5-9.3,10.2-10.3
				C123.9,422.4,162.7,497.1,162.7,497.1z"/>
		</g>
		<path class="st21" d="M101.7,411.7c-11.7,1-11.5,12.4-11.5,12.4S68.7,390,53.7,398.6c-9.9,5.7,1.8,24.4,1.8,24.4
			s-40.5-23.1-50-7.5l157.4,81.2C157.5,487.3,121.3,410,101.7,411.7z"/>
	</g>
	<path class="st0" d="M390.8,40.4l-0.9-5.9l4.3-4c0.5-0.5,0.2-1.3-0.4-1.4l-5.8-1l-2.5-5.4c-0.3-0.6-1.1-0.6-1.5,0l-2.8,5.2
		l-5.9,0.7c-0.7,0.1-1,0.9-0.5,1.4l4.1,4.2l-1.2,5.8c-0.1,0.7,0.6,1.2,1.2,0.9l5.3-2.6l5.2,2.9C390.1,41.5,390.9,41,390.8,40.4z"/>
	<path class="st0" d="M316.1,98.1l-0.9-5.9l4.3-4c0.5-0.5,0.2-1.3-0.4-1.4l-5.8-1l-2.5-5.4c-0.3-0.6-1.1-0.6-1.5,0l-2.8,5.2
		l-5.9,0.7c-0.7,0.1-1,0.9-0.5,1.4l4.1,4.2l-1.2,5.8c-0.1,0.7,0.6,1.2,1.2,0.9l5.3-2.6l5.2,2.9C315.5,99.3,316.2,98.8,316.1,98.1z"
		/>
	<path class="st0" d="M635.7,63.4l-0.9-5.9l4.3-4c0.5-0.5,0.2-1.3-0.4-1.4l-5.8-1l-2.5-5.4c-0.3-0.6-1.1-0.6-1.5,0l-2.8,5.2
		l-5.9,0.7c-0.7,0.1-1,0.9-0.5,1.4l4.1,4.2l-1.2,5.8c-0.1,0.7,0.6,1.2,1.2,0.9l5.3-2.6l5.2,2.9C635,64.6,635.7,64.1,635.7,63.4z"/>
	<path class="st0" d="M768.2,61.1l-0.9-5.9l4.3-4c0.5-0.5,0.2-1.3-0.4-1.4l-5.8-1l-2.5-5.4c-0.3-0.6-1.1-0.6-1.5,0l-2.8,5.2
		l-5.9,0.7c-0.7,0.1-1,0.9-0.5,1.4l4.1,4.2l-1.2,5.8c-0.1,0.7,0.6,1.2,1.2,0.9l5.3-2.6l5.4,3C767.6,62.3,768.3,61.8,768.2,61.1z"/>
	<path class="st0" d="M530.7,24.1l-0.9-5.9l4.3-4c0.5-0.5,0.2-1.3-0.4-1.4l-5.8-1l-2.5-5.4c-0.3-0.6-1.1-0.6-1.5,0l-2.8,5.2
		l-5.9,0.7c-0.7,0.1-1,0.9-0.5,1.4L519,18l-1.2,5.8c-0.1,0.7,0.6,1.2,1.2,0.9l5.3-2.6l5.2,2.9C530.1,25.3,530.8,24.8,530.7,24.1z"/>
	<path class="st7" d="M248.1,297.7h-102c-5,0-9.1,4.1-9.1,9.1v74.7c0,5,4.1,9.1,9.1,9.1h102c5,0,9.1-4.1,9.1-9.1v-74.7
		C257.2,301.7,253.2,297.7,248.1,297.7z"/>
	<g>
		<path class="st17" d="M141.2,502.1h112.7c8.3,0,15-6.7,15-15V246.9c0-8.3-6.7-15-15-15H141.2c-8.3,0-15,6.7-15,15V487
			C126.2,495.4,132.9,502.1,141.2,502.1z"/>
		
			<linearGradient id="SVGID_7_" gradientUnits="userSpaceOnUse" x1="198.6" y1="983.4" x2="198.6" y2="753.4" gradientTransform="matrix(1 0 0 1 0 -510)">
			<stop  offset="0" style="stop-color:#3D3AAA"/>
			<stop  offset="1" style="stop-color:#5868FF"/>
		</linearGradient>
		<path class="st22" d="M262,458.4v-200c0-8.3-6.7-15-15-15h-96.8c-8.3,0-15,6.7-15,15v200c0,8.3,6.7,15,15,15H247
			C255.3,473.4,262,466.6,262,458.4z"/>
		
			<linearGradient id="SVGID_8_" gradientUnits="userSpaceOnUse" x1="187.8" y1="24.5" x2="206" y2="24.5" gradientTransform="matrix(1 0 0 -1 0 514)">
			<stop  offset="0" style="stop-color:#3D3AAA"/>
			<stop  offset="1" style="stop-color:#5868FF"/>
		</linearGradient>
		<ellipse class="st23" cx="196.9" cy="489.5" rx="9.1" ry="9.3"/>
		<g>
			<path class="st24" d="M159.2,366.5l-4.9,3.3l-4.9-3.3h-1v0.6l4,5h3.9l4-5v-0.6H159.2z"/>
		</g>
		<g>
			<path class="st24" d="M143.5,386c0-7.9,4.4-12.6,10.8-12.6c6.4,0,10.8,4.7,10.8,12.6s-4.4,12.8-10.8,12.8S143.5,393.9,143.5,386z
				 M160.6,386c0-5.5-2.5-8.8-6.3-8.8s-6.3,3.3-6.3,8.8s2.5,9,6.3,9S160.6,391.5,160.6,386z"/>
		</g>
		<g>
			<path class="st11" d="M171.6,414.6h5.2c6,0,9.6,3.2,9.6,9.7s-3.6,9.9-9.4,9.9h-5.4L171.6,414.6L171.6,414.6z M176.6,431.3
				c3.9,0,6.2-2.2,6.2-7.1c0-4.8-2.3-6.9-6.2-6.9h-1.5v14H176.6z"/>
			<path class="st11" d="M189.1,426.8c0-4.8,3.3-7.7,6.8-7.7c4,0,6.1,2.9,6.1,7c0,0.7-0.1,1.3-0.2,1.7h-9.4c0.3,2.6,2,4.1,4.3,4.1
				c1.3,0,2.3-0.4,3.4-1.1l1.2,2.1c-1.4,0.9-3.2,1.6-5.1,1.6C192.3,434.5,189.1,431.7,189.1,426.8z M198.9,425.4c0-2.3-1-3.6-3-3.6
				c-1.7,0-3.2,1.3-3.5,3.6H198.9z"/>
			<path class="st11" d="M205.5,414.6h11.9v2.9H209v5.6h7.1v2.9H209v8.2h-3.5V414.6z"/>
			<path class="st11" d="M220.1,414.9c0-1.2,0.9-2,2.1-2c1.2,0,2.1,0.8,2.1,2c0,1.1-0.9,2-2.1,2C221.1,416.9,220.1,416,220.1,414.9z
				 M220.5,419.4h3.5v14.7h-3.5V419.4z"/>
		</g>
		<g>
			<path class="st24" d="M169.7,380h3.5l0.3,2.5h0.1c1.6-1.6,3.3-3,5.6-3c2.7,0,4.2,1.2,5.1,3.3c1.8-1.9,3.6-3.3,5.9-3.3
				c3.9,0,5.7,2.7,5.7,7.3v11.5h-4.3v-11c0-3-0.9-4.2-2.8-4.2c-1.2,0-2.4,0.7-3.8,2.3v12.8h-4.3v-11c0-3-0.9-4.2-2.8-4.2
				c-1.1,0-2.4,0.7-3.8,2.3v12.8h-4.3L169.7,380L169.7,380z"/>
			<path class="st24" d="M200,389.2c0-6,4.1-9.7,8.5-9.7c5,0,7.6,3.6,7.6,8.7c0,0.8-0.1,1.6-0.2,2.1h-11.7c0.4,3.3,2.5,5.1,5.4,5.1
				c1.6,0,2.9-0.5,4.3-1.3l1.5,2.7c-1.8,1.2-4,2-6.3,2C204,398.8,200,395.2,200,389.2z M212.3,387.4c0-2.8-1.3-4.6-3.8-4.6
				c-2.1,0-4,1.6-4.4,4.6H212.3z"/>
			<path class="st24" d="M218.5,401.7c0-1.5,1-2.9,2.6-3.9v-0.1c-0.9-0.6-1.7-1.6-1.7-3.1c0-1.4,1-2.7,2-3.4V391
				c-1.3-0.9-2.4-2.7-2.4-4.9c0-4.2,3.4-6.6,7.3-6.6c1,0,2,0.2,2.7,0.4h6.6v3.2h-3.4c0.6,0.7,1,1.8,1,3.1c0,4.1-3.1,6.3-7,6.3
				c-0.8,0-1.7-0.2-2.5-0.5c-0.6,0.5-0.9,0.9-0.9,1.8c0,1,0.7,1.7,3,1.7h3.3c4.4,0,6.7,1.4,6.7,4.5c0,3.6-3.8,6.5-9.8,6.5
				C221.8,406.5,218.5,404.9,218.5,401.7z M231.8,400.7c0-1.4-1.1-1.8-3.2-1.8h-2.5c-1,0-1.8-0.1-2.5-0.3c-1,0.7-1.4,1.6-1.4,2.4
				c0,1.7,1.8,2.6,4.7,2.6C229.8,403.7,231.8,402.3,231.8,400.7z M229.6,386.1c0-2.3-1.4-3.6-3.2-3.6s-3.2,1.3-3.2,3.6
				c0,2.3,1.4,3.7,3.2,3.7C228.2,389.8,229.6,388.5,229.6,386.1z"/>
			<path class="st24" d="M237.6,393.4c0-3.9,3.3-6,10.8-6.8c-0.1-2-0.9-3.6-3.3-3.6c-1.8,0-3.5,0.8-5.2,1.8l-1.6-2.9
				c2-1.3,4.6-2.4,7.5-2.4c4.6,0,6.9,2.8,6.9,7.9v10.9h-3.5l-0.3-2h-0.1c-1.6,1.4-3.5,2.5-5.7,2.5
				C239.8,398.8,237.6,396.6,237.6,393.4z M248.4,393.4v-4.1c-5,0.6-6.6,1.9-6.6,3.8c0,1.6,1.1,2.3,2.6,2.3
				C245.9,395.4,247.1,394.7,248.4,393.4z"/>
		</g>
	</g>
	<g>
		<path class="st25" d="M164.9,322.3c0-24.5,13.6-38.9,33.4-38.9s33.4,14.5,33.4,38.9c0,24.5-13.6,39.6-33.4,39.6
			S164.9,346.8,164.9,322.3z M217.9,322.3c0-17-7.7-27.3-19.6-27.3s-19.6,10.3-19.6,27.3s7.7,27.9,19.6,27.9
			C210.2,350.2,217.9,339.3,217.9,322.3z"/>
		<path class="st25" d="M213.4,261.9l-15.2,10.3L183,261.9h-3.2v1.9l12.3,15.4h12.1l12.3-15.4v-1.9
			C216.5,261.9,213.4,261.9,213.4,261.9z"/>
	</g>
	<g>
		<path class="st18" d="M152.1,502.7H79.4c-2.9,0-5.3-2.4-5.3-5.3l0,0c0-2.9,2.4-5.3,5.3-5.3h72.7c2.9,0,5.3,2.4,5.3,5.3l0,0
			C157.4,500.3,155,502.7,152.1,502.7z"/>
		<path class="st2" d="M150.6,492.1H77.9c-2.9,0-5.3-2.4-5.3-5.3l0,0c0-2.9,2.4-5.3,5.3-5.3h72.7c2.9,0,5.3,2.4,5.3,5.3l0,0
			C155.9,489.7,153.5,492.1,150.6,492.1z"/>
		<path class="st18" d="M159.2,481.5H86.4c-2.9,0-5.3-2.4-5.3-5.3l0,0c0-2.9,2.4-5.3,5.3-5.3h72.7c2.9,0,5.3,2.4,5.3,5.3l0,0
			C164.4,479.2,162.1,481.5,159.2,481.5z"/>
		<path class="st18" d="M150.3,471H77.6c-2.9,0-5.3-2.4-5.3-5.3l0,0c0-2.9,2.4-5.3,5.3-5.3h72.7c2.9,0,5.3,2.4,5.3,5.3l0,0
			C155.6,468.6,153.3,471,150.3,471z"/>
		<path class="st2" d="M148.9,460.4H76.1c-2.9,0-5.3-2.4-5.3-5.3l0,0c0-2.9,2.4-5.3,5.3-5.3h72.7c2.9,0,5.3,2.4,5.3,5.3l0,0
			C154.2,458,151.8,460.4,148.9,460.4z"/>
		<path class="st18" d="M157.4,449.8H84.7c-2.9,0-5.3-2.4-5.3-5.3l0,0c0-2.9,2.4-5.3,5.3-5.3h72.7c2.9,0,5.3,2.4,5.3,5.3l0,0
			C162.7,447.5,160.3,449.8,157.4,449.8z"/>
	</g>
	<g>
		<path class="st18" d="M578.7,501.3H506c-2.9,0-5.3-2.4-5.3-5.3l0,0c0-2.9,2.4-5.3,5.3-5.3h72.7c2.9,0,5.3,2.4,5.3,5.3l0,0
			C584,499,581.6,501.3,578.7,501.3z"/>
		<path class="st2" d="M577.3,490.8h-72.7c-2.9,0-5.3-2.4-5.3-5.3l0,0c0-2.9,2.4-5.3,5.3-5.3h72.7c2.9,0,5.3,2.4,5.3,5.3l0,0
			C582.5,488.4,580.2,490.8,577.3,490.8z"/>
		<path class="st18" d="M585.8,480.2h-72.7c-2.9,0-5.3-2.4-5.3-5.3l0,0c0-2.9,2.4-5.3,5.3-5.3h72.7c2.9,0,5.3,2.4,5.3,5.3l0,0
			C591.1,477.8,588.7,480.2,585.8,480.2z"/>
		<path class="st18" d="M577,469.6h-72.7c-2.9,0-5.3-2.4-5.3-5.3l0,0c0-2.9,2.4-5.3,5.3-5.3H577c2.9,0,5.3,2.4,5.3,5.3l0,0
			C582.3,467.3,579.9,469.6,577,469.6z"/>
		<path class="st2" d="M575.5,459.1h-72.7c-2.9,0-5.3-2.4-5.3-5.3l0,0c0-2.9,2.4-5.3,5.3-5.3h72.7c2.9,0,5.3,2.4,5.3,5.3l0,0
			C580.8,456.7,578.4,459.1,575.5,459.1z"/>
		<path class="st18" d="M584,448.5h-72.7c-2.9,0-5.3-2.4-5.3-5.3l0,0c0-2.9,2.4-5.3,5.3-5.3H584c2.9,0,5.3,2.4,5.3,5.3l0,0
			C589.3,446.1,586.9,448.5,584,448.5z"/>
	</g>
	<g>
		<path class="st2" d="M651.4,501.2h-72.7c-2.9,0-5.3-2.4-5.3-5.3l0,0c0-2.9,2.4-5.3,5.3-5.3h72.7c2.9,0,5.3,2.4,5.3,5.3l0,0
			C656.7,498.8,654.3,501.2,651.4,501.2z"/>
		<path class="st18" d="M649.9,490.6h-72.7c-2.9,0-5.3-2.4-5.3-5.3l0,0c0-2.9,2.4-5.3,5.3-5.3h72.7c2.9,0,5.3,2.4,5.3,5.3l0,0
			C655.2,488.2,652.9,490.6,649.9,490.6z"/>
		<path class="st2" d="M658.5,480h-72.7c-2.9,0-5.3-2.4-5.3-5.3l0,0c0-2.9,2.4-5.3,5.3-5.3h72.7c2.9,0,5.3,2.4,5.3,5.3l0,0
			C663.8,477.7,661.4,480,658.5,480z"/>
		<path class="st2" d="M649.7,469.5H577c-2.9,0-5.3-2.4-5.3-5.3l0,0c0-2.9,2.4-5.3,5.3-5.3h72.7c2.9,0,5.3,2.4,5.3,5.3l0,0
			C655,467.1,652.6,469.5,649.7,469.5z"/>
		<path class="st18" d="M648.2,458.9h-72.7c-2.9,0-5.3-2.4-5.3-5.3l0,0c0-2.9,2.4-5.3,5.3-5.3h72.7c2.9,0,5.3,2.4,5.3,5.3l0,0
			C653.5,456.5,651.1,458.9,648.2,458.9z"/>
		<path class="st2" d="M656.7,448.3H584c-2.9,0-5.3-2.4-5.3-5.3l0,0c0-2.9,2.4-5.3,5.3-5.3h72.7c2.9,0,5.3,2.4,5.3,5.3l0,0
			C662,446,659.6,448.3,656.7,448.3z"/>
	</g>
	<g>
		<g>
			<path class="st11" d="M801,192.8c9.3,13.2,6.1,31.4-7.1,40.7c-13.2,9.3-31.4,6.1-40.7-7.1c-9.3-13.2-6.1-31.4,7.1-40.7
				C773.6,176.4,791.8,179.6,801,192.8z"/>
			
				<linearGradient id="SVGID_9_" gradientUnits="userSpaceOnUse" x1="777.15" y1="744.0598" x2="777.15" y2="695.0839" gradientTransform="matrix(1 0 0 1 0 -510)">
				<stop  offset="0" style="stop-color:#3D3AAA"/>
				<stop  offset="1" style="stop-color:#5868FF"/>
			</linearGradient>
			<path class="st26" d="M797.2,195.5c7.8,11.1,5.1,26.4-6,34.1c-11.1,7.8-26.4,5.1-34.1-6c-7.8-11.1-5.1-26.4,6-34.1
				C774.1,181.8,789.4,184.4,797.2,195.5z"/>
			<g>
				<path class="st13" d="M767.9,213.6c-1.7-7,1.1-12,6.7-13.4s10.5,1.8,12.2,8.7c1.7,7-1.1,12.2-6.7,13.6S769.7,220.5,767.9,213.6z
					 M783,209.8c-1.2-4.8-4.1-7.2-7.5-6.4s-4.8,4.3-3.6,9.1s4.1,7.4,7.5,6.5C782.8,218.3,784.2,214.7,783,209.8z"/>
				<path class="st13" d="M777.4,193l-3.6,4l-5-1.9l-0.9,0.2l0.1,0.5l4.6,3.5l3.4-0.9l2.4-5.2l-0.1-0.5L777.4,193z"/>
			</g>
		</g>
	</g>
	<polygon class="st0" points="625.5,270.1 627.1,276 633.2,277.1 634.5,283.9 641.4,283.1 643.1,290.7 649.6,290.7 652.4,297.7 
		649.8,298.8 647.6,293.6 640.8,293.5 639.1,286.2 632.1,287.1 630.7,279.6 624.7,278.5 623.3,273 619.2,273.1 619.2,270.3 	"/>
	<polygon class="st0" points="657.2,86.9 663,88.8 667.3,84.2 673.6,86.9 676.7,80.6 684,83.3 687.6,77.9 695,79.3 694.5,82.1 
		688.9,81.1 685.2,86.8 678.2,84.2 675,90.6 668,87.7 663.9,92.1 658.5,90.3 656.3,93.8 653.9,92.3 	"/>
	<polygon class="st0" points="480.1,35.6 480.8,28.5 475.6,27.3 476,20.2 471.2,18.4 470.8,13 468.7,13.3 469.2,20.4 473.8,22.2 
		473.3,29.5 478.4,30.7 477.8,37.1 	"/>
	<polygon class="st0" points="865.8,172.2 866.5,165.1 861.3,163.9 861.7,156.9 856.9,155 856.5,149.7 854.4,149.9 854.9,157.1 
		859.4,158.8 859,166.2 864.1,167.3 863.5,173.8 	"/>
	<g>
		<polygon class="st0" points="354.6,87.4 342.4,78.2 343.7,76.5 354.1,84.4 365.8,67.5 367.5,68.7 		"/>
	</g>
	<g>
		<polygon class="st0" points="788.1,136.9 775.9,127.7 777.2,126 787.6,133.9 799.3,117 801,118.2 		"/>
	</g>
</g>
<g>
	<g>
		<path class="st11" d="M721.7,241c8.6,12.2,5.6,29-6.6,37.6c-12.2,8.6-29,5.6-37.6-6.6s-5.6-29,6.6-37.6
			C696.3,225.9,713.2,228.8,721.7,241z"/>
		
			<linearGradient id="SVGID_10_" gradientUnits="userSpaceOnUse" x1="699.65" y1="789.2169" x2="699.65" y2="743.8832" gradientTransform="matrix(1 0 0 1 0 -510)">
			<stop  offset="0" style="stop-color:#3D3AAA"/>
			<stop  offset="1" style="stop-color:#5868FF"/>
		</linearGradient>
		<path class="st27" d="M718.2,243.5c7.2,10.2,4.7,24.4-5.5,31.6s-24.4,4.7-31.6-5.5c-7.2-10.2-4.7-24.4,5.5-31.6
			C696.9,230.8,711,233.3,718.2,243.5z"/>
		<g>
			<path class="st13" d="M691.2,260.2c-1.6-6.4,1-11.1,6.2-12.4c5.2-1.3,9.7,1.6,11.3,8s-1,11.3-6.2,12.6
				C697.3,269.7,692.8,266.7,691.2,260.2z M705.1,256.8c-1.1-4.5-3.8-6.7-6.9-5.9c-3.1,0.8-4.5,4-3.4,8.4c1.1,4.5,3.8,6.8,7,6
				C704.9,264.6,706.2,261.2,705.1,256.8z"/>
			<path class="st13" d="M699.9,241.2l-3.3,3.7l-4.6-1.7l-0.8,0.2l0.1,0.5l4.2,3.2l3.2-0.8l2.2-4.8l-0.1-0.5L699.9,241.2z"/>
		</g>
	</g>
</g>
<g>
	<g>
		<path class="st11" d="M695.6,126.9c10.8,11,10.7,28.8-0.3,39.6s-28.8,10.7-39.6-0.3s-10.7-28.8,0.3-39.6
			C667,115.7,684.8,115.9,695.6,126.9z"/>
		
			<linearGradient id="SVGID_11_" gradientUnits="userSpaceOnUse" x1="675.65" y1="680.0508" x2="675.65" y2="633.0492" gradientTransform="matrix(1 0 0 1 0 -510)">
			<stop  offset="0" style="stop-color:#3D3AAA"/>
			<stop  offset="1" style="stop-color:#5868FF"/>
		</linearGradient>
		<path class="st28" d="M692.4,130.1c9.1,9.3,9,24.1-0.3,33.2c-9.3,9.1-24.1,9-33.2-0.3c-9.1-9.3-9-24.1,0.3-33.2
			C668.4,120.7,683.3,120.8,692.4,130.1z"/>
		<g>
			<path class="st13" d="M667.6,151.8c-2.7-6.3-0.8-11.5,4.3-13.7s10.2,0,12.9,6.3s0.9,11.7-4.2,13.9
				C675.5,160.4,670.3,158.1,667.6,151.8z M681.2,145.9c-1.9-4.4-5-6.2-8.1-4.8c-3.1,1.3-3.9,4.8-2,9.2s5.1,6.3,8.2,5
				C682.3,153.9,683.1,150.2,681.2,145.9z"/>
			<path class="st13" d="M673.3,130.8l-2.7,4.3l-5-1l-0.8,0.3l0.2,0.5l4.9,2.6l3.1-1.3l1.4-5.3l-0.2-0.5L673.3,130.8z"/>
		</g>
	</g>
</g>
<g>
	<g>
		<path class="st11" d="M577.5,74.4c1.7,15.9-9.8,30.2-25.7,32c-15.9,1.7-30.2-9.8-32-25.7c-1.7-15.9,9.8-30.2,25.7-32
			C561.4,47,575.7,58.5,577.5,74.4z"/>
		
			<linearGradient id="SVGID_12_" gradientUnits="userSpaceOnUse" x1="548.6" y1="611.853" x2="548.6" y2="563.1656" gradientTransform="matrix(1 0 0 1 0 -510)">
			<stop  offset="0" style="stop-color:#3D3AAA"/>
			<stop  offset="1" style="stop-color:#5868FF"/>
		</linearGradient>
		<path class="st29" d="M572.8,74.9c1.5,13.4-8.2,25.4-21.6,26.8c-13.4,1.5-25.4-8.2-26.8-21.6c-1.5-13.4,8.2-25.4,21.6-26.8
			C559.4,51.9,571.4,61.6,572.8,74.9z"/>
		<g>
			<path class="st13" d="M538.7,76.6c1.8-6.9,6.7-9.9,12.3-8.4c5.5,1.5,8.3,6.6,6.5,13.4c-1.8,6.9-6.8,10.1-12.3,8.6
				C539.6,88.7,536.9,83.5,538.7,76.6z M553.6,80.6c1.3-4.8-0.1-8.2-3.5-9.1s-6.3,1.4-7.5,6.2s0.1,8.4,3.4,9.3
				C549.4,87.8,552.4,85.3,553.6,80.6z"/>
			<path class="st13" d="M556.9,63.3l-5,1.8l-3.5-4l-0.9-0.2l-0.1,0.5l2.3,5.2l3.4,0.9l4.6-3.4l0.1-0.5L556.9,63.3z"/>
		</g>
	</g>
</g>
<g>
	<g>
		<path class="st11" d="M443.9,101c-3.5,16.2-19.5,26.4-35.7,22.9s-26.4-19.5-22.9-35.7s19.5-26.4,35.7-22.9
			C437.2,68.8,447.5,84.8,443.9,101z"/>
		
			<linearGradient id="SVGID_13_" gradientUnits="userSpaceOnUse" x1="414.6" y1="629.697" x2="414.6" y2="579.303" gradientTransform="matrix(1 0 0 1 0 -510)">
			<stop  offset="0" style="stop-color:#3D3AAA"/>
			<stop  offset="1" style="stop-color:#5868FF"/>
		</linearGradient>
		<path class="st30" d="M439.2,99.9c-3,13.6-16.4,22.2-30,19.2s-22.2-16.4-19.2-30s16.4-22.2,30-19.2
			C433.6,72.9,442.2,86.4,439.2,99.9z"/>
		<g>
			<path class="st13" d="M405.2,90.4c4.1-6.2,9.9-7.5,14.8-4.2s6,9.2,1.9,15.3c-4.1,6.2-10,7.7-14.9,4.4
				C402.1,102.6,401.2,96.5,405.2,90.4z M418.5,99.2c2.8-4.3,2.6-8.1-0.4-10.1s-6.6-0.7-9.4,3.6c-2.8,4.3-2.7,8.3,0.3,10.2
				C412,104.9,415.7,103.4,418.5,99.2z"/>
			<path class="st13" d="M427.4,83.3l-5.5,0.1l-2.1-5.1l-0.8-0.5l-0.3,0.5l0.5,5.9l3,2l5.6-1.8l0.3-0.5L427.4,83.3z"/>
		</g>
	</g>
</g>
<g>
	<g>
		<path class="st11" d="M328.1,203.7c-8.9,14.6-28,19.2-42.6,10.3s-19.2-28-10.3-42.6c8.9-14.6,28-19.2,42.6-10.3
			C332.4,170,337,189.1,328.1,203.7z"/>
		
			<linearGradient id="SVGID_14_" gradientUnits="userSpaceOnUse" x1="301.6" y1="723.5427" x2="301.6" y2="671.5167" gradientTransform="matrix(1 0 0 1 0 -510)">
			<stop  offset="0" style="stop-color:#3D3AAA"/>
			<stop  offset="1" style="stop-color:#5868FF"/>
		</linearGradient>
		<path class="st31" d="M323.8,201.1c-7.5,12.3-23.5,16.1-35.8,8.6s-16.1-23.5-8.6-35.8s23.5-16.1,35.8-8.6
			C327.5,172.8,331.3,188.9,323.8,201.1z"/>
		<g>
			<path class="st13" d="M293.9,180.3c6-4.6,12.2-4,15.9,0.9c3.7,4.9,2.7,11-3.3,15.6s-12.3,4.1-16.1-0.7S287.8,184.9,293.9,180.3z
				 M303.9,193.4c4.2-3.2,5.3-7,3-10c-2.3-2.9-6.2-2.9-10.4,0.3s-5.4,7.2-3.2,10.1C295.6,196.7,299.7,196.6,303.9,193.4z"/>
			<path class="st13" d="M317.9,180.8l-5.4-1.8l-0.3-5.7l-0.6-0.8l-0.5,0.4l-1.5,6l2.3,3l6.1,0.1l0.5-0.4L317.9,180.8z"/>
		</g>
	</g>
</g>
<g>
	<g>
		<path class="st11" d="M757.6,319.4c7,9.9,4.6,23.7-5.4,30.6c-9.9,7-23.7,4.6-30.6-5.4c-7-9.9-4.6-23.7,5.4-30.6
			C736.9,307.1,750.6,309.5,757.6,319.4z"/>
		
			<linearGradient id="SVGID_15_" gradientUnits="userSpaceOnUse" x1="739.6" y1="860.5034" x2="739.6" y2="823.5816" gradientTransform="matrix(1 0 0 1 0 -510)">
			<stop  offset="0" style="stop-color:#3D3AAA"/>
			<stop  offset="1" style="stop-color:#5868FF"/>
		</linearGradient>
		<path class="st32" d="M754.7,321.4c5.9,8.3,3.8,19.9-4.5,25.7c-8.3,5.9-19.9,3.8-25.7-4.5c-5.9-8.3-3.8-19.9,4.5-25.7
			C737.3,311.1,748.8,313.1,754.7,321.4z"/>
		<g>
			<path class="st13" d="M732.6,335c-1.3-5.2,0.8-9.1,5.1-10.1s7.9,1.3,9.2,6.5s-0.8,9.2-5,10.2C737.7,342.8,733.9,340.3,732.6,335z
				 M744,332.2c-0.9-3.6-3.1-5.4-5.6-4.8c-2.6,0.6-3.6,3.2-2.7,6.9c0.9,3.6,3.1,5.6,5.7,4.9C743.8,338.6,744.9,335.9,744,332.2z"/>
			<path class="st13" d="M739.8,319.5l-2.7,3l-3.8-1.4l-0.7,0.2l0.1,0.4l3.5,2.6l2.6-0.6l1.8-3.9l-0.1-0.4L739.8,319.5z"/>
		</g>
	</g>
</g>
<g id="Page-1">
	<g id="_x30_03---Safe">
		<path id="Rectangle-path" class="st33" d="M717.5,337.2h122.1c6.2,0,11.1,5,11.1,11.1V471c0,6.2-5,11.1-11.1,11.1H717.5
			c-6.2,0-11.1-5-11.1-11.1V348.4C706.3,342.2,711.3,337.2,717.5,337.2z"/>
		<path id="Shape" class="st34" d="M839.6,337.2h-8.4c6.2,0,11.1,5,11.1,11.1V471c0,6.2-5,11.1-11.1,11.1h8.4
			c6.2,0,11.1-5,11.1-11.1V348.4C850.8,342.2,845.8,337.2,839.6,337.2z"/>
		<path id="Shape_1_" class="st33" d="M761.6,482.1v8.4c0,4.6-3.7,8.4-8.4,8.4h-27.4c-4.6,0-8.4-3.7-8.4-8.4v-8.4H761.6z"/>
		<path id="Shape_2_" class="st34" d="M753.2,482.1v8.4c0,4.6-3.7,8.4-8.4,8.4h8.4c4.6,0,8.4-3.7,8.4-8.4v-8.4H753.2z"/>
		<path id="Shape_3_" class="st33" d="M839.1,482.1v8.4c0,4.6-3.7,8.4-8.4,8.4h-27.4c-4.6,0-8.4-3.7-8.4-8.4v-8.4H839.1z"/>
		<path id="Shape_4_" class="st34" d="M830.8,482.1v8.4c0,4.6-3.7,8.4-8.4,8.4h8.4c4.6,0,8.4-3.7,8.4-8.4v-8.4H830.8z"/>
		<path id="Shape_5_" class="st33" d="M822.9,373.5v16.7c0,3.1,2.5,5.6,5.6,5.6h2.8v27.9h-2.8c-3.1,0-5.6,2.5-5.6,5.6V446
			c0,3.1,2.5,5.6,5.6,5.6h2.8v5.6c0,3.1-2.5,5.6-5.6,5.6H731c-3.1,0-5.6-2.5-5.6-5.6v-94.7c0-3.1,2.5-5.6,5.6-5.6h94.7
			c3.1,0,5.6,2.5,5.6,5.6v5.6h-2.8C825.4,367.9,822.9,370.4,822.9,373.5z"/>
		<path id="Shape_6_" class="st33" d="M828.5,367.9h2.8v-5.6c0-3.1-2.5-5.6-5.6-5.6h-8.4c3.1,0,5.6,2.5,5.6,5.6v5.6h-2.8
			c-3.1,0-5.6,2.5-5.6,5.6v16.7c0,3.1,2.5,5.6,5.6,5.6h2.8v27.9h-2.8c-3.1,0-5.6,2.5-5.6,5.6V446c0,3.1,2.5,5.6,5.6,5.6h2.8v5.6
			c0,3.1-2.5,5.6-5.6,5.6h8.4c3.1,0,5.6-2.5,5.6-5.6v-5.6h-2.8c-3.1,0-5.6-2.5-5.6-5.6v-16.7c0-3.1,2.5-5.6,5.6-5.6h2.8v-27.9h-2.8
			c-3.1,0-5.6-2.5-5.6-5.6v-16.7C822.9,370.4,825.4,367.9,828.5,367.9z"/>
		<circle id="Oval_1_" class="st33" cx="778.3" cy="409.7" r="13.9"/>
		<path id="Rectangle-path_1_" class="st34" d="M828.5,367.9h5.6c3.1,0,5.6,2.5,5.6,5.6v16.7c0,3.1-2.5,5.6-5.6,5.6h-5.6
			c-3.1,0-5.6-2.5-5.6-5.6v-16.7C822.9,370.4,825.4,367.9,828.5,367.9z"/>
		<path id="Shape_8_" class="st33" d="M834,367.9h-5.6c-0.5,0-0.9,0.1-1.4,0.2c2.5,0.6,4.2,2.8,4.2,5.4v16.7c0,2.5-1.7,4.7-4.2,5.4
			c0.5,0.1,0.9,0.2,1.4,0.2h5.6c3.1,0,5.6-2.5,5.6-5.6v-16.7C839.6,370.4,837.1,367.9,834,367.9z"/>
		<path id="Rectangle-path_2_" class="st34" d="M828.5,423.6h5.6c3.1,0,5.6,2.5,5.6,5.6v16.7c0,3.1-2.5,5.6-5.6,5.6h-5.6
			c-3.1,0-5.6-2.5-5.6-5.6v-16.7C822.9,426.1,825.4,423.6,828.5,423.6z"/>
		<path id="Shape_9_" class="st33" d="M834,423.6h-5.6c-0.5,0-0.9,0.1-1.4,0.2c2.5,0.6,4.2,2.8,4.2,5.4v16.7c0,2.5-1.7,4.7-4.2,5.4
			c0.5,0.1,0.9,0.2,1.4,0.2h5.6c3.1,0,5.6-2.5,5.6-5.6v-16.7C839.6,426.1,837.1,423.6,834,423.6z"/>
		<path id="Shape_10_" class="st33" d="M717.5,482.1v8.4c0,4.6,3.7,8.4,8.4,8.4h8.4c-4.6,0-8.4-3.7-8.4-8.4v-8.4
			c-6.2,0-11.1-5-11.1-11.1V348.4c0-6.2,5-11.1,11.1-11.1h-8.4c-6.2,0-11.1,5-11.1,11.1V471c0,3,1.2,5.8,3.3,7.9
			C711.7,481,714.5,482.1,717.5,482.1z"/>
		<path id="Rectangle-path_3_" class="st33" d="M703.6,448.7h5.6V471h-5.6V448.7z"/>
		<g>
			<path id="Shape_11_" class="st17" d="M703.6,448.7c0,1.5,1.2,2.8,2.8,2.8c1.5,0,2.8-1.2,2.8-2.8v-65.6v-9.6
				c0-1.5-1.2-2.8-2.8-2.8c-1.5,0-2.8,1.2-2.8,2.8v9.6V448.7z"/>
			<circle id="Oval_2_" class="st17" cx="706.3" cy="459.8" r="2.8"/>
			<path id="Shape_12_" class="st17" d="M714.7,484.6v5.9c0,6.2,5,11.1,11.1,11.1h27.4c6.2,0,11.1-5,11.1-11.1v-5.6h27.9v5.6
				c0,6.2,5,11.1,11.1,11.1h27.4c6.2,0,11.1-5,11.1-11.1v-5.8c6.7-1.1,11.6-6.9,11.6-13.7V348.4c0-7.7-6.2-13.9-13.9-13.9h-122
				c-7.7,0-13.9,6.2-13.9,13.9v11.1c0,1.5,1.2,2.8,2.8,2.8c1.5,0,2.8-1.2,2.8-2.8v-11.1c0-4.6,3.7-8.4,8.4-8.4h122.1
				c4.6,0,8.4,3.7,8.4,8.4V471c0,4.6-3.7,8.4-8.4,8.4H717.5c-4.6,0-8.4-3.7-8.4-8.4c0-1.5-1.2-2.8-2.8-2.8c-1.5,0-2.8,1.2-2.8,2.8
				C703.6,477.6,708.2,483.3,714.7,484.6L714.7,484.6z M836.4,484.9v5.6c0,3.1-2.5,5.6-5.6,5.6h-27.4c-3.1,0-5.6-2.5-5.6-5.6v-5.6
				H836.4z M758.8,484.9v5.6c0,3.1-2.5,5.6-5.6,5.6h-27.4c-3.1,0-5.6-2.5-5.6-5.6v-5.6H758.8z"/>
			<path id="Shape_13_" class="st17" d="M725.4,429.2c-1.5,0-2.8,1.2-2.8,2.8v25.1c0,4.6,3.7,8.4,8.4,8.4h94.7
				c4.6,0,8.4-3.7,8.4-8.4v-2.8c4.6,0,8.4-3.7,8.4-8.4v-16.7c0-4.6-3.7-8.4-8.4-8.4v-22.3c4.6,0,8.4-3.7,8.4-8.4v-16.7
				c0-4.6-3.7-8.4-8.4-8.4v-2.8c0-4.6-3.7-8.4-8.4-8.4H731c-4.6,0-8.4,3.7-8.4,8.4V418c0,1.5,1.2,2.8,2.8,2.8c1.5,0,2.8-1.2,2.8-2.8
				v-55.7c0-1.5,1.2-2.8,2.8-2.8h94.7c1.5,0,2.8,1.2,2.8,2.8v2.8c-4.6,0-8.4,3.7-8.4,8.4v16.7c0,4.6,3.7,8.4,8.4,8.4v22.3
				c-4.6,0-8.4,3.7-8.4,8.4V446c0,4.6,3.7,8.4,8.4,8.4v2.8c0,1.5-1.2,2.8-2.8,2.8H731c-1.5,0-2.8-1.2-2.8-2.8V432
				C728.2,430.4,726.9,429.2,725.4,429.2z M825.7,390.2v-16.7c0-1.5,1.2-2.8,2.8-2.8h5.6c1.5,0,2.8,1.2,2.8,2.8v16.7
				c0,1.5-1.2,2.8-2.8,2.8h-5.6C826.9,393,825.7,391.7,825.7,390.2z M825.7,445.9v-16.7c0-1.5,1.2-2.8,2.8-2.8h5.6
				c1.5,0,2.8,1.2,2.8,2.8v16.7c0,1.5-1.2,2.8-2.8,2.8h-5.6C826.9,448.7,825.7,447.4,825.7,445.9z"/>
			<path id="Shape_16_" class="st17" d="M750.5,365.1h-13.9c-1.5,0-2.8,1.2-2.8,2.8v13.9c0,1.5,1.2,2.8,2.8,2.8
				c1.5,0,2.8-1.2,2.8-2.8v-11.1h11.1c1.5,0,2.8-1.2,2.8-2.8S752,365.1,750.5,365.1z"/>
		</g>
	</g>
</g>
<g>
	<g>
		<path class="st11" d="M829.2,292.3c7.6,10.8,5,25.8-5.9,33.4c-10.8,7.6-25.8,5-33.4-5.9c-7.6-10.8-5-25.8,5.9-33.4
			C806.6,278.8,821.6,281.4,829.2,292.3z"/>
		
			<linearGradient id="SVGID_16_" gradientUnits="userSpaceOnUse" x1="809.5" y1="836.1817" x2="809.5" y2="795.9033" gradientTransform="matrix(1 0 0 1 0 -510)">
			<stop  offset="0" style="stop-color:#3D3AAA"/>
			<stop  offset="1" style="stop-color:#5868FF"/>
		</linearGradient>
		<path class="st35" d="M826,294.5c6.4,9.1,4.2,21.7-4.9,28.1c-9.1,6.4-21.7,4.2-28.1-4.9c-6.4-9.1-4.2-21.7,4.9-28.1
			C807.1,283.2,819.6,285.4,826,294.5z"/>
		<g>
			<path class="st13" d="M802,309.3c-1.4-5.7,0.9-9.9,5.5-11s8.6,1.4,10.1,7.1c1.4,5.7-0.9,10-5.5,11.2
				C807.5,317.7,803.4,315,802,309.3z M814.4,306.2c-1-4-3.4-5.9-6.2-5.2c-2.8,0.7-4,3.5-3,7.5s3.4,6.1,6.2,5.4
				C814.2,313.2,815.4,310.2,814.4,306.2z"/>
			<path class="st13" d="M809.8,292.4l-2.9,3.3l-4.1-1.5l-0.7,0.2l0.1,0.4l3.8,2.9l2.8-0.7l2-4.3l-0.1-0.4L809.8,292.4z"/>
		</g>
	</g>
</g>
<g>
	<g>
		<path class="st11" d="M597.5,146.4c10.8,11,10.7,28.8-0.3,39.6s-28.8,10.7-39.6-0.3s-10.7-28.8,0.3-39.6
			C569,135.2,586.7,135.4,597.5,146.4z"/>
		
			<linearGradient id="SVGID_17_" gradientUnits="userSpaceOnUse" x1="577.55" y1="699.5508" x2="577.55" y2="652.5492" gradientTransform="matrix(1 0 0 1 0 -510)">
			<stop  offset="0" style="stop-color:#3D3AAA"/>
			<stop  offset="1" style="stop-color:#5868FF"/>
		</linearGradient>
		<path class="st36" d="M594.3,149.6c9.1,9.3,9,24.1-0.3,33.2c-9.3,9.1-24.1,9-33.2-0.3c-9.1-9.3-9-24.1,0.3-33.2
			C570.3,140.2,585.2,140.3,594.3,149.6z"/>
		<g>
			<path class="st13" d="M569.5,171.3c-2.7-6.3-0.8-11.5,4.3-13.7s10.2,0,12.9,6.3s0.9,11.7-4.2,13.9S572.2,177.6,569.5,171.3z
				 M583.1,165.3c-1.9-4.4-5-6.2-8.1-4.8c-3.1,1.3-3.9,4.8-2,9.2s5.1,6.3,8.2,5C584.3,173.4,585,169.7,583.1,165.3z"/>
			<path class="st13" d="M575.2,150.3l-2.7,4.3l-5-1l-0.8,0.3l0.2,0.5l4.9,2.6l3.1-1.3l1.4-5.3l-0.2-0.5L575.2,150.3z"/>
		</g>
	</g>
</g>
<g>
	<g>
		<path class="st11" d="M422.7,171.3c12,12.2,11.8,31.8-0.4,43.8c-12.2,12-31.8,11.8-43.8-0.4s-11.8-31.8,0.4-43.8
			C391,158.9,410.7,159.1,422.7,171.3z"/>
		
			<linearGradient id="SVGID_18_" gradientUnits="userSpaceOnUse" x1="400.55" y1="729.0637" x2="400.55" y2="677.0363" gradientTransform="matrix(1 0 0 1 0 -510)">
			<stop  offset="0" style="stop-color:#3D3AAA"/>
			<stop  offset="1" style="stop-color:#5868FF"/>
		</linearGradient>
		<path class="st37" d="M419.1,174.8c10.1,10.2,9.9,26.7-0.3,36.8c-10.2,10.1-26.7,9.9-36.8-0.3c-10.1-10.2-9.9-26.7,0.3-36.8
			C392.6,164.4,409,164.6,419.1,174.8z"/>
		<g>
			<path class="st13" d="M391.6,198.8c-3-7-0.9-12.8,4.7-15.2s11.3,0,14.3,7s1,13-4.6,15.4S394.7,205.8,391.6,198.8z M406.7,192.3
				c-2.1-4.8-5.6-6.8-9-5.3s-4.3,5.3-2.2,10.2s5.6,7,9,5.5C408,201.2,408.8,197.1,406.7,192.3z"/>
			<path class="st13" d="M398,175.6l-3,4.8l-5.6-1.1l-0.9,0.4l0.2,0.5l5.4,2.9l3.4-1.5l1.6-5.9l-0.2-0.5L398,175.6z"/>
		</g>
	</g>
</g>
<g>
	<path class="st38" d="M757.2,416.3c0-15.7,8.7-24.9,21.4-24.9c12.6,0,21.4,9.3,21.4,24.9c0,15.7-8.7,25.3-21.4,25.3
		C765.9,441.6,757.2,431.9,757.2,416.3z M791.1,416.3c0-10.9-4.9-17.5-12.5-17.5s-12.5,6.6-12.5,17.5s4.9,17.8,12.5,17.8
		C786.1,434.1,791.1,427.1,791.1,416.3z"/>
	<path class="st38" d="M788.2,377.6l-9.7,6.6l-9.7-6.6h-2v1.2l7.9,9.9h7.7l7.9-9.9v-1.2C790.2,377.6,788.2,377.6,788.2,377.6z"/>
</g>
<linearGradient id="SVGID_19_" gradientUnits="userSpaceOnUse" x1="341.6" y1="953.05" x2="418.4" y2="953.05" gradientTransform="matrix(1 0 0 1 0 -510)">
	<stop  offset="0" style="stop-color:#D5DBE1"/>
	<stop  offset="1" style="stop-color:#F3F3F1"/>
</linearGradient>
<rect x="341.6" y="441.4" class="st39" width="76.8" height="3.3"/>
</svg>
