<?xml version="1.0" encoding="utf-8"?>
<!-- Generator: Adobe Illustrator 24.0.1, SVG Export Plug-In . SVG Version: 6.00 Build 0)  -->
<svg version="1.1" id="LINE" xmlns="http://www.w3.org/2000/svg" xmlns:xlink="http://www.w3.org/1999/xlink" x="0px" y="0px"
	 width="512px" height="512px" viewBox="0 0 512 512" style="enable-background:new 0 0 512 512;" xml:space="preserve">
<style type="text/css">
	.st0{fill:#5868FF;}
</style>
<path class="st0" d="M94.6,32.9L118.5,9l12,12l-23.9,23.9L94.6,32.9z"/>
<path class="st0" d="M25.9,101.6l23.9-23.9l12,12l-23.9,23.9L25.9,101.6z"/>
<path class="st0" d="M25.9,17.9L37.9,6l23.9,23.9l-12,11.9L25.9,17.9z"/>
<path class="st0" d="M460.8,506c-14,0-25.3-11.4-25.3-25.3s11.4-25.3,25.3-25.3s25.3,11.4,25.3,25.3S474.8,506,460.8,506z
	 M460.8,472.1c-4.6,0-8.4,3.8-8.4,8.4s3.8,8.4,8.4,8.4s8.4-3.8,8.4-8.4S465.5,472.1,460.8,472.1z"/>
<path class="st0" d="M271.1,452.3h-47.7c-7.8,0-14.1-6.3-14.1-14.1v-36.5h76.1v36.5C285.3,446,278.9,452.3,271.1,452.3z"/>
<path class="st0" d="M209.2,388.9h76.1v25.3h-76.1V388.9z"/>
<path class="st0" d="M234.5,59h25.3v58.5h-25.3V59z"/>
<path class="st0" d="M340.3,150.9l41.4-41.4l18,18l-41.4,41.4L340.3,150.9z"/>
<path class="st0" d="M391.7,249.3h58.5v25.3h-58.5V249.3z"/>
<path class="st0" d="M340.3,373.2l18-18l41.4,41.4l-18,18L340.3,373.2z"/>
<path class="st0" d="M94.6,396.5l41.4-41.4l18,18l-41.4,41.4L94.6,396.5z"/>
<path class="st0" d="M44.2,249.3h58.5v25.3H44.2V249.3z"/>
<path class="st0" d="M94.8,127.5l18-18l41.4,41.4l-18,18L94.8,127.5z"/>
<path class="st0" d="M323.3,257.7H298c0-25.7-20.8-46.5-46.5-46.5v-25.3C291.1,185.9,323.3,218.1,323.3,257.7z"/>
<path class="st0" d="M268.4,465H226c-14.3,0-29.6-10.8-29.6-34.6v-29.8c0-18-7.6-34.4-20.5-44c-37-27.8-54.1-73.6-44.6-119.4
	c9.3-44.9,45.5-81.5,90.4-90.7c40-8.3,80.7,3.7,109.2,32.1l-18,18c-22.6-22.7-54-31.9-86-25.1c-35.1,7.4-63.5,35.9-70.7,71
	c-7.4,36.1,5.9,72.2,35.1,94.1c19.1,14.4,30.6,38.4,30.6,64.3v29.8c0,1.5,0.2,9.2,4.3,9.2h42.3c2.4,0,4.3-1.9,4.3-4.3v-37.6
	c0-23.8,11.7-46.7,32.1-62.8c22.6-17.7,35.6-44.4,35.6-73c0-12.4-2.4-24.3-7-35.6l23.2-9.8c5.9,14.4,8.9,29.6,8.9,45.2
	c0,36.5-16.5,70.4-45.2,93c-14.3,11.2-22.4,26.8-22.4,42.8v37.6C298,451.7,284.7,465,268.4,465L268.4,465z"/>
</svg>
