<?xml version="1.0" encoding="utf-8"?>
<!-- Generator: Adobe Illustrator 24.0.1, SVG Export Plug-In . SVG Version: 6.00 Build 0)  -->
<svg version="1.1" id="line" xmlns="http://www.w3.org/2000/svg" xmlns:xlink="http://www.w3.org/1999/xlink" x="0px" y="0px"
	 width="512px" height="512px" viewBox="0 0 512 512" style="enable-background:new 0 0 512 512;" xml:space="preserve">
<style type="text/css">
	.st0{fill:#5868FF;}
</style>
<g>
	<path class="st0" d="M43.4,506c-14,0-25.3-11.4-25.3-25.3c0-13.9,11.4-25.3,25.3-25.3s25.3,11.4,25.3,25.3
		C68.6,494.6,57.4,506,43.4,506z M43.4,472.2c-4.6,0-8.4,3.8-8.4,8.4c0,4.6,3.8,8.4,8.4,8.4s8.4-3.8,8.4-8.4
		C51.8,476,48,472.2,43.4,472.2z"/>
</g>
<g>
	<path class="st0" d="M224.9,310.2h25.3v84.4h-25.3L224.9,310.2L224.9,310.2z"/>
</g>
<g>
	<path class="st0" d="M317.8,141.3c-58.8,0-118.3-17.3-118.3-50.7c0-66.5,236.5-66.5,236.5,0C436.1,123.8,376.6,141.3,317.8,141.3z
		 M317.8,65.3c-60.3,0-92.9,17.9-92.9,25.3c0,7.4,32.5,25.3,92.9,25.3s92.9-17.9,92.9-25.3C410.7,83.2,378.1,65.3,317.8,65.3z"/>
</g>
<g>
	<path class="st0" d="M317.8,208.9c-58.8,0-118.3-17.3-118.3-50.7h25.3c0,7.4,32.5,25.3,92.9,25.3s92.9-17.9,92.9-25.3h25.3
		C436.1,191.4,376.6,208.9,317.8,208.9z"/>
</g>
<g>
	<path class="st0" d="M317.8,276.3c-58.8,0-118.3-17.3-118.3-50.7h25.3c0,7.4,32.5,25.3,92.9,25.3s92.9-17.9,92.9-25.3h25.3
		C436.1,259,376.6,276.3,317.8,276.3z"/>
</g>
<g>
	<path class="st0" d="M317.8,343.9c-14.1,0-27.4-1-39.8-2.6l3.6-25.1c11.2,1.5,23.3,2.4,36.2,2.4c60.3,0,92.9-17.9,92.9-25.3H436
		C436.1,326.5,376.6,343.9,317.8,343.9z"/>
</g>
<g>
	<path class="st0" d="M317.8,411.5c-14.1,0-27.4-1-39.8-2.6l3.6-25.1c11.2,1.5,23.3,2.4,36.2,2.4c60.3,0,92.9-17.9,92.9-25.3H436
		C436.1,394.1,376.6,411.5,317.8,411.5z"/>
</g>
<g>
	<path class="st0" d="M410.7,90.6H436v270.3h-25.3V90.6z"/>
</g>
<g>
	<path class="st0" d="M199.6,90.6h25.3v135.2h-25.3V90.6z"/>
</g>
<g>
	<path class="st0" d="M140.5,360.9c-54.5,0-109.7-17.3-109.7-50.7c0-66.5,219.6-66.5,219.6,0C250.2,343.4,195,360.9,140.5,360.9z
		 M140.5,284.9c-55.7,0-84.4,17.8-84.4,25.3s28.7,25.3,84.4,25.3s84.4-17.8,84.4-25.3S196.2,284.9,140.5,284.9z"/>
</g>
<g>
	<path class="st0" d="M140.5,445.3C86,445.3,30.8,428,30.8,394.6h25.3c0,7.6,28.7,25.3,84.4,25.3s84.4-17.8,84.4-25.3h25.3
		C250.2,427.9,195,445.3,140.5,445.3z"/>
</g>
<g>
	<path class="st0" d="M484.2,22.9l9.7,13.9l-27.6,19.4l-9.7-13.8L484.2,22.9z"/>
</g>
<g>
	<path class="st0" d="M405.3,6l19.4,27.6l-13.9,9.7l-19.2-27.6L405.3,6z"/>
</g>
<g>
	<path class="st0" d="M461.2,85.6l19.5,27.7l-13.9,9.7l-19.5-27.7L461.2,85.6z"/>
</g>
</svg>
