<?xml version="1.0" encoding="utf-8"?>
<!-- Generator: Adobe Illustrator 24.0.1, SVG Export Plug-In . SVG Version: 6.00 Build 0)  -->
<svg version="1.1" id="line" xmlns="http://www.w3.org/2000/svg" xmlns:xlink="http://www.w3.org/1999/xlink" x="0px" y="0px"
	 width="512px" height="512px" viewBox="0 0 512 512" style="enable-background:new 0 0 512 512;" xml:space="preserve">
<style type="text/css">
	.st0{fill:#5868FF;}
</style>
<g>
	<path class="st0" d="M6,210.5h34.7v17.4H6V210.5z"/>
</g>
<g>
	<path class="st0" d="M58.1,253.9h17.4v34.7H58.1V253.9z"/>
</g>
<g>
	<path class="st0" d="M58.1,153.8h17.4v34.7H58.1V153.8z"/>
</g>
<g>
	<path class="st0" d="M132.1,134.3c-24,0-43.5-19.4-43.5-43.5s19.4-43.5,43.5-43.5s43.5,19.4,43.5,43.5S156,134.3,132.1,134.3z
		 M132.1,73.5c-9.7,0-17.4,7.8-17.4,17.4s7.8,17.4,17.4,17.4s17.4-7.8,17.4-17.4S141.6,73.5,132.1,73.5z"/>
</g>
<g>
	<path class="st0" d="M132.1,464.8c-24,0-43.5-19.4-43.5-43.5c0-24.1,19.4-43.5,43.5-43.5s43.5,19.4,43.5,43.5
		C175.6,445.3,156,464.8,132.1,464.8z M132.1,403.9c-9.7,0-17.4,7.8-17.4,17.4s7.8,17.4,17.4,17.4s17.4-7.8,17.4-17.4
		S141.6,403.9,132.1,403.9z"/>
</g>
<g>
	<path class="st0" d="M462.5,134.3c-24,0-43.5-19.4-43.5-43.5s19.4-43.5,43.5-43.5S506,66.7,506,90.7S486.4,134.3,462.5,134.3z
		 M462.5,73.5c-9.7,0-17.4,7.8-17.4,17.4s7.8,17.4,17.4,17.4s17.4-7.8,17.4-17.4S472.1,73.5,462.5,73.5z"/>
</g>
<g>
	<path class="st0" d="M462.5,464.8c-24,0-43.5-19.4-43.5-43.5c0-24.1,19.4-43.5,43.5-43.5s43.5,19.4,43.5,43.5
		C506,445.3,486.4,464.8,462.5,464.8z M462.5,403.9c-9.7,0-17.4,7.8-17.4,17.4s7.8,17.4,17.4,17.4s17.4-7.8,17.4-17.4
		S472.1,403.9,462.5,403.9z"/>
</g>
<g>
	<path class="st0" d="M297.3,412.6c-86.3,0-156.5-70.2-156.5-156.5S210.9,99.5,297.3,99.5s156.5,70.2,156.5,156.5
		c0,31.9-9.5,62.7-27.6,89.1l-21.5-14.8c15.2-22,23.1-47.7,23.1-74.3c0-71.9-58.4-130.5-130.5-130.5s-130.5,58.6-130.5,130.5
		s58.6,130.5,130.5,130.5c31.7,0,62.4-11.6,86.3-32.6l17.2,19.7C372.1,398.8,335.3,412.6,297.3,412.6z"/>
</g>
<g>
	<path class="st0" d="M287.9,408.5c-79.7-84.1-79.7-220.8,0-305l19,18c-70.3,74.1-70.3,194.8,0,269L287.9,408.5z"/>
</g>
<g>
	<path class="st0" d="M306.7,408.5l-18.8-18c70.3-74.1,70.3-194.8,0-269l19-18C386.5,187.7,386.5,324.4,306.7,408.5L306.7,408.5z"/>
</g>
<g>
	<path class="st0" d="M159.2,203.8h276.2v26H159.2V203.8z"/>
</g>
<g>
	<path class="st0" d="M159.2,282.1h276.2v26H159.2V282.1z"/>
</g>
</svg>
