<?xml version="1.0" encoding="utf-8"?>
<!-- Generator: Adobe Illustrator 24.0.1, SVG Export Plug-In . SVG Version: 6.00 Build 0)  -->
<svg version="1.1" id="LINE" xmlns="http://www.w3.org/2000/svg" xmlns:xlink="http://www.w3.org/1999/xlink" x="0px" y="0px"
	 width="512px" height="512px" viewBox="0 0 512 512" style="enable-background:new 0 0 512 512;" xml:space="preserve">
<style type="text/css">
	.st0{fill:#5868FF;}
</style>
<g>
	<path class="st0" d="M77.9,85.3c-14.7,0-26.5-11.9-26.5-26.5s11.9-26.5,26.5-26.5c14.7,0,26.5,11.9,26.5,26.5S92.6,85.3,77.9,85.3z
		 M77.9,50c-4.9,0-8.8,4-8.8,8.8c0,4.9,4,8.8,8.8,8.8s8.8-4,8.8-8.8C86.8,54,82.8,50,77.9,50z"/>
	<path class="st0" d="M399.7,353.5l15.6-8.7l17.3,30.9l-15.6,8.7L399.7,353.5z"/>
	<path class="st0" d="M449.5,442.2l15.6-8.7l17.3,30.9l-15.6,8.7L449.5,442.2z"/>
	<path class="st0" d="M466.4,382.2l30.9-17.3l8.7,15.6l-30.9,17.3L466.4,382.2z"/>
</g>
<path class="st0" d="M218.3,391.2c-58.6,0-106.1-47.7-106.1-106.1s47.7-106.1,106.1-106.1c13.3,0,26.4,2.5,38.7,7.3l-9.7,24.8
	c-9.2-3.6-19-5.5-29.1-5.5c-43.9,0-79.6,35.7-79.6,79.6s35.7,79.6,79.6,79.6s79.6-35.7,79.6-79.6c0-27.3-13.7-52.4-36.7-67.1
	l14.3-22.4c30.6,19.7,49,53.1,49,89.5C324.4,343.5,276.9,391.2,218.3,391.2L218.3,391.2z"/>
<path class="st0" d="M218.3,125.6c-19.5,0-35.3-15.9-35.3-35.3S198.9,55,218.3,55s35.3,15.9,35.3,35.3S237.8,125.6,218.3,125.6z
	 M218.3,81.5c-4.9,0-8.8,4-8.8,8.8c0,4.9,4,8.8,8.8,8.8c4.9,0,8.8-4,8.8-8.8S223.1,81.5,218.3,81.5z"/>
<path class="st0" d="M395.2,178.8c-19.5,0-35.3-15.9-35.3-35.3s15.9-35.3,35.3-35.3c19.5,0,35.3,15.9,35.3,35.3
	S414.8,178.8,395.2,178.8z M395.2,134.5c-4.9,0-8.8,4-8.8,8.8c0,4.9,4,8.8,8.8,8.8s8.8-4,8.8-8.8
	C404.1,138.5,400.1,134.5,395.2,134.5z"/>
<path class="st0" d="M377.6,479.7c-19.5,0-35.3-15.9-35.3-35.3c0-19.5,15.9-35.3,35.3-35.3c19.5,0,35.3,15.9,35.3,35.3
	C412.9,463.8,397.1,479.7,377.6,479.7z M377.6,435.4c-4.9,0-8.8,4-8.8,8.8s4,8.8,8.8,8.8s8.8-4,8.8-8.8S382.4,435.4,377.6,435.4z"/>
<path class="st0" d="M41.3,214.1C21.8,214.1,6,198.2,6,178.8s15.9-35.3,35.3-35.3s35.3,15.9,35.3,35.3S60.9,214.1,41.3,214.1z
	 M41.3,169.9c-4.9,0-8.8,4-8.8,8.8c0,4.9,4,8.8,8.8,8.8s8.8-4,8.8-8.8C50.2,173.9,46.2,169.9,41.3,169.9z"/>
<path class="st0" d="M289.1,219.5l80.8-71.2l17.5,19.9l-80.8,71.2L289.1,219.5z"/>
<path class="st0" d="M205,116.8h26.5v70.8H205V116.8z"/>
<path class="st0" d="M274.8,367.2l17.5-19.9l76.7,67.4l-17.5,19.9L274.8,367.2z"/>
<path class="st0" d="M52,416.6l85.1-76.7l17.8,19.8l-85.1,76.7L52,416.6z"/>
<path class="st0" d="M53.3,201.6L67,178.8l74.7,44.9L128,246.5L53.3,201.6z"/>
<path class="st0" d="M41.3,479.7C21.8,479.7,6,463.8,6,444.3C6,424.8,21.9,409,41.3,409s35.3,15.9,35.3,35.3
	C76.7,463.8,60.9,479.7,41.3,479.7z M41.3,435.4c-4.9,0-8.8,4-8.8,8.8s4,8.8,8.8,8.8s8.8-4,8.8-8.8S46.2,435.4,41.3,435.4z"/>
<g>
	<path class="st0" d="M177.2,292.8c0-30.5,17-48.4,41.6-48.4s41.6,18,41.6,48.4c0,30.5-17,49.2-41.6,49.2S177.2,323.1,177.2,292.8z
		 M243.2,292.8c0-21.2-9.6-34-24.4-34c-14.8,0-24.4,12.8-24.4,34c0,21.2,9.6,34.7,24.4,34.7C233.5,327.4,243.2,313.9,243.2,292.8z"
		/>
	<path class="st0" d="M237.6,217.5l-18.8,12.8l-18.9-12.8H196v2.4l15.3,19.2h15.1l15.3-19.2v-2.4H237.6z"/>
</g>
</svg>
