<?xml version="1.0" encoding="utf-8"?>
<!-- Generator: Adobe Illustrator 24.0.1, SVG Export Plug-In . SVG Version: 6.00 Build 0)  -->
<svg version="1.1" id="line" xmlns="http://www.w3.org/2000/svg" xmlns:xlink="http://www.w3.org/1999/xlink" x="0px" y="0px"
	 width="512px" height="512px" viewBox="0 0 512 512" style="enable-background:new 0 0 512 512;" xml:space="preserve">
<style type="text/css">
	.st0{fill:#5868FF;}
</style>
<g>
	<g>
		<path class="st0" d="M382.7,71.1l14.2-14.2L425,85.1l-14.2,14.2L382.7,71.1z"/>
	</g>
	<g>
		<path class="st0" d="M463.7,152.2l14.2-14.2l28.2,28.2l-14.2,14.2L463.7,152.2z"/>
	</g>
	<g>
		<path class="st0" d="M460.2,85.2l28.2-28.2l14.2,14.2l-28.2,28.2L460.2,85.2z"/>
	</g>
</g>
<g>
	<path class="st0" d="M170.4,437.5H60.8C30.5,437.5,6,413,6,382.8v-309C6,43.5,30.5,19,60.8,19H270c30.3,0,54.8,24.5,54.8,54.8
		v109.6H295V73.8c0-13.7-11.2-24.9-24.9-24.9H60.7c-13.7,0-24.9,11.2-24.9,24.9v308.9c0,13.7,11.2,24.9,24.9,24.9h109.6L170.4,437.5
		L170.4,437.5z"/>
</g>
<g>
	<path class="st0" d="M83.5,236.5c0-60.1,33.5-95.4,82-95.4s82,35.6,82,95.4c0,60.1-33.5,97-82,97S83.5,296.4,83.5,236.5z
		 M213.5,236.5c0-41.8-18.8-66.8-48.1-66.8s-48.1,25.2-48.1,66.8s18.8,68.2,48.1,68.2C194.5,304.7,213.5,278.1,213.5,236.5z"/>
	<path class="st0" d="M202.5,88.2l-37.1,25.4l-37.1-25.4h-7.7v4.5l30.3,37.8h29.6l30.1-37.8v-4.5H202.5z"/>
</g>
<g>
	<path class="st0" d="M424.7,493H284.6c-24.5,0-44.6-20-44.6-44.6v-89.1c0-24.5,20-44.6,44.6-44.6h140.1c24.5,0,44.6,20,44.6,44.6
		v89.1C469.3,473,449.4,493,424.7,493z M284.6,352.9c-3.5,0-6.3,2.8-6.3,6.3v89.1c0,3.5,2.8,6.3,6.3,6.3h140.1
		c3.5,0,6.3-2.8,6.3-6.3v-89.1c0-3.5-2.8-6.3-6.3-6.3H284.6z"/>
</g>
<g>
	<path class="st0" d="M399.2,352.9h-89.1c-10.5,0-19.1-8.5-19.1-19.1v-57.5c0-35.2,28.6-63.8,63.8-63.8s63.8,28.6,63.8,63.8v57.3
		C418.4,344.2,409.9,352.9,399.2,352.9z M329.2,314.6h51v-38.3c0-14-11.4-25.5-25.5-25.5c-14,0-25.5,11.4-25.5,25.5L329.2,314.6
		L329.2,314.6z"/>
</g>
</svg>
