<?xml version="1.0" encoding="utf-8"?>
<!-- Generator: Adobe Illustrator 24.0.1, SVG Export Plug-In . SVG Version: 6.00 Build 0)  -->
<svg version="1.1" id="LINE" xmlns="http://www.w3.org/2000/svg" xmlns:xlink="http://www.w3.org/1999/xlink" x="0px" y="0px"
	 width="512px" height="512px" viewBox="0 0 512 512" style="enable-background:new 0 0 512 512;" xml:space="preserve">
<style type="text/css">
	.st0{fill:#5868FF;}
</style>
<g>
	<path class="st0" d="M397.3,484.5l22.4-27.2l13.6,11.1l-22.4,27.2L397.3,484.5z"/>
	<path class="st0" d="M461.5,406.3l22.4-27.2l13.6,11.1l-22.4,27.2L461.5,406.3z"/>
	<path class="st0" d="M467.6,468.2l11.1-13.6L506,477l-11.1,13.6L467.6,468.2z"/>
	<path class="st0" d="M32.4,169.4C17.8,169.4,6,157.6,6,143.1c0-14.6,11.9-26.4,26.4-26.4s26.4,11.9,26.4,26.4
		C58.7,157.6,47,169.4,32.4,169.4z M32.4,134.3c-4.8,0-8.8,4-8.8,8.8c0,4.8,4,8.8,8.8,8.8s8.8-4,8.8-8.8
		C41.2,138.2,37.2,134.3,32.4,134.3z"/>
</g>
<path class="st0" d="M335.4,333.4c-29.1,0-52.9-23.7-52.9-52.9c0-29.1,23.7-52.9,52.9-52.9c29.1,0,52.9,23.7,52.9,52.9
	C388.1,309.7,364.5,333.4,335.4,333.4z M335.4,254.1c-14.6,0-26.4,11.9-26.4,26.4c0,14.6,11.9,26.4,26.4,26.4
	c14.6,0,26.4-11.9,26.4-26.4C361.7,266,349.9,254.1,335.4,254.1z"/>
<path class="st0" d="M432.2,425.9h-26.4v-26.4c0-12.1-9.9-22-22-22H287c-12.1,0-22,9.9-22,22v26.4h-26.4v-26.4
	c0-26.7,21.7-48.4,48.4-48.4h96.8c26.7,0,48.4,21.7,48.4,48.4L432.2,425.9L432.2,425.9z"/>
<path class="st0" d="M115.2,29.7h26.4v396.2h-26.4V29.7z"/>
<path class="st0" d="M348.5,192.6h-220c-7.3,0-13.2-5.9-13.2-13.2V29.7c0-7.3,5.9-13.2,13.2-13.2h97.4v26.4h-84.3v123.3H323
	l-38.1-54c-3.2-4.6-3.2-10.6,0-15.2l38.1-54h-49.3V16.4h74.8c5,0,9.4,2.7,11.8,7.2c2.2,4.3,1.9,9.7-1,13.7l-47.4,67.2l47.4,67.2
	c2.8,4.1,3.2,9.3,1,13.7C358,189.8,353.4,192.6,348.5,192.6L348.5,192.6z"/>
</svg>
