<?xml version="1.0" encoding="utf-8"?>
<!-- Generator: Adobe Illustrator 24.0.1, SVG Export Plug-In . SVG Version: 6.00 Build 0)  -->
<svg version="1.1" id="line" xmlns="http://www.w3.org/2000/svg" xmlns:xlink="http://www.w3.org/1999/xlink" x="0px" y="0px"
	 width="512px" height="512px" viewBox="0 0 512 512" style="enable-background:new 0 0 512 512;" xml:space="preserve">
<style type="text/css">
	.st0{fill:#5868FF;}
</style>
<g>
	<path class="st0" d="M112.1,35.4l29.2-29.2L156,20.8L126.9,50L112.1,35.4z"/>
</g>
<g>
	<path class="st0" d="M28.1,119.4l29.2-29.2L72,104.8L42.8,134L28.1,119.4z"/>
</g>
<g>
	<path class="st0" d="M31.8,20.7L46.5,6l29.2,29.4L61,49.9L31.8,20.7z"/>
</g>
<g>
	<path class="st0" d="M346.3,130.5L327,106.1l70.2-56.2c2.4-1.9,2.1-4.2,1.7-5.8c-0.5-1.6-1.7-3.4-4.8-3.4H201.9
		c-2.9,0-4.2,1.9-4.8,3.4c-0.5,1.6-0.7,3.8,1.6,5.7l70.4,56.2l-19.3,24.3l-70.2-56.2c-12.2-9.8-16.7-25.4-11.6-40.1
		s18.5-24.2,34-24.2h192.3c15.6,0,29,9.4,34,24.2s0.5,30.6-11.6,40.2L346.3,130.5z"/>
</g>
<g>
	<path class="st0" d="M174,102.8h248v31H174V102.8z"/>
</g>
<g>
	<path class="st0" d="M452.8,363.3c-1.3-84.8-59-195.2-121.3-231.5l15.7-26.7c79,46.2,135.4,172.9,136.6,257.9L452.8,363.3z"/>
</g>
<g>
	<path class="st0" d="M370.4,506H230.9C148.7,506,112,435.9,112,366.4c0-96.6,63.9-218.5,136.9-261.4l15.7,26.7
		C201,169.1,143.2,280.9,143.2,366.4c0,50,23,108.6,87.8,108.6h139.6c53.8,0,72.8-39.8,79.2-73.3l30.4,6
		C467.9,470,428,506,370.4,506z"/>
</g>
<g>
	<path class="st0" d="M225.3,315.5c0-53.4,29.8-84.9,72.8-84.9s72.8,31.7,72.8,84.9c0,53.4-29.8,86.2-72.8,86.2
		S225.3,369,225.3,315.5z M340.9,315.5c0-37-16.7-59.4-42.7-59.4c-26.1,0-42.7,22.4-42.7,59.4s16.7,60.7,42.7,60.7
		C324,376.4,340.9,352.7,340.9,315.5z"/>
	<path class="st0" d="M331.1,183.8l-32.9,22.5l-32.9-22.5h-6.9v4.1l26.9,33.6h26.3l26.7-33.6v-4.1H331.1z"/>
</g>
</svg>
