<?xml version="1.0" encoding="utf-8"?>
<!-- Generator: Adobe Illustrator 24.0.1, SVG Export Plug-In . SVG Version: 6.00 Build 0)  -->
<svg version="1.1" id="line" xmlns="http://www.w3.org/2000/svg" xmlns:xlink="http://www.w3.org/1999/xlink" x="0px" y="0px"
	 width="512px" height="512px" viewBox="0 0 512 512" style="enable-background:new 0 0 512 512;" xml:space="preserve">
<style type="text/css">
	.st0{fill:#5868FF;}
</style>
<g>
	<path class="st0" d="M32.8,448.5c-14.9,0-26.8-12-26.8-26.8c0-14.9,12-26.8,26.8-26.8s26.8,12,26.8,26.8S47.4,448.5,32.8,448.5z
		 M32.8,412.7c-4.9,0-8.9,4-8.9,8.9s4,8.9,8.9,8.9s8.9-4,8.9-8.9C41.7,416.9,37.7,412.7,32.8,412.7z"/>
</g>
<g>
	<path class="st0" d="M360,173.8l-16.7-21l60.8-48.7c2.1-1.6,1.8-3.7,1.5-4.9c-0.5-1.4-1.5-3-4.1-3H235c-2.5,0-3.7,1.6-4.1,3
		c-0.5,1.4-0.6,3.3,1.4,4.9l60.9,48.7l-16.7,21l-60.8-48.7c-10.5-8.5-14.4-22-10.1-34.7s16-21,29.4-21h166.5
		c13.5,0,25.1,8.1,29.4,21c4.4,12.7,0.5,26.4-10.1,34.8L360,173.8z"/>
</g>
<g>
	<path class="st0" d="M210.8,149.9h214.7v26.8H210.8V149.9z"/>
</g>
<g>
	<path class="st0" d="M376.4,498.8H255.7c-11.3,0-22.1-1.6-31.8-4.8l8.4-25.5c7.1,2.3,15,3.4,23.5,3.4h120.8c56.1,0,76-50.6,76-94
		c0-74-50.1-170.8-105.1-203.1l13.6-23.1c63,37.1,118.5,142.8,118.5,226.2C479.3,438,447.5,498.8,376.4,498.8z"/>
</g>
<g>
	<path class="st0" d="M325.1,400.4h-51.5v-26.8h51.5c6.2,0,11.1-5,11.1-11.1c0-6.3-5-11.3-11.1-11.3h-13.6c-20.8,0-38-16.9-38-38
		c0-21.2,16.9-38.1,38-38.1H363v26.8h-51.5c-6.2,0-11.1,5-11.1,11.1c0,6.3,5,11.3,11.1,11.3h13.6c20.8,0,38,16.9,38,38
		C363,383.3,345.9,400.4,325.1,400.4L325.1,400.4z"/>
</g>
<g>
	<path class="st0" d="M304.8,248.4h26.8v53.7h-26.8V248.4z"/>
</g>
<g>
	<path class="st0" d="M304.8,373.6h26.8v53.7h-26.8V373.6z"/>
</g>
<g>
	<path class="st0" d="M76.9,351.7c0-61.7,34.5-98,84-98s84,36.6,84,98c0,61.7-34.5,99.5-84,99.5S76.9,413.2,76.9,351.7z
		 M210.3,351.7c0-42.8-19.3-68.6-49.3-68.6s-49.3,25.8-49.3,68.6s19.3,70.1,49.3,70.1C190.9,421.7,210.3,394.4,210.3,351.7z"/>
	<path class="st0" d="M199,199.4l-38.1,25.9l-38-25.9H115v4.7l30.9,38.7h30.3l30.8-38.7v-4.7H199z"/>
</g>
<g>
	<path class="st0" d="M498.3,44.8L506,61l-32.3,15.3L466,60.1L498.3,44.8z"/>
</g>
<g>
	<path class="st0" d="M419,13.2l15.3,32.3l-16.3,7.7l-15.2-32.2L419,13.2z"/>
</g>
<g>
	<path class="st0" d="M463.1,106.1l15.3,32.3l-16.3,7.7l-15.3-32.3L463.1,106.1z"/>
</g>
</svg>
