<?xml version="1.0" encoding="utf-8"?>
<!-- Generator: Adobe Illustrator 24.0.1, SVG Export Plug-In . SVG Version: 6.00 Build 0)  -->
<svg version="1.1" id="LINE" xmlns="http://www.w3.org/2000/svg" xmlns:xlink="http://www.w3.org/1999/xlink" x="0px" y="0px"
	 width="512px" height="512px" viewBox="0 0 512 512" style="enable-background:new 0 0 512 512;" xml:space="preserve">
<style type="text/css">
	.st0{fill:#5868FF;}
</style>
<g>
	<path class="st0" d="M48.4,506c-14.3,0-25.8-11.6-25.8-25.8c0-14.3,11.6-25.8,25.8-25.8s25.8,11.6,25.8,25.8
		C74.2,494.5,62.6,506,48.4,506z M48.4,471.6c-4.7,0-8.6,3.9-8.6,8.6c0,4.7,3.9,8.6,8.6,8.6s8.6-3.9,8.6-8.6
		C57,475.5,53.1,471.6,48.4,471.6z"/>
	<path class="st0" d="M452.8,33.5L477.2,9l12.2,12.2L465,45.6L452.8,33.5z"/>
	<path class="st0" d="M382.8,103.6l24.4-24.4l12.2,12.2l-24.5,24.2L382.8,103.6z"/>
	<path class="st0" d="M382.8,18.2L395,6l24.4,24.4l-12.2,12.2L382.8,18.2z"/>
	<path class="st0" d="M452.8,88.3L465,76l24.4,24.4l-12.2,12.2L452.8,88.3z"/>
</g>
<path class="st0" d="M229.3,118.1c-19,0-34.4-15.5-34.4-34.4s15.5-34.4,34.4-34.4s34.4,15.5,34.4,34.4S248.4,118.1,229.3,118.1z
	 M229.3,75.1c-4.7,0-8.6,3.9-8.6,8.6s3.9,8.6,8.6,8.6c4.7,0,8.6-3.9,8.6-8.6S234.1,75.1,229.3,75.1z"/>
<path class="st0" d="M216.4,109.5h25.8v51.7h-25.8V109.5z"/>
<circle class="st0" cx="351.2" cy="134.1" r="21.6"/>
<path class="st0" d="M351.2,168.6c-8.8,0-17.7-3.4-24.4-10.1c-13.5-13.5-13.5-35.3,0-48.7s35.3-13.5,48.7,0
	c13.5,13.5,13.5,35.3,0,48.7C368.8,165.2,360,168.6,351.2,168.6L351.2,168.6z M351.2,125.5c-2.2,0-4.4,0.8-6.1,2.5
	c-3.4,3.4-3.4,8.8,0,12.2c3.4,3.4,8.8,3.4,12.2,0c3.4-3.4,3.4-8.8,0-12.2C355.6,126.3,353.4,125.5,351.2,125.5z"/>
<path class="st0" d="M287.1,179.9l36.6-36.6l18.3,18.3l-36.6,36.6L287.1,179.9z"/>
<circle class="st0" cx="401.7" cy="256" r="21.6"/>
<path class="st0" d="M401.7,290.4c-19,0-34.4-15.5-34.4-34.4s15.5-34.4,34.4-34.4c19,0,34.4,15.5,34.4,34.4S420.7,290.4,401.7,290.4
	z M401.7,247.4c-4.7,0-8.6,3.9-8.6,8.6c0,4.7,3.9,8.6,8.6,8.6c4.7,0,8.6-3.9,8.6-8.6C410.3,251.3,406.4,247.4,401.7,247.4z"/>
<path class="st0" d="M324.1,243h51.7v25.8h-51.7V243z"/>
<path class="st0" d="M351.2,412.3c-8.8,0-17.7-3.4-24.4-10.1c-13.5-13.5-13.5-35.3,0-48.7s35.3-13.5,48.7,0s13.5,35.3,0,48.7
	C368.8,408.9,360,412.3,351.2,412.3L351.2,412.3z M345.1,384c3.4,3.4,8.8,3.4,12.2,0c3.4-3.4,3.4-8.8,0-12.2
	c-3.4-3.4-8.8-3.4-12.2,0C341.8,375.1,341.8,380.6,345.1,384z"/>
<path class="st0" d="M287.1,332.3l18.3-18.3l36.6,36.5l-18.3,18.3L287.1,332.3z"/>
<circle class="st0" cx="229.3" cy="428.3" r="21.6"/>
<path class="st0" d="M229.3,462.9c-19,0-34.4-15.5-34.4-34.4c0-19,15.5-34.4,34.4-34.4s34.4,15.5,34.4,34.4
	C263.8,447.3,248.4,462.9,229.3,462.9z M229.3,419.7c-4.7,0-8.6,3.9-8.6,8.6c0,4.7,3.9,8.6,8.6,8.6c4.7,0,8.6-3.9,8.6-8.6
	C237.9,423.6,234.1,419.7,229.3,419.7z"/>
<path class="st0" d="M216.4,350.8h25.8v51.7h-25.8V350.8z"/>
<path class="st0" d="M107.4,412.3c-8.8,0-17.7-3.4-24.4-10.1c-13.5-13.5-13.5-35.3,0-48.7c13.5-13.5,35.3-13.5,48.7,0
	c13.5,13.5,13.5,35.3,0,48.7C125.1,408.9,116.3,412.3,107.4,412.3L107.4,412.3z M101.4,371.7c-3.4,3.4-3.4,8.8,0,12.2
	c3.4,3.4,8.8,3.4,12.2,0c3.4-3.4,3.4-8.8,0-12.2C110.2,368.5,104.8,368.5,101.4,371.7z"/>
<path class="st0" d="M116.5,350.4l36.6-36.6l18.3,18.3l-36.6,36.6L116.5,350.4z"/>
<circle class="st0" cx="57" cy="256" r="21.6"/>
<path class="st0" d="M57,290.4c-19,0-34.4-15.5-34.4-34.4s15.5-34.4,34.4-34.4s34.4,15.5,34.4,34.4S76,290.4,57,290.4z M57,247.4
	c-4.7,0-8.6,3.9-8.6,8.6c0,4.7,3.9,8.6,8.6,8.6s8.6-3.9,8.6-8.6C65.6,251.3,61.7,247.4,57,247.4z"/>
<path class="st0" d="M82.8,243h51.7v25.8H82.8V243z"/>
<path class="st0" d="M107.4,168.6c-8.8,0-17.7-3.4-24.4-10.1c-13.5-13.5-13.5-35.3,0-48.7c13.5-13.5,35.3-13.5,48.7,0
	c13.5,13.5,13.5,35.3,0,48.7C125.1,165.2,116.3,168.6,107.4,168.6L107.4,168.6z M107.4,125.5c-2.2,0-4.4,0.8-6.1,2.5
	c-3.4,3.4-3.4,8.8,0,12.2c3.4,3.4,8.8,3.4,12.2,0c3.4-3.4,3.4-8.8,0-12.2C111.9,126.3,109.7,125.5,107.4,125.5z"/>
<path class="st0" d="M116.5,161.6l18.3-18.3l36.6,36.6l-18.3,18.3L116.5,161.6z"/>
<path class="st0" d="M229.3,359.4C172.3,359.4,126,313,126,256s46.4-103.4,103.4-103.4S332.7,199,332.7,256S286.4,359.4,229.3,359.4
	z M229.3,178.4c-42.8,0-77.6,34.8-77.6,77.6s34.8,77.6,77.6,77.6s77.6-34.8,77.6-77.6S272.1,178.4,229.3,178.4z"/>
<g>
	<path class="st0" d="M189,264c0-29.7,16.6-47.1,40.5-47.1s40.5,17.6,40.5,47.1c0,29.7-16.6,47.9-40.5,47.9S189,293.6,189,264z
		 M253.2,264c0-20.6-9.3-33.1-23.8-33.1s-23.8,12.5-23.8,33.1c0,20.6,9.3,33.8,23.8,33.8C243.8,297.7,253.2,284.6,253.2,264z"/>
	<path class="st0" d="M247.8,190.7l-18.3,12.5l-18.3-12.5h-3.8v2.3l14.9,18.7H237l14.9-18.7v-2.3H247.8z"/>
</g>
</svg>
