<?xml version="1.0" encoding="utf-8"?>
<!-- Generator: Adobe Illustrator 24.0.1, SVG Export Plug-In . SVG Version: 6.00 Build 0)  -->
<svg version="1.1" id="LINE" xmlns="http://www.w3.org/2000/svg" xmlns:xlink="http://www.w3.org/1999/xlink" x="0px" y="0px"
	 width="512px" height="512px" viewBox="0 0 512 512" style="enable-background:new 0 0 512 512;" xml:space="preserve">
<style type="text/css">
	.st0{fill:#5868FF;}
</style>
<g>
	<path class="st0" d="M174.3,66.4l22.5-22.5l11.3,11.3l-22.5,22.5L174.3,66.4z"/>
	<path class="st0" d="M109.4,131.3l22.5-22.5l11.3,11.3l-22.5,22.5L109.4,131.3z"/>
	<path class="st0" d="M109.4,52.4l11.3-11.3l22.5,22.5L132,75L109.4,52.4z"/>
	<path class="st0" d="M390,441.8c-13.2,0-23.9-10.8-23.9-23.9S376.8,394,390,394s23.9,10.8,23.9,23.9S403.1,441.8,390,441.8z
		 M390,409.9c-4.4,0-8,3.6-8,8c0,4.4,3.6,8,8,8s8-3.6,8-8C397.9,413.5,394.3,409.9,390,409.9z"/>
</g>
<g>
	<path class="st0" d="M98.1,320.2c0-93.6,52.2-148.5,127.4-148.5S353,227,353,320.2c0,93.6-52.2,150.8-127.4,150.8
		S98.1,413.5,98.1,320.2z M300.3,320.2c0-64.8-29.3-104-74.7-104s-74.7,39.2-74.7,104s29.3,106.2,74.7,106.2
		C270.8,426.4,300.3,385,300.3,320.2z"/>
	<path class="st0" d="M283.2,89.5l-57.8,39.4l-57.7-39.4h-12v7.1l47,58.8h46l46.8-58.8v-7.1H283.2z"/>
</g>
</svg>
