<?xml version="1.0" encoding="utf-8"?>
<!-- Generator: Adobe Illustrator 24.0.1, SVG Export Plug-In . SVG Version: 6.00 Build 0)  -->
<svg version="1.1" id="LINE" xmlns="http://www.w3.org/2000/svg" xmlns:xlink="http://www.w3.org/1999/xlink" x="0px" y="0px"
	 width="512px" height="512px" viewBox="0 0 512 512" style="enable-background:new 0 0 512 512;" xml:space="preserve">
<style type="text/css">
	.st0{fill:#5868FF;}
</style>
<g>
	<path class="st0" d="M91,34.1l24.9-24.9l12.5,12.5l-24.9,24.8L91,34.1z"/>
	<path class="st0" d="M19.3,105.8l24.9-24.9l12.5,12.4l-24.9,24.9L19.3,105.8z"/>
	<path class="st0" d="M19.3,18.5L31.8,6l24.9,24.9L44.2,43.4L19.3,18.5z"/>
	<path class="st0" d="M466.3,506c-14.6,0-26.4-11.9-26.4-26.4s11.9-26.4,26.4-26.4s26.4,11.9,26.4,26.4S480.8,506,466.3,506z
		 M466.3,470.7c-4.8,0-8.8,4-8.8,8.8c0,4.8,4,8.8,8.8,8.8s8.8-4,8.8-8.8C475.1,474.6,471.1,470.7,466.3,470.7z"/>
</g>
<path class="st0" d="M250.2,97.4c-19.5,0-35.2-15.9-35.2-35.2c0-19.5,15.9-35.2,35.2-35.2s35.2,15.9,35.2,35.2
	C285.5,81.6,269.6,97.4,250.2,97.4z M250.2,53.4c-4.8,0-8.8,4-8.8,8.8c0,4.8,4,8.8,8.8,8.8c4.8,0,8.8-4,8.8-8.8
	C259.1,57.3,255.1,53.4,250.2,53.4z"/>
<path class="st0" d="M237,88.6h26.4v25.2H237V88.6z"/>
<path class="st0" d="M374.9,149.1c-9.1,0-18.1-3.5-24.9-10.3c-13.8-13.8-13.8-36.1,0-49.8c13.8-13.8,36.1-13.8,49.8,0
	s13.8,36.1,0,49.8C393,145.6,383.9,149.1,374.9,149.1L374.9,149.1z M374.9,104.9c-2.2,0-4.5,0.9-6.2,2.6c-3.5,3.5-3.5,9.1,0,12.5
	c3.5,3.5,9.1,3.5,12.5,0c3.5-3.5,3.5-9.1,0-12.5C379.5,105.8,377.1,104.9,374.9,104.9z"/>
<path class="st0" d="M303.2,166.7l43.5-43.5l18.7,18.7L322,185.4L303.2,166.7z"/>
<path class="st0" d="M426.6,273.8c-19.5,0-35.2-15.9-35.2-35.2c0-19.5,15.9-35.2,35.2-35.2c19.5,0,35.2,15.9,35.2,35.2
	C461.8,257.9,446.1,273.8,426.6,273.8z M426.6,229.7c-4.8,0-8.8,4-8.8,8.8c0,4.8,4,8.8,8.8,8.8s8.8-4,8.8-8.8
	C435.4,233.6,431.4,229.7,426.6,229.7z"/>
<path class="st0" d="M364.6,225.2h35.5v26.4h-35.5V225.2z"/>
<path class="st0" d="M374.9,398.4c-9.1,0-18.1-3.5-24.9-10.3c-13.8-13.8-13.8-36.1,0-49.8s36.1-13.8,49.8,0s13.8,36.1,0,49.8
	C393,394.9,383.9,398.4,374.9,398.4L374.9,398.4z M374.9,354.4c-2.2,0-4.5,0.9-6.2,2.6c-3.5,3.5-3.5,9.1,0,12.5
	c3.5,3.5,9.1,3.5,12.5,0c3.5-3.5,3.5-9.1,0-12.5C379.5,355.2,377.1,354.4,374.9,354.4z"/>
<path class="st0" d="M331.6,338.6l18.7-18.7l15.1,15.1l-18.7,18.7L331.6,338.6z"/>
<path class="st0" d="M250.2,450.1c-19.5,0-35.2-15.9-35.2-35.2c0-19.5,15.9-35.2,35.2-35.2s35.2,15.9,35.2,35.2
	C285.5,434.2,269.6,450.1,250.2,450.1z M250.2,406c-4.8,0-8.8,4-8.8,8.8c0,4.8,4,8.8,8.8,8.8c4.8,0,8.8-4,8.8-8.8
	C259,409.9,255.1,406,250.2,406z"/>
<path class="st0" d="M237,335.4h26.4v52.9H237V335.4z"/>
<path class="st0" d="M125.6,398.4c-9.1,0-18.1-3.5-24.9-10.3c-13.8-13.8-13.8-36.1,0-49.8s36.1-13.8,49.8,0
	c13.8,13.8,13.8,36.1,0,49.8C143.6,394.9,134.5,398.4,125.6,398.4L125.6,398.4z M125.6,354.4c-2.2,0-4.5,0.9-6.2,2.6
	c-3.5,3.5-3.5,9.1,0,12.5c3.5,3.5,9.1,3.5,12.5,0c3.5-3.5,3.5-9.1,0-12.5C130,355.2,127.8,354.4,125.6,354.4z"/>
<path class="st0" d="M134.9,335l16-16l18.7,18.7l-16,16L134.9,335z"/>
<path class="st0" d="M73.9,273.8c-19.5,0-35.2-15.9-35.2-35.2c0-19.5,15.9-35.2,35.2-35.2s35.2,15.9,35.2,35.2
	C109.2,257.9,93.3,273.8,73.9,273.8z M73.9,229.7c-4.8,0-8.8,4-8.8,8.8c0,4.8,4,8.8,8.8,8.8c4.8,0,8.8-4,8.8-8.8
	C82.7,233.6,78.7,229.7,73.9,229.7z"/>
<path class="st0" d="M100.4,225.2h35v26.4h-35V225.2z"/>
<path class="st0" d="M125.6,149.1c-9.1,0-18.1-3.5-24.9-10.3c-13.8-13.8-13.8-36.1,0-49.8c13.8-13.8,36.1-13.8,49.8,0
	c13.8,13.8,13.8,36.1,0,49.8C143.6,145.6,134.5,149.1,125.6,149.1L125.6,149.1z M125.6,104.9c-2.2,0-4.5,0.9-6.2,2.6
	c-3.5,3.5-3.5,9.1,0,12.5c3.5,3.5,9.1,3.5,12.5,0c3.5-3.5,3.5-9.1,0-12.5C130,105.8,127.8,104.9,125.6,104.9z"/>
<path class="st0" d="M134.9,141.9l18.7-18.7l43.9,43.9l-18.7,18.7L134.9,141.9z"/>
<g>
	<path class="st0" d="M188.2,250.5c0-45.6,25.4-72.4,62.1-72.4s62.1,27,62.1,72.4c0,45.6-25.4,73.5-62.1,73.5S188.2,296,188.2,250.5
		z M286.7,250.5c0-31.6-14.3-50.7-36.4-50.7s-36.4,19.1-36.4,50.7s14.3,51.8,36.4,51.8C272.4,302.3,286.7,282.1,286.7,250.5z"/>
	<path class="st0" d="M278.4,138l-28.1,19.2L222.2,138h-5.8v3.5l22.9,28.6h22.4l22.8-28.6V138H278.4z"/>
</g>
</svg>
