<?xml version="1.0" encoding="utf-8"?>
<!-- Generator: Adobe Illustrator 24.0.1, SVG Export Plug-In . SVG Version: 6.00 Build 0)  -->
<svg version="1.1" id="line" xmlns="http://www.w3.org/2000/svg" xmlns:xlink="http://www.w3.org/1999/xlink" x="0px" y="0px"
	 width="512px" height="512px" viewBox="0 0 512 512" style="enable-background:new 0 0 512 512;" xml:space="preserve">
<style type="text/css">
	.st0{fill:#5868FF;}
</style>
<g>
	<path class="st0" d="M75,6h20.4v40.7H75C75,46.7,75,6,75,6z"/>
</g>
<g>
	<path class="st0" d="M8.8,67.1h40.7v20.4H8.8V67.1z"/>
</g>
<g>
	<path class="st0" d="M398.7,388.2H143.8c-8.5,0-15.3-6.9-15.3-15.3v-18.8c0-15.1,5.9-29.1,16.5-39.7l44.7-44.7V146.9
		c0-22.2,7.7-43.9,21.6-61.1l48-59.1c5.9-7.2,17.9-7.2,23.8,0l48,59.1c14,17.2,21.6,39,21.6,61.1v37.3h-30.5v-37.3
		c0-15.2-5.3-30-14.9-41.7l-36.1-44.4l-36.1,44.4c-9.6,11.8-14.9,26.7-14.9,41.7v129c0,4-1.6,7.9-4.4,10.8l-49.2,49.5
		c-4.9,4.9-7.5,11.2-7.5,18.1v3.4h224.2v-3.4c0-6.9-2.6-13.2-7.5-18.1L326.7,287c-2.9-2.9-4.4-6.7-4.4-10.8v-51h30.5v44.6l44.7,44.7
		c10.6,10.6,16.5,24.7,16.5,39.7V373C414,381.4,407.2,388.2,398.7,388.2L398.7,388.2z"/>
</g>
<g>
	<path class="st0" d="M347.7,357.6h30.5v51h-30.5V357.6z"/>
</g>
<g>
	<path class="st0" d="M164.2,357.6h30.5v51h-30.5V357.6z"/>
</g>
<g>
	<path class="st0" d="M448.6,501.7c-5.3-11.5-13.3-21.2-23.2-28.5c-12.2-8.9-26.7-13.6-42-13.6c-22.8,0-44.6,11.2-58.2,29.8
		l-24.7-18.1c19.4-26.5,50.3-42.4,82.9-42.4c21.8,0,42.6,6.7,59.9,19.5c14.2,10.3,25.5,24.2,33,40.4L448.6,501.7z"/>
</g>
<g>
	<path class="st0" d="M322,506c-5-5-10.5-9.2-16.3-12.2c-22.1-11.9-48.2-11.6-69,0c-5.9,3.2-11.5,7.3-16.2,12.2l-21.6-21.6
		c6.9-6.9,14.8-12.8,23.1-17.3c29.4-16.5,67.5-16.8,98.2-0.3c8.3,4.4,16.3,10.3,23.5,17.5L322,506z"/>
</g>
<g>
	<path class="st0" d="M93.8,501.4l-28-12.3c6.7-15.3,17.6-29,31.5-39.4c0.6-0.6,1.1-1,1.7-1.4c17.3-12.6,37.8-19.2,59.6-19.2
		c32.8,0,63.9,15.9,83,42.7l-24.9,17.6c-13.3-18.6-35-29.8-58.1-29.8c-14.5,0-28.4,4.3-40,12.3c-0.6,0.4-1,1-1.7,1.4
		C106.7,480.6,98.7,490.4,93.8,501.4L93.8,501.4z"/>
</g>
<g>
	<path class="st0" d="M75,437.9c-9.9-9.3-22.2-15.5-35.7-17.8l5.2-30.1c19.5,3.3,37.3,12.2,51.6,25.8L75,437.9z"/>
</g>
<g>
	<path class="st0" d="M467.5,437.9l-21.1-22.2c14.3-13.6,32.1-22.5,51.6-25.8l5.2,30.1C489.7,422.3,477.4,428.4,467.5,437.9
		L467.5,437.9z"/>
</g>
<g>
	<path class="st0" d="M285.9,159.8c-8-8-21.2-8-29.4,0l-21.6-21.6c20.1-20.1,52.6-20.1,72.5,0L285.9,159.8z"/>
</g>
</svg>
