<?xml version="1.0" encoding="utf-8"?>
<!-- Generator: Adobe Illustrator 24.0.1, SVG Export Plug-In . SVG Version: 6.00 Build 0)  -->
<svg version="1.1" id="line" xmlns="http://www.w3.org/2000/svg" xmlns:xlink="http://www.w3.org/1999/xlink" x="0px" y="0px"
	 width="512px" height="512px" viewBox="0 0 512 512" style="enable-background:new 0 0 512 512;" xml:space="preserve">
<style type="text/css">
	.st0{fill:#5868FF;}
</style>
<g>
	<path class="st0" d="M365.3,51.5l11.1-11.1l22.1,22.1l-11.1,11.1L365.3,51.5z"/>
</g>
<g>
	<path class="st0" d="M428.8,115l11.1-11l22.1,22.1l-11.1,11.1L428.8,115z"/>
</g>
<g>
	<path class="st0" d="M362.5,126.1l22.1-22.1l11.1,11l-22.1,22.1L362.5,126.1z"/>
</g>
<g>
	<path class="st0" d="M426,62.6l22.1-22.1l11.1,11.1l-22.1,22.1L426,62.6z"/>
</g>
<g>
	<path class="st0" d="M81.9,418.2c-1.2,0-1.9,0-2,0l0.7-23.4c10.4,0.2,257.4,4.3,316-219l22.6,5.9C358.8,412.2,107,418.2,81.9,418.2
		L81.9,418.2z"/>
</g>
<g>
	<path class="st0" d="M427.6,235.2l-23.4-40.5l-40.5,23.4l-11.8-20.3l50.8-29.3c5.6-3.3,12.7-1.3,16,4.3l29.3,50.8L427.6,235.2z"/>
</g>
<g>
	<path class="st0" d="M396.7,272.4h23.4v195.3h-23.4V272.4z"/>
</g>
<g>
	<path class="st0" d="M303,374h23.4v93.7H303V374z"/>
</g>
<g>
	<path class="st0" d="M209.1,420.8h23.4v46.9h-23.4V420.8z"/>
</g>
<g>
	<path class="st0" d="M115.4,436.5h23.4v31.2h-23.4V436.5z"/>
</g>
<g>
	<path class="st0" d="M182.3,290.8c-3,0-6-1.2-8.2-3.4L120,233.4c-4.4-4.4-4.6-11.5-0.4-16.2L164,168
		c32.6-37.7,82.6-62.7,127.1-63.5c3.4,0.1,6.3,1.2,8.6,3.5c2.2,2.3,3.5,5.4,3.4,8.6c-0.5,19.8-5.6,40.8-14.6,60.8l-21.3-9.7
		c5.8-12.7,9.7-25.9,11.4-38.7c-34.4,4.8-72,25.7-96.9,54.6l-37.1,41.1l38.3,38.3l41-36.9c10.5-9.1,20.4-20.4,28.9-32.8l19.3,13.2
		c-9.8,14.4-20.8,26.9-32.8,37.2l-49.1,44.2C187.9,289.8,185.1,290.8,182.3,290.8L182.3,290.8z"/>
</g>
<g>
	<path class="st0" d="M218.5,327.1c-3.1,0-6.2-1.2-8.3-3.4L174,287.3l16.6-16.6l25.8,25.9c10.4-20.4,11.9-45.9,12.3-70.6l23.4,0.4
		c-0.5,32.1-3,68.6-24.5,96c-2.1,2.6-5.2,4.3-8.6,4.5C218.9,327.1,218.7,327.1,218.5,327.1L218.5,327.1z"/>
</g>
<g>
	<path class="st0" d="M119.5,232.8l-36.4-36.1c-2.4-2.4-3.6-5.6-3.4-9c0.2-3.3,1.9-6.5,4.5-8.6c27.6-21.5,64.1-24,96-24.5l0.4,23.4
		c-24.7,0.4-50.2,1.9-70.6,12.3l25.9,25.8L119.5,232.8z"/>
</g>
<g>
	<path class="st0" d="M80.3,342.7c-3.1,0-6-1.2-8.2-3.4c-3.1-3.1-4.2-7.5-3-11.6c4.2-14.1,15.1-47.8,24.6-57.4
		c13.1-13.1,34.3-13.1,47.4,0c13.1,13.1,13.1,34.3,0,47.4c-9.6,9.6-43.3,20.3-57.4,24.6C82.5,342.6,81.4,342.7,80.3,342.7z
		 M117.3,283.9c-2.5,0-5.2,1-7.1,3c-2.5,2.6-7,13.3-11.5,25.7c12.4-4.5,23-9,25.7-11.5c4-4,3.8-10.2,0-14.2
		C122.5,284.9,119.8,283.9,117.3,283.9L117.3,283.9z"/>
</g>
<g>
	<path class="st0" d="M6,448.2h500v23.4H6V448.2z"/>
</g>
</svg>
