<?xml version="1.0" encoding="utf-8"?>
<!-- Generator: Adobe Illustrator 24.0.1, SVG Export Plug-In . SVG Version: 6.00 Build 0)  -->
<svg version="1.1" id="LINE" xmlns="http://www.w3.org/2000/svg" xmlns:xlink="http://www.w3.org/1999/xlink" x="0px" y="0px"
	 width="512px" height="512px" viewBox="0 0 512 512" style="enable-background:new 0 0 512 512;" xml:space="preserve">
<style type="text/css">
	.st0{fill:#5868FF;}
</style>
<g>
	<g>
		<path class="st0" d="M142.7,31.6l22.8-22.8L177,20.3l-22.8,22.8L142.7,31.6z"/>
		<path class="st0" d="M77,97.2l22.8-22.8l11.5,11.5l-22.8,22.8L77,97.2z"/>
		<path class="st0" d="M77,17.5L88.5,6l22.8,22.8L99.8,40.2L77,17.5z"/>
		<path class="st0" d="M409.2,506c-13.4,0-24.2-10.9-24.2-24.2c0-13.3,10.9-24.2,24.2-24.2c13.3,0,24.2,10.9,24.2,24.2
			C433.4,495.1,422.6,506,409.2,506z M409.2,473.8c-4.4,0-8.1,3.6-8.1,8.1s3.6,8.1,8.1,8.1s8.1-3.6,8.1-8.1S413.6,473.8,409.2,473.8
			z"/>
	</g>
	<path class="st0" d="M256,109.9c-17.8,0-32.2-14.5-32.2-32.2s14.5-32.2,32.2-32.2s32.2,14.5,32.2,32.2S273.8,109.9,256,109.9z
		 M256,69.6c-4.4,0-8.1,3.6-8.1,8.1s3.6,8.1,8.1,8.1c4.4,0,8.1-3.6,8.1-8.1S260.4,69.6,256,69.6z"/>
	<path class="st0" d="M320.5,178.5h-24.2v-8.1c0-11.1-9.1-20.2-20.2-20.2h-40.4c-11.1,0-20.2,9.1-20.2,20.2v8.1h-24.2v-8.1
		c0-24.5,19.8-44.3,44.3-44.3h40.4c24.5,0,44.3,19.8,44.3,44.3L320.5,178.5L320.5,178.5z"/>
	<path class="st0" d="M385.1,351.9c-17.8,0-32.2-14.5-32.2-32.2c0-17.7,14.5-32.2,32.2-32.2c17.8,0,32.2,14.5,32.2,32.2
		C417.3,337.4,402.9,351.9,385.1,351.9z M385.1,311.5c-4.4,0-8.1,3.6-8.1,8.1s3.6,8.1,8.1,8.1s8.1-3.6,8.1-8.1
		S389.5,311.5,385.1,311.5z"/>
	<path class="st0" d="M449.6,420.4h-24.2v-8.1c0-11.1-9.1-20.2-20.2-20.2h-40.4c-11.1,0-20.2,9.1-20.2,20.2v8.1h-24.2v-8.1
		c0-24.5,19.8-44.3,44.3-44.3h40.4c24.5,0,44.3,19.8,44.3,44.3L449.6,420.4L449.6,420.4z"/>
	<path class="st0" d="M126.9,351.9c-17.8,0-32.2-14.5-32.2-32.2c0-17.7,14.5-32.2,32.2-32.2s32.2,14.5,32.2,32.2
		C159.2,337.4,144.8,351.9,126.9,351.9z M126.9,311.5c-4.4,0-8.1,3.6-8.1,8.1s3.6,8.1,8.1,8.1c4.4,0,8.1-3.6,8.1-8.1
		S131.4,311.5,126.9,311.5z"/>
	<path class="st0" d="M191.5,420.4h-24.2v-8.1c0-11.1-9.1-20.2-20.2-20.2h-40.4c-11.1,0-20.2,9.1-20.2,20.2v8.1H62.4v-8.1
		c0-24.5,19.8-44.3,44.3-44.3h40.4c24.5,0,44.3,19.8,44.3,44.3V420.4z"/>
	<path class="st0" d="M315.3,297.6l-47.2-32.7v-46H244v46l-47.2,32.7l13.7,19.8l45.5-31.5l45.5,31.5L315.3,297.6z"/>
</g>
</svg>
