<?xml version="1.0" encoding="utf-8"?>
<!-- Generator: Adobe Illustrator 24.0.1, SVG Export Plug-In . SVG Version: 6.00 Build 0)  -->
<svg version="1.1" id="line" xmlns="http://www.w3.org/2000/svg" xmlns:xlink="http://www.w3.org/1999/xlink" x="0px" y="0px"
	 width="512px" height="512px" viewBox="0 0 512 512" style="enable-background:new 0 0 512 512;" xml:space="preserve">
<style type="text/css">
	.st0{fill:#5868FF;}
</style>
<g>
	<path class="st0" d="M36.6,429.6C19.6,429.6,6,415.9,6,399.1c0-16.8,13.8-30.6,30.6-30.6s30.6,13.8,30.6,30.6
		C67.1,415.9,53.5,429.6,36.6,429.6z M36.6,388.7c-5.6,0-10.2,4.6-10.2,10.2c0,5.6,4.6,10.2,10.2,10.2s10.2-4.6,10.2-10.2
		C46.8,393.3,42.2,388.7,36.6,388.7z"/>
</g>
<g>
	<path class="st0" d="M301.9,501c-1.3,0-2.4-0.1-3.6-0.4c-2-0.4-200.5-50.9-200.5-240.8V97.8c0-6.3,3.9-12.1,9.9-14.4L296.6,12
		c3.4-1.3,7.3-1.3,10.9,0l188.6,71.6c6,2.3,9.9,7.9,9.9,14.4v56.1h-30.6v-45.5L301.9,42.9l-173.5,65.7v151.3
		c0,152.8,148.5,202.8,173.5,210.1c26.1-7.3,173.4-56,173.4-210.1V195h30.6v64.9c0,189.9-198.5,240.4-200.5,240.8
		C304.4,500.8,303.2,501,301.9,501L301.9,501z"/>
</g>
<g>
	<path class="st0" d="M230.2,278.4c0-52.8,29.4-83.8,71.9-83.8s71.9,31.3,71.9,83.8c0,52.8-29.4,85.1-71.9,85.1
		S230.2,331,230.2,278.4z M344.3,278.4c0-36.6-16.5-58.7-42.2-58.7c-25.7,0-42.2,22.1-42.2,58.7s16.5,60,42.2,60
		C327.6,338.4,344.3,315,344.3,278.4z"/>
	<path class="st0" d="M334.6,148.2l-32.6,22.2l-32.6-22.2h-6.7v4l26.5,33.2h26l26.4-33.2v-4H334.6z"/>
</g>
</svg>
