<?xml version="1.0" encoding="utf-8"?>
<!-- Generator: Adobe Illustrator 24.0.1, SVG Export Plug-In . SVG Version: 6.00 Build 0)  -->
<svg version="1.1" id="line" xmlns="http://www.w3.org/2000/svg" xmlns:xlink="http://www.w3.org/1999/xlink" x="0px" y="0px"
	 width="512px" height="512px" viewBox="0 0 512 512" style="enable-background:new 0 0 512 512;" xml:space="preserve">
<style type="text/css">
	.st0{fill:#5868FF;}
</style>
<g>
	<g>
		<path class="st0" d="M382.7,69.6l14.2-14.2L425,83.6l-14.2,14.2L382.7,69.6z"/>
	</g>
	<g>
		<path class="st0" d="M463.7,150.8l14.2-14.2l28.2,28.2l-14.2,14.2L463.7,150.8z"/>
	</g>
	<g>
		<path class="st0" d="M460.2,83.8l28.2-28.2l14.2,14.2l-28.2,28.2L460.2,83.8z"/>
	</g>
</g>
<g>
	<path class="st0" d="M170.4,436.1H60.8C30.5,436.1,6,411.5,6,381.3v-309C6,42,30.5,17.5,60.8,17.5H270c30.3,0,54.8,24.5,54.8,54.8
		v109.6H295V72.3c0-13.7-11.2-24.9-24.9-24.9H60.7c-13.7,0-24.9,11.2-24.9,24.9v308.9c0,13.7,11.2,24.9,24.9,24.9h109.6L170.4,436.1
		L170.4,436.1z"/>
</g>
<g>
	<path class="st0" d="M83.5,235c0-60.1,33.5-95.4,82-95.4s82,35.6,82,95.4c0,60.1-33.5,97-82,97S83.5,295,83.5,235z M213.5,235
		c0-41.8-18.8-66.8-48.1-66.8s-48.1,25.2-48.1,66.8s18.8,68.2,48.1,68.2C194.5,303.2,213.5,276.6,213.5,235z"/>
	<path class="st0" d="M202.5,86.7l-37.1,25.4l-37.1-25.4h-7.7v4.5l30.3,37.8h29.6l30.1-37.8v-4.5H202.5z"/>
</g>
<g>
	<path class="st0" d="M364.5,494.5c-1.8,0-3.6-0.4-5.3-1.1c-4.2-1.8-102.9-44.7-102.9-133.1v-72.4c0-5.7,3.6-10.9,9.1-12.8
		l94.6-32.2c2.8-1,5.9-1,8.7,0l94.6,32.2c5.5,1.8,9.1,7,9.1,12.8v72.6c0,88.3-98.7,131.3-102.9,133.1
		C368.1,494.1,366.3,494.5,364.5,494.5L364.5,494.5z M283.3,297.6v62.8c0,60.3,62.2,96.3,81,105.7c18.8-9.5,81.1-45.5,81.1-105.7
		v-62.8L364.3,270L283.3,297.6z"/>
</g>
<g>
	<path class="st0" d="M360,413.4c-3.5,0-7-1.4-9.5-3.9l-36-36l19.1-19.1l25.1,25.1l44.7-59.6l21.6,16.3L370.8,408
		c-2.4,3.1-5.9,5-9.8,5.3C360.5,413.4,360.3,413.4,360,413.4L360,413.4z"/>
</g>
</svg>
