<?xml version="1.0" encoding="utf-8"?>
<!-- Generator: Adobe Illustrator 24.0.1, SVG Export Plug-In . SVG Version: 6.00 Build 0)  -->
<svg version="1.1" id="LINE" xmlns="http://www.w3.org/2000/svg" xmlns:xlink="http://www.w3.org/1999/xlink" x="0px" y="0px"
	 width="512px" height="512px" viewBox="0 0 512 512" style="enable-background:new 0 0 512 512;" xml:space="preserve">
<style type="text/css">
	.st0{fill:#5868FF;}
</style>
<g>
	<path class="st0" d="M480.2,93.2c-14.3,0-25.8-11.6-25.8-25.8s11.6-25.8,25.8-25.8c14.3,0,25.8,11.6,25.8,25.8
		S494.4,93.2,480.2,93.2z M480.2,58.8c-4.7,0-8.6,3.9-8.6,8.6s3.9,8.6,8.6,8.6s8.6-3.9,8.6-8.6C488.8,62.7,484.9,58.8,480.2,58.8z"
		/>
	<path class="st0" d="M9,332.2L21.3,320l24.3,24.3l-12.2,12.2L9,332.2z"/>
	<path class="st0" d="M79.1,402.2L91.4,390l24.3,24.3l-12.2,12.2L79.1,402.2z"/>
	<path class="st0" d="M6,414.5l24.3-24.3l12.2,12.2l-24.3,24.3L6,414.5z"/>
</g>
<path class="st0" d="M400.5,161.7c-32.6-28.6-74.2-44.3-117.3-44.3c-40.6,0-80.3,14.3-111.9,40.1l-16.3-20
	c36.1-29.7,81.6-46,128.2-46c49.4,0,97.1,18,134.4,50.7L400.5,161.7z"/>
<path class="st0" d="M214.3,160.4h-55.9c-7.1,0-13-5.8-13-13V91.6h25.8v43.1h43.1V160.4z"/>
<path class="st0" d="M285.2,470.4c-49.4,0-97.1-18-134.4-50.7l17.1-19.4c32.6,28.6,74.2,44.3,117.3,44.3
	c40.6,0,80.3-14.3,111.9-40.1l16.3,20C377.4,454.2,331.9,470.4,285.2,470.4z"/>
<path class="st0" d="M421,470.4h-25.8v-43.1h-43.1v-25.8H408c7.1,0,13,5.8,13,13L421,470.4L421,470.4z"/>
<path class="st0" d="M162.6,281c-23.7,0-43.1-19.4-43.1-43.1s19.4-43.1,43.1-43.1s43.1,19.4,43.1,43.1S186.3,281,162.6,281z
	 M162.6,220.7c-9.4,0-17.2,7.8-17.2,17.2s7.8,17.2,17.2,17.2s17.2-7.8,17.2-17.2S172.1,220.7,162.6,220.7z"/>
<path class="st0" d="M248.8,354.1H223v-8.6c0-11.9-9.7-21.6-21.6-21.6h-77.5c-11.9,0-21.6,9.7-21.6,21.6v8.6H76.5v-8.6
	c0-26.2,21.2-47.3,47.3-47.3h77.5c26.2,0,47.3,21.2,47.3,47.3v8.6H248.8z"/>
<path class="st0" d="M403.8,281c-23.7,0-43.1-19.4-43.1-43.1s19.4-43.1,43.1-43.1s43.1,19.4,43.1,43.1S427.5,281,403.8,281z
	 M403.8,220.7c-9.4,0-17.2,7.8-17.2,17.2s7.8,17.2,17.2,17.2c9.4,0,17.2-7.8,17.2-17.2S413.2,220.7,403.8,220.7z"/>
<path class="st0" d="M489.9,354.1h-25.8v-8.6c0-11.9-9.7-21.6-21.6-21.6H365c-11.9,0-21.6,9.7-21.6,21.6v8.6h-25.8v-8.6
	c0-26.2,21.2-47.3,47.3-47.3h77.5c26.2,0,47.3,21.2,47.3,47.3L489.9,354.1L489.9,354.1z"/>
</svg>
