<?xml version="1.0" encoding="utf-8"?>
<!-- Generator: Adobe Illustrator 24.0.1, SVG Export Plug-In . SVG Version: 6.00 Build 0)  -->
<svg version="1.1" id="line" xmlns="http://www.w3.org/2000/svg" xmlns:xlink="http://www.w3.org/1999/xlink" x="0px" y="0px"
	 width="512px" height="512px" viewBox="0 0 512 512" style="enable-background:new 0 0 512 512;" xml:space="preserve">
<style type="text/css">
	.st0{fill:#5868FF;}
</style>
<g>
	<path class="st0" d="M128.9,60.5c-15.1,0-27.2-12.2-27.2-27.2S114,6,128.9,6c15.1,0,27.2,12.2,27.2,27.2S143.9,60.5,128.9,60.5z
		 M128.9,24.1c-5,0-9.1,4.1-9.1,9.1s4.1,9.1,9.1,9.1c5,0,9.1-4.1,9.1-9.1C138.1,28.2,134,24.1,128.9,24.1z"/>
</g>
<g>
	<path class="st0" d="M201.3,493.1l25.6-25.6l12.9,12.9L214.2,506L201.3,493.1z"/>
</g>
<g>
	<path class="st0" d="M271.9,480.4l12.9-12.9l25.6,25.6L297.5,506L271.9,480.4z"/>
</g>
<g>
	<path class="st0" d="M355.7,468.6c-65.1,0-117.9-52.9-117.9-117.9s52.9-117.9,117.9-117.9s117.9,52.9,117.9,117.9
		S420.7,468.6,355.7,468.6z M355.7,260c-50,0-90.7,40.7-90.7,90.7s40.7,90.7,90.7,90.7s90.7-40.7,90.7-90.7S405.7,260,355.7,260z"/>
</g>
<g>
	<path class="st0" d="M337.6,396.1c-3.2,0-6.3-1.1-8.8-3.3L297,365.6l17.7-20.7l21.8,18.8l50.1-54l19.9,18.5l-58.9,63.5
		C344.8,394.5,341.3,396.1,337.6,396.1L337.6,396.1z"/>
</g>
<g>
	<path class="st0" d="M191.8,324.2l-61.5-61.5c-5.1-5.1-5.4-13.3-0.5-18.6l85.2-95.7c0.9-1,1.4-1.7,2-2.2
		c61.2-70.4,156.5-115.1,243.4-113c7.3,0.1,13.1,6,13.3,13.3c1.3,53.4-15.4,111.7-47.2,163.9l-23.2-14.2
		c26.4-43.5,41.5-91.2,43.1-135.8c-74.1,2.9-156.8,43.6-209.6,104.2c-1,1.1-1.5,1.8-2,2.3l-76.1,85.5l52.4,52.4L191.8,324.2z"/>
</g>
<g>
	<path class="st0" d="M157.5,244.8l-84.8-12.1c-5.1-0.8-9.3-4.3-11-9.2c-1.7-4.8-0.4-10.2,3.3-13.9c43-43,101.7-67.2,161.6-67.2
		v27.2c-43.5,0-86.2,14.5-120.7,40.4l55.5,7.9L157.5,244.8z"/>
</g>
<g>
	<path class="st0" d="M51.8,468.6c-3.6,0-7-1.4-9.6-4c-3.6-3.6-4.8-8.7-3.4-13.5c4.6-15.3,28.3-92.3,46.8-110.8
		c21.6-21.7,59.3-21.7,81,0c22.3,22.3,22.3,58.7,0,81c-18.5,18.5-95.7,42.2-110.8,46.8C54.5,468.4,53.1,468.6,51.8,468.6z
		 M126.1,350.6c-7.7,0-15.4,2.9-21.3,8.8c-7.9,7.9-21.6,42.9-32.1,74.6c31.8-10.6,66.7-24.2,74.6-32.1c11.7-11.7,11.7-30.7,0-42.5
		C141.5,353.6,133.9,350.6,126.1,350.6z"/>
</g>
<g>
	<path class="st0" d="M349,203.2c-12.1,0-23.5-4.7-32-13.3c-17.7-17.7-17.7-46.4,0-64.2c17.1-17.1,46.9-17.1,64.2,0
		c17.7,17.7,17.7,46.4,0,64.2C372.5,198.5,361.2,203.2,349,203.2z M349,139.7c-4.8,0-9.4,1.9-12.9,5.4c-7,7-7,18.6,0,25.6
		c6.8,6.9,18.8,6.9,25.6,0c7-7,7-18.6,0-25.6C358.5,141.6,353.9,139.7,349,139.7L349,139.7z"/>
</g>
</svg>
