<?xml version="1.0" encoding="utf-8"?>
<!-- Generator: Adobe Illustrator 24.0.1, SVG Export Plug-In . SVG Version: 6.00 Build 0)  -->
<svg version="1.1" id="LINE" xmlns="http://www.w3.org/2000/svg" xmlns:xlink="http://www.w3.org/1999/xlink" x="0px" y="0px"
	 width="512px" height="512px" viewBox="0 0 512 512" style="enable-background:new 0 0 512 512;" xml:space="preserve">
<style type="text/css">
	.st0{fill:#5868FF;}
</style>
<g>
	<path class="st0" d="M80.9,55.4l26-26L120,42.4l-26,26L80.9,55.4z"/>
	<path class="st0" d="M6,130.2l26-26l13.1,13.1l-26,26L6,130.2z"/>
	<path class="st0" d="M6,39.1L19.1,26l26,26L32,65.1L6,39.1z"/>
	<path class="st0" d="M478.4,486c-15.3,0-27.6-12.4-27.6-27.6c0-15.3,12.4-27.6,27.6-27.6c15.3,0,27.6,12.4,27.6,27.6
		C506,473.6,493.6,486,478.4,486z M478.4,449.1c-5,0-9.2,4.1-9.2,9.2s4.1,9.2,9.2,9.2s9.2-4.1,9.2-9.2S483.5,449.1,478.4,449.1z"/>
</g>
<path class="st0" d="M298.9,398.5h-82.8c-4.9,0-9.4-2.6-11.9-6.9c-2.5-4.3-2.5-9.4-0.1-13.7l41.4-73.6c4.9-8.7,19.2-8.7,24.1,0
	l41.4,73.6c2.3,4.3,2.3,9.6-0.1,13.7C308.4,395.9,303.8,398.5,298.9,398.5z M239.6,370.9h35.6l-17.7-31.7L239.6,370.9z"/>
<path class="st0" d="M50.4,288.1h414.2v27.6H50.4V288.1z"/>
<path class="st0" d="M110.2,177.7c-20.3,0-36.8-16.6-36.8-36.8s16.6-36.8,36.8-36.8s36.8,16.6,36.8,36.8S130.5,177.7,110.2,177.7z
	 M110.2,131.6c-5,0-9.2,4.1-9.2,9.2c0,5,4.1,9.2,9.2,9.2c5,0,9.2-4.1,9.2-9.2C119.4,135.8,115.2,131.6,110.2,131.6z"/>
<path class="st0" d="M183.8,255.9h-27.6v-9.2c0-12.7-10.4-23-23-23H87.2c-12.7,0-23,10.4-23,23v9.2H36.5v-9.2
	c0-28,22.7-50.6,50.6-50.6h46.1c28,0,50.6,22.7,50.6,50.6V255.9z"/>
<g>
	<path class="st0" d="M373.5,197c0-38.1,21.2-60.4,51.9-60.4s51.9,22.5,51.9,60.4c0,38.1-21.2,61.4-51.9,61.4S373.5,234.9,373.5,197
		z M455.8,197c0-26.4-11.9-42.3-30.4-42.3c-18.5,0-30.4,15.9-30.4,42.3s11.9,43.2,30.4,43.2C443.7,240.2,455.8,223.4,455.8,197z"/>
	<path class="st0" d="M448.8,103l-23.6,16l-23.6-16h-4.9v2.8l19.2,23.9h18.9l19-23.9V103H448.8z"/>
</g>
</svg>
