<?xml version="1.0" encoding="utf-8"?>
<!-- Generator: Adobe Illustrator 24.0.1, SVG Export Plug-In . SVG Version: 6.00 Build 0)  -->
<svg version="1.1" id="line" xmlns="http://www.w3.org/2000/svg" xmlns:xlink="http://www.w3.org/1999/xlink" x="0px" y="0px"
	 width="512px" height="512px" viewBox="0 0 512 512" style="enable-background:new 0 0 512 512;" xml:space="preserve">
<style type="text/css">
	.st0{fill:#5868FF;}
</style>
<g>
	<path class="st0" d="M475.4,347.9c-17,0-30.6-13.7-30.6-30.6c0-17,13.7-30.6,30.6-30.6c17,0,30.6,13.7,30.6,30.6
		C506.1,334,492.3,347.9,475.4,347.9z M475.4,307.1c-5.6,0-10.2,4.6-10.2,10.2s4.6,10.2,10.2,10.2s10.2-4.6,10.2-10.2
		C485.8,311.7,481.2,307.1,475.4,307.1z"/>
</g>
<g>
	<path class="st0" d="M77.4,384.5H46.9V87.7c0-42.2,34.4-76.5,76.5-76.5h306v30.6h-306c-25.2,0-46,20.6-46,46V384.5z"/>
</g>
<g>
	<path class="st0" d="M480.5,123.4h-102c-8.5,0-15.4-6.9-15.4-15.4V77.4c0-36.6,29.6-66.4,66.4-66.4c36.6,0,66.4,29.6,66.4,66.4
		v30.6C495.9,116.6,489,123.4,480.5,123.4z M393.9,92.7h71.4V77.3c0-19.7-16.1-35.8-35.8-35.8c-19.7,0-35.8,16.1-35.8,35.8v15.4
		H393.9z"/>
</g>
<g>
	<path class="st0" d="M332.7,501H62.2C31.2,501,6,475.9,6,444.8v-60.5c0-8.5,6.9-15.4,15.4-15.4h255.1c8.5,0,15.4,6.9,15.4,15.4
		v50.3c0,19.7,16.1,35.8,35.8,35.8c19.7,0,35.8-16.1,35.8-35.8V296.9h30.6v137.8c0,34.9-27,63.6-61.3,66.1L332.7,501L332.7,501z
		 M36.7,399.7v45.1c0,14.1,11.5,25.6,25.6,25.6h209.5c-6.7-10.3-10.4-22.5-10.4-35.8v-34.9H36.7z"/>
</g>
<g>
	<path class="st0" d="M363.2,108.1h30.6v148h-30.6V108.1z"/>
</g>
<g>
	<path class="st0" d="M146.7,223.9c0-59.8,33.3-95,81.5-95s81.5,35.4,81.5,95c0,59.8-33.3,96.5-81.5,96.5S146.7,283.9,146.7,223.9z
		 M276,223.9c0-41.5-18.8-66.6-47.8-66.6s-47.8,25.1-47.8,66.6s18.8,68.1,47.8,68.1C257.2,292.1,276,265.5,276,223.9z"/>
	<path class="st0" d="M265.1,76.6l-37,25.1l-37-25.1h-7.6v4.6l30,37.6h29.4l30-37.6v-4.6C273.1,76.6,265.1,76.6,265.1,76.6z"/>
</g>
</svg>
