<?xml version="1.0" encoding="utf-8"?>
<!-- Generator: Adobe Illustrator 24.0.1, SVG Export Plug-In . SVG Version: 6.00 Build 0)  -->
<svg version="1.1" id="LINE" xmlns="http://www.w3.org/2000/svg" xmlns:xlink="http://www.w3.org/1999/xlink" x="0px" y="0px"
	 width="512px" height="512px" viewBox="0 0 512 512" style="enable-background:new 0 0 512 512;" xml:space="preserve">
<style type="text/css">
	.st0{fill:#5868FF;}
</style>
<g>
	<path class="st0" d="M80.4,62l25.8-25.8l13,13L93.4,75L80.4,62z"/>
	<path class="st0" d="M6,136.3l25.8-25.8l13,13L19,149.2L6,136.3z"/>
	<path class="st0" d="M6.1,45.8l13-13l25.8,25.8l-13,13L6.1,45.8z"/>
	<path class="st0" d="M438.8,479.1c-15.2,0-27.4-12.3-27.4-27.4c0-15,12.3-27.4,27.4-27.4s27.4,12.3,27.4,27.4
		C466.2,466.8,453.8,479.1,438.8,479.1z M438.8,442.6c-5,0-9.1,4.1-9.1,9.1s4.1,9.1,9.1,9.1s9.1-4.1,9.1-9.1
		S443.8,442.6,438.8,442.6z"/>
</g>
<path class="st0" d="M328.5,279.7c-9.6,0-19.3-3.7-26.6-11.1L284,250.7l19.4-19.4l17.9,17.9c4.1,4.1,10.8,4.1,14.9,0
	c4.8-4.9,4.8-11.7,0.6-15.8l-52.1-52.1l19.4-19.4l52.3,52.3c14.5,14.9,14.5,38.9,0.1,53.7C348.5,275.8,338.5,279.7,328.5,279.7
	L328.5,279.7z"/>
<path class="st0" d="M121.4,140.4l35.2-14.5l10.5,25.3L132,165.8L121.4,140.4z"/>
<path class="st0" d="M248.9,145.5l-10-10c-6-6-15-8-22.9-4.8l-21.6,8.9l-10.5-25.3l21.7-9c18.1-7.3,38.8-3.2,52.7,10.7l10,10
	L248.9,145.5z"/>
<path class="st0" d="M268.6,195.6c-9.6,0-19-3.7-26.2-10.9c-8.5-8.5-12.3-20.2-10.4-32.1c1.9-11.8,9.3-21.9,19.9-27.1l60.4-30.2
	c12.6-6.3,27.2-6.8,40.2-1.4l99.1,40.5l-10.4,25.4l-99.1-40.6c-5.7-2.4-12.1-2.2-17.5,0.5l-60.4,30.2c-2.8,1.4-4.6,4-5.1,7.1
	s0.5,6.2,2.7,8.4c3,3,7.5,3.6,11.1,1.8l53.7-27l12.3,24.6l-53.7,27C279.9,194.3,274.3,195.6,268.6,195.6L268.6,195.6z"/>
<path class="st0" d="M294.4,314.1c-10.2,0-19.7-4-26.9-11.2l-22.4-22.4l19.4-19.4l22.4,22.4c4,4,10.9,4,14.9,0
	c2.1-2.1,3.1-4.6,3.1-7.5c0-2.8-1.2-5.5-3.1-7.5L284,250.7l19.4-19.4l17.9,17.9c7.2,7.2,11.2,16.7,11.2,26.9s-4,19.7-11.2,26.9
	C314.1,310.2,304.6,314.1,294.4,314.1L294.4,314.1L294.4,314.1z"/>
<path class="st0" d="M255.4,344.3c-9.5,0-19-3.6-26.3-10.7l-40.1-36.4c-14.5-13.2-33.4-20.4-53.1-20.4h-9.1v-27.4h9.1
	c26.5,0,51.8,9.8,71.5,27.6l40.5,36.8c4.5,4.4,11.2,4.4,15.2,0.3c2.2-2.2,3.3-4.9,3.3-7.7s-1.2-5.5-3.1-7.5l-17.9-17.9l19.4-19.4
	l17.9,17.9c7.2,7.2,11.2,16.7,11.2,26.9s-4,19.7-11.2,26.9C275,340.6,265.3,344.3,255.4,344.3L255.4,344.3z"/>
<path class="st0" d="M394,282.6c-5.1,0-10.4-0.9-15.4-2.6L346,268.9l8.9-26l32.6,11.2c7.1,2.4,14.9,0.9,20.6-4l28.5-29.7l19.8,19
	L427,269.9C417.4,278.2,405.7,282.6,394,282.6L394,282.6z"/>
<path class="st0" d="M492.2,292.1h-45.8c-7.6,0-13.8-6.2-13.8-13.8V123c0-7.6,6.2-13.8,13.8-13.8h45.8c7.6,0,13.8,6.2,13.8,13.8
	v155.4C506,285.9,499.8,292.1,492.2,292.1z M460.2,264.6h18.3v-128h-18.3V264.6z"/>
<path class="st0" d="M126.6,292.1H80.8c-7.6,0-13.8-6.2-13.8-13.8V123c0-7.6,6.2-13.8,13.8-13.8h45.8c7.6,0,13.8,6.2,13.8,13.8
	v155.4C140.3,285.9,134.1,292.1,126.6,292.1z M94.7,264.6h18.3v-128H94.7V264.6z"/>
</svg>
