<?xml version="1.0" encoding="utf-8"?>
<!-- Generator: Adobe Illustrator 24.0.1, SVG Export Plug-In . SVG Version: 6.00 Build 0)  -->
<svg version="1.1" id="LINE" xmlns="http://www.w3.org/2000/svg" xmlns:xlink="http://www.w3.org/1999/xlink" x="0px" y="0px"
	 width="512px" height="512px" viewBox="0 0 512 512" style="enable-background:new 0 0 512 512;" xml:space="preserve">
<style type="text/css">
	.st0{fill:#5868FF;}
</style>
<g>
	<path class="st0" d="M392.7,491.2l24-24l12.1,12.1l-24,24L392.7,491.2z"/>
	<path class="st0" d="M461.7,422.1l24-24l12.1,12.1l-24,24L461.7,422.1z"/>
	<path class="st0" d="M461.7,482l12.1-12.1l24,24L485.8,506L461.7,482z"/>
	<path class="st0" d="M39.6,56.9c-14.1,0-25.4-11.5-25.4-25.4S25.6,6,39.6,6s25.4,11.5,25.4,25.4S53.7,56.9,39.6,56.9z M39.6,23
		c-4.7,0-8.5,3.8-8.5,8.5s3.8,8.5,8.5,8.5s8.5-3.8,8.5-8.5S44.3,23,39.6,23z"/>
</g>
<path class="st0" d="M365.6,357.4c-18.8,0-33.9-15.3-33.9-33.9c0-18.8,15.3-33.9,33.9-33.9c18.8,0,33.9,15.3,33.9,33.9
	C399.5,342.2,384.3,357.4,365.6,357.4z M365.6,315c-4.7,0-8.5,3.8-8.5,8.5s3.8,8.5,8.5,8.5c4.7,0,8.5-3.8,8.5-8.5
	C374.1,318.8,370.2,315,365.6,315z"/>
<path class="st0" d="M433.6,429.7h-25.4v-8.5c0-11.7-9.6-21.3-21.3-21.3h-42.5v-25.4h42.5c25.8,0,46.7,20.9,46.7,46.7V429.7z"/>
<path class="st0" d="M93.7,357.4c-18.8,0-33.9-15.3-33.9-33.9c0-18.8,15.3-33.9,33.9-33.9s33.9,15.3,33.9,33.9
	C127.8,342.2,112.5,357.4,93.7,357.4z M93.7,315c-4.7,0-8.5,3.8-8.5,8.5s3.8,8.5,8.5,8.5c4.7,0,8.5-3.8,8.5-8.5
	C102.2,318.8,98.4,315,93.7,315z"/>
<path class="st0" d="M51.3,429.7H25.8v-8.5c0-25.8,20.9-46.7,46.7-46.7H115v25.4H72.5c-11.7,0-21.3,9.6-21.3,21.3L51.3,429.7
	L51.3,429.7z"/>
<path class="st0" d="M229.7,365.9c-28.1,0-51-22.8-51-51c0-28.1,22.8-51,51-51s51,22.8,51,51C280.7,343.1,257.7,365.9,229.7,365.9z
	 M229.7,289.4c-14.1,0-25.4,11.5-25.4,25.4c0,14.1,11.5,25.4,25.4,25.4c14.1,0,25.4-11.5,25.4-25.4
	C255.1,300.9,243.8,289.4,229.7,289.4z"/>
<path class="st0" d="M323.1,463.6h-25.4v-25.4c0-11.7-9.6-21.3-21.3-21.3H183c-11.7,0-21.3,9.6-21.3,21.3v25.4h-25.4v-25.4
	c0-25.8,20.9-46.7,46.7-46.7h93.4c25.8,0,46.7,20.9,46.7,46.7L323.1,463.6L323.1,463.6z"/>
<g>
	<path class="st0" d="M169.9,160.9c0-44,24.5-69.8,59.8-69.8s59.8,26,59.8,69.8c0,44-24.5,70.8-59.8,70.8S169.9,204.8,169.9,160.9z
		 M264.9,160.9c0-30.5-13.7-48.9-35.1-48.9s-35.1,18.4-35.1,48.9s13.7,49.9,35.1,49.9C251,210.8,264.9,191.4,264.9,160.9z"/>
	<path class="st0" d="M256.9,52.6l-27.1,18.5l-27.1-18.5h-5.6v3.3l22.1,27.6h21.6l22-27.6v-3.3H256.9z"/>
</g>
<g>
	<path class="st0" d="M44.6,162.5c0-35.2,19.6-55.9,47.9-55.9s47.9,20.9,47.9,55.9c0,35.2-19.6,56.7-47.9,56.7
		S44.6,197.6,44.6,162.5z M120.6,162.5c0-24.4-11-39.1-28.1-39.1s-28.1,14.7-28.1,39.1s11,40,28.1,40S120.6,186.8,120.6,162.5z"/>
	<path class="st0" d="M114.3,75.8L92.5,90.6L70.8,75.8h-4.5v2.6l17.7,22.1h17.3l17.6-22.1v-2.6H114.3z"/>
</g>
<g>
	<path class="st0" d="M317.5,161.2c0-35.2,19.6-55.9,47.9-55.9c28.3,0,47.9,20.9,47.9,55.9c0,35.2-19.6,56.7-47.9,56.7
		C337,217.9,317.5,196.3,317.5,161.2z M393.5,161.2c0-24.4-11-39.1-28.1-39.1c-17.1,0-28.1,14.7-28.1,39.1s11,40,28.1,40
		C382.6,201.2,393.5,185.5,393.5,161.2z"/>
	<path class="st0" d="M387.2,74.4l-21.7,14.8l-21.7-14.8h-4.5v2.6l17.7,22.1h17.3l17.6-22.1v-2.6H387.2z"/>
</g>
</svg>
