<?xml version="1.0" encoding="utf-8"?>
<!-- Generator: Adobe Illustrator 24.0.1, SVG Export Plug-In . SVG Version: 6.00 Build 0)  -->
<svg version="1.1" id="Capa_1" xmlns="http://www.w3.org/2000/svg" xmlns:xlink="http://www.w3.org/1999/xlink" x="0px" y="0px"
	 width="512px" height="512px" viewBox="0 0 512 512" style="enable-background:new 0 0 512 512;" xml:space="preserve">
<style type="text/css">
	.st0{fill:#5868FF;}
</style>
<path class="st0" d="M231.5,11.7C107,11.7,6,113.1,6,238.1C6,338.2,70.6,423,160.3,453c11.3,2.1,15.4-4.9,15.4-10.9
	c0-5.4-0.2-19.6-0.3-38.5c-62.7,13.7-76-30.4-76-30.4c-10.2-26.2-25-33.1-25-33.1c-20.5-14,1.5-13.8,1.5-13.8
	c22.6,1.6,34.5,23.3,34.5,23.3c20.1,34.6,52.8,24.6,65.7,18.8c2-14.6,7.9-24.6,14.3-30.3C140.3,332.5,87.6,313,87.6,226.3
	c0-24.7,8.8-44.9,23.2-60.8c-2.3-5.7-10.1-28.8,2.2-59.9c0,0,18.9-6.1,62,23.2c18-5,37.3-7.5,56.5-7.6c19.1,0.1,38.5,2.6,56.5,7.6
	c43.1-29.3,62-23.2,62-23.2c12.3,31.2,4.6,54.2,2.3,59.9c14.5,15.8,23.2,36.1,23.2,60.8c0,87-52.7,106.1-103,111.7
	c8.1,7,15.3,20.8,15.3,41.9c0,30.3-0.3,54.7-0.3,62.1c0,6.1,4.1,13.1,15.5,10.9c89.5-30,154.1-114.8,154.1-214.8
	C457.1,113.1,356.1,11.7,231.5,11.7z"/>
<g>
	<path class="st0" d="M419.8,449.4c0-31.6,17.6-50.2,43.1-50.2s43.1,18.7,43.1,50.2c0,31.6-17.6,51-43.1,51
		C437.4,500.4,419.8,481,419.8,449.4z M488.2,449.4c0-21.9-9.9-35.2-25.3-35.2c-15.4,0-25.3,13.2-25.3,35.2
		c0,21.9,9.9,35.9,25.3,35.9C478.2,485.4,488.2,471.3,488.2,449.4z"/>
	<path class="st0" d="M482.4,371.4l-19.5,13.3l-19.6-13.3h-4.1v2.4l15.9,19.9h15.6l15.8-19.9v-2.4H482.4L482.4,371.4z"/>
</g>
</svg>
