<?xml version="1.0" encoding="utf-8"?>
<!-- Generator: Adobe Illustrator 24.0.1, SVG Export Plug-In . SVG Version: 6.00 Build 0)  -->
<svg version="1.1" id="line" xmlns="http://www.w3.org/2000/svg" xmlns:xlink="http://www.w3.org/1999/xlink" x="0px" y="0px"
	 width="512px" height="512px" viewBox="0 0 512 512" style="enable-background:new 0 0 512 512;" xml:space="preserve">
<style type="text/css">
	.st0{fill:#5868FF;}
</style>
<g>
	<path class="st0" d="M381.6,19.8L395.4,6l27.4,27.4L409,47.2L381.6,19.8z"/>
</g>
<g>
	<path class="st0" d="M460.4,98.7l13.8-13.8l27.4,27.4l-13.8,13.8L460.4,98.7z"/>
</g>
<g>
	<path class="st0" d="M457,33.5l27.4-27.4l13.8,13.8l-27.4,27.4L457,33.5z"/>
</g>
<g>
	<path class="st0" d="M411.8,436.9L393,414.7c14.6-12.3,33.7-19.1,53.6-19.1v29C433.6,424.6,420.9,429,411.8,436.9z"/>
</g>
<g>
	<path class="st0" d="M45.2,436.9c-9.3-7.8-21.9-12.3-34.8-12.3v-29c19.9,0,39,6.8,53.6,19.1L45.2,436.9z"/>
</g>
<g>
	<path class="st0" d="M60.3,488.3l-23.6-16.9c18.4-25.6,49.3-40.9,82.7-40.9c29.4,0,57.2,12,76.2,33.1l-21.5,19.5
		c-13.5-14.9-33.4-23.4-54.6-23.4C95.5,459.5,73.4,470.3,60.3,488.3L60.3,488.3z"/>
</g>
<g>
	<path class="st0" d="M396.6,488.3c-12.9-18.1-35-28.8-59.1-28.8c-21.3,0-41.2,8.6-54.6,23.4l-21.5-19.5
		c18.9-21,46.7-33.1,76.2-33.1c33.4,0,64.3,15.3,82.7,40.9L396.6,488.3z"/>
</g>
<g>
	<path class="st0" d="M271.1,506c-9.5-12.8-25.5-20.3-42.7-20.3c-17,0-33,7.6-42.7,20.3l-23.3-17.4c15.1-20,39.7-31.9,65.8-31.9
		s50.8,12,65.8,31.9L271.1,506z"/>
</g>
<g>
	<path class="st0" d="M349.6,395.5H107.3c-8,0-14.6-6.5-14.6-14.6V363c0-14.2,5.6-27.7,15.7-37.6l42.5-42.5V166.3
		c0-21.1,7.4-41.7,20.6-58.1l45.7-56.1c5.6-6.8,17-6.8,22.6,0l45.7,56.1c13.4,16.4,20.6,37.1,20.6,58.1v35.4h-29v-35.4
		c0-14.4-5-28.5-14.2-39.7l-34.3-42.2l-34.3,42.2C185,137.8,180,152,180,166.3v122.6c0,3.8-1.5,7.5-4.2,10.2L129,346
		c-4.5,4.5-7.1,10.8-7.1,17.2v3.3H335v-3.3c0-6.4-2.6-12.7-7.1-17.2l-46.7-46.7c-2.7-2.7-4.2-6.4-4.2-10.2v-48.5h29v42.4l42.5,42.5
		c10.1,10.1,15.7,23.4,15.7,37.6v17.9C364.2,389.1,357.7,395.5,349.6,395.5L349.6,395.5z"/>
</g>
<g>
	<path class="st0" d="M365.7,267.4c0-40.1,22.3-63.6,54.6-63.6s54.6,23.7,54.6,63.6c0,40.1-22.3,64.7-54.6,64.7
		C387.9,332.1,365.7,307.4,365.7,267.4z M452.4,267.4c0-27.8-12.5-44.7-32-44.7c-19.5,0-32,16.9-32,44.7s12.5,45.7,32,45.7
		C439.7,313,452.4,295.2,452.4,267.4z"/>
	<path class="st0" d="M445.2,168.6l-24.8,16.9l-24.8-16.9h-5v3.1l20.2,25.2h19.5l20.2-25.2v-3.1H445.2z"/>
</g>
<g>
	<path class="st0" d="M18.9,146.1c0-40.1,22.3-63.6,54.6-63.6s54.6,23.7,54.6,63.6c0,40.1-22.3,64.7-54.6,64.7
		S18.9,186.2,18.9,146.1z M105.6,146.1c0-27.8-12.5-44.7-32-44.7s-32,16.9-32,44.7s12.5,45.7,32,45.7
		C92.9,191.7,105.6,173.9,105.6,146.1z"/>
	<path class="st0" d="M98.3,47.3L73.5,64.2L48.6,47.3h-5v3.1l20.2,25.2h19.8l20.2-25.2v-3.1H98.3z"/>
</g>
</svg>
