<?xml version="1.0" encoding="utf-8"?>
<!-- Generator: Adobe Illustrator 24.0.1, SVG Export Plug-In . SVG Version: 6.00 Build 0)  -->
<svg version="1.1" id="line" xmlns="http://www.w3.org/2000/svg" xmlns:xlink="http://www.w3.org/1999/xlink" x="0px" y="0px"
	 width="512px" height="512px" viewBox="0 0 512 512" style="enable-background:new 0 0 512 512;" xml:space="preserve">
<style type="text/css">
	.st0{fill:#5868FF;}
</style>
<g>
	<path class="st0" d="M349.7,63.2l11.1-11.1l22.1,22.1l-11.1,11.1L349.7,63.2z"/>
</g>
<g>
	<path class="st0" d="M413.2,126.7l11.1-11.1l22.1,22.1l-11.1,11.1L413.2,126.7z"/>
</g>
<g>
	<path class="st0" d="M346.9,137.7l22.1-22.1l11.1,11.1L358,148.8L346.9,137.7z"/>
</g>
<g>
	<path class="st0" d="M410.4,74.2l22.1-22.1l11.1,11.1l-22.1,22.1L410.4,74.2z"/>
</g>
<g>
	<path class="st0" d="M181.8,459.9h-70.3c-6.5,0-11.8-5.3-11.8-11.8v-70.3c0-6.5,5.3-11.8,11.8-11.8h70.3c6.5,0,11.8,5.3,11.8,11.8
		v70.3C193.5,454.6,188.3,459.9,181.8,459.9z M123.2,436.3h46.9v-46.9h-46.9V436.3z"/>
</g>
<g>
	<path class="st0" d="M306.8,459.9h-70.3c-3.1,0-6.2-1.2-8.3-3.5c-2.2-2.2-3.4-5.2-3.4-8.3l0.7-100.2l23.4,0.1l-0.5,88.3h46.8V311.4
		h-24.4V288h36.1c6.5,0,11.8,5.3,11.8,11.8v148.3C318.6,454.6,313.3,459.9,306.8,459.9z"/>
</g>
<g>
	<path class="st0" d="M431.8,459.9h-70.3c-6.5,0-11.8-5.3-11.8-11.8V221.6c0-6.5,5.3-11.8,11.8-11.8h70.3c6.5,0,11.8,5.3,11.8,11.8
		v226.5C443.6,454.6,438.3,459.9,431.8,459.9z M373.3,436.3h46.9V233.2h-46.9V436.3z"/>
</g>
<g>
	<path class="st0" d="M182.3,271.2c-3,0-6-1.2-8.2-3.4L120,213.8c-4.4-4.4-4.6-11.5-0.4-16.2l44.3-49.2
		c32.6-37.7,82.6-62.7,127.1-63.6c3.2,0,6.3,1.2,8.5,3.4s3.5,5.3,3.4,8.5C302,141.1,277,191.1,239.1,224l-49,44.2
		C187.9,270.2,185.2,271.2,182.3,271.2L182.3,271.2z M144.4,205l38.3,38.3l40.9-36.8c29-25.2,49.9-62.7,54.7-97.1
		c-34.4,4.8-72,25.7-97,54.6L144.4,205z"/>
</g>
<g>
	<path class="st0" d="M218.5,307.5c-3.1,0-6.2-1.2-8.3-3.4L174,267.7l16.6-16.6l25.8,25.9c10.4-20.4,11.9-45.9,12.3-70.6l23.4,0.4
		c-0.5,32.1-3,68.6-24.5,96c-2.1,2.6-5.2,4.3-8.6,4.5C218.9,307.5,218.7,307.5,218.5,307.5L218.5,307.5z"/>
</g>
<g>
	<path class="st0" d="M119.5,213.2l-36.4-36.1c-2.4-2.4-3.6-5.6-3.4-9c0.2-3.3,1.9-6.5,4.5-8.6c27.6-21.5,64.1-24,96-24.5l0.4,23.4
		c-24.7,0.4-50.2,1.9-70.6,12.3l25.9,25.8L119.5,213.2z"/>
</g>
<g>
	<path class="st0" d="M80.3,323.1c-3.1,0-6-1.2-8.2-3.4c-3.1-3.1-4.2-7.5-3-11.6c4.2-14.1,15.1-47.8,24.6-57.4
		c13.1-13.1,34.3-13.1,47.4,0c13.1,13.1,13.1,34.3,0,47.4c-9.6,9.6-43.3,20.3-57.4,24.6C82.5,323,81.4,323.1,80.3,323.1z
		 M117.3,264.3c-2.5,0-5.2,1-7.1,3c-2.5,2.6-7,13.3-11.5,25.7c12.4-4.5,23-9,25.7-11.5c4-4,3.8-10.2,0-14.2
		C122.5,265.3,119.8,264.3,117.3,264.3L117.3,264.3z"/>
</g>
<g>
	<path class="st0" d="M6,436.3h500v23.4H6V436.3z"/>
</g>
</svg>
