<?xml version="1.0" encoding="utf-8"?>
<!-- Generator: Adobe Illustrator 24.0.1, SVG Export Plug-In . SVG Version: 6.00 Build 0)  -->
<svg version="1.1" id="line" xmlns="http://www.w3.org/2000/svg" xmlns:xlink="http://www.w3.org/1999/xlink" x="0px" y="0px"
	 width="512px" height="512px" viewBox="0 0 512 512" style="enable-background:new 0 0 512 512;" xml:space="preserve">
<style type="text/css">
	.st0{fill:#5868FF;}
</style>
<g>
	<path class="st0" d="M411,34l10.9-10.9l21.8,21.8l-10.9,10.9L411,34z"/>
</g>
<g>
	<path class="st0" d="M473.5,96.5l10.9-10.9l21.7,21.7l-10.9,10.9L473.5,96.5z"/>
</g>
<g>
	<path class="st0" d="M408.4,107.4L430,85.7l10.9,10.9l-21.7,21.7L408.4,107.4z"/>
</g>
<g>
	<path class="st0" d="M470.8,44.9l21.7-21.7l10.9,10.9l-21.7,21.7L470.8,44.9z"/>
</g>
<g>
	<path class="st0" d="M69.1,452.8H19.5c-7.5,0-13.5-6.1-13.5-13.5v-153c0-7.5,6.1-13.5,13.5-13.5c63.2,0,92.6,21.9,93.7,22.8
		c4.3,3.3,6.3,9,4.8,14.3l-36,132.9C80.6,448.7,75.1,452.8,69.1,452.8z M33.1,425.8h25.7l30.5-112.9c-9.4-4.4-27.9-11-56.2-12.8
		C33.1,300.1,33.1,425.8,33.1,425.8z"/>
</g>
<g>
	<path class="st0" d="M240.1,488.8c-43.4,0-126.2-36-171.8-57.5l11.5-24.4c74.1,34.9,132.4,55,160.3,55
		c36.5,0,119.4-39.4,162.8-62.2c-5.1-2.9-12.4-5.3-23.3-5.3c-15.8,0-35.3,6.5-54.3,12.8c-20.9,7-42.5,14.2-62.8,14.2
		c-38,0-88-18.1-90.1-18.9l9.2-25.4c0.5,0.1,47.7,17.2,80.9,17.2c15.8,0,35.3-6.5,54.3-12.8c20.9-7,42.5-14.2,62.8-14.2
		c44.7,0,57.1,29.8,57.6,31c2.5,6.3,0,13.5-6.1,16.8C425.9,418.1,297,488.8,240.1,488.8z"/>
</g>
<g>
	<path class="st0" d="M316.7,400.3h-27v-8.1c0-10.6-7.6-19.9-18-22l-49-10.1l5.4-26.5l49,10.1c22.9,4.7,39.6,25.1,39.6,48.5
		L316.7,400.3L316.7,400.3z"/>
</g>
<g>
	<path class="st0" d="M98.4,334.9l5.4-26.5l89.4,18.2l-5.4,26.5L98.4,334.9z"/>
</g>
<g>
	<path class="st0" d="M262,210.3c0-52.8,29.4-83.8,71.9-83.8s71.9,31.3,71.9,83.8c0,52.8-29.4,85.2-71.9,85.2S262,263,262,210.3z
		 M376.1,210.3c0-36.6-16.6-58.7-42.2-58.7c-25.6,0-42.2,22.2-42.2,58.7s16.6,60,42.2,60C359.5,270.3,376.1,246.9,376.1,210.3z"/>
	<path class="st0" d="M366.5,80.1l-32.7,22.2l-32.7-22.2h-6.8v4.1l26.5,33.2h26l26.5-33.2v-4.1C373.2,80.1,366.5,80.1,366.5,80.1z"
		/>
</g>
</svg>
