<?xml version="1.0" encoding="utf-8"?>
<!-- Generator: Adobe Illustrator 24.0.1, SVG Export Plug-In . SVG Version: 6.00 Build 0)  -->
<svg version="1.1" id="line" xmlns="http://www.w3.org/2000/svg" xmlns:xlink="http://www.w3.org/1999/xlink" x="0px" y="0px"
	 width="512px" height="512px" viewBox="0 0 512 512" style="enable-background:new 0 0 512 512;" xml:space="preserve">
<style type="text/css">
	.st0{fill:#5868FF;}
</style>
<g>
	<path class="st0" d="M392.6,59.3l11.1-11.1l22.1,22.1l-11.1,11.1L392.6,59.3z"/>
</g>
<g>
	<path class="st0" d="M456.1,122.9l11.1-11.1l22.1,22.1L478.2,145L456.1,122.9z"/>
</g>
<g>
	<path class="st0" d="M453.4,70.4l22.1-22.1l11.1,11.1l-22.1,22.1L453.4,70.4z"/>
</g>
<g>
	<path class="st0" d="M52.9,252.9c-13,0-23.4-10.5-23.4-23.4c0-13,10.5-23.4,23.4-23.4s23.4,10.5,23.4,23.4
		C76.3,242.3,65.9,252.9,52.9,252.9z M52.9,221.6c-4.3,0-7.8,3.5-7.8,7.8s3.5,7.8,7.8,7.8s7.8-3.5,7.8-7.8
		C60.7,225.1,57.2,221.6,52.9,221.6z"/>
</g>
<g>
	<path class="st0" d="M357.6,463.8H80.3c-4.2,0-8-2.2-10.1-5.7c-2.1-3.5-2.2-8-0.2-11.6l44.8-82.1l20.5,11.2L100,440.3h237.5
		L217.2,226.2l-66.8,122.1L129.8,337l76.9-140.6c2.1-3.7,5.9-6,10.2-6c3.8-0.1,8.2,2.3,10.3,5.9l140.6,250.1c2,3.6,2,8-0.1,11.6
		C365.6,461.5,361.7,463.8,357.6,463.8L357.6,463.8z"/>
</g>
<g>
	<path class="st0" d="M431.8,463.8h-74.3v-23.4H412l-61.7-111.7l-26.4,51.6L303,369.7l36.4-71.3c2-3.8,5.9-6.3,10.2-6.4
		c4.8,0,8.3,2.3,10.4,6l82.1,148.4c2,3.6,2,8-0.1,11.6C439.9,461.6,436,463.8,431.8,463.8L431.8,463.8z"/>
</g>
<g>
	<path class="st0" d="M228.7,202h-23.4V100.5c0-6.5,5.3-11.8,11.8-11.8h89.9c4.6,0,8.8,2.6,10.7,6.8s1.2,9-1.8,12.5l-16.9,19.7
		l16.9,19.7c3,3.5,3.6,8.3,1.8,12.5c-1.9,4.2-6,6.8-10.7,6.8h-78.1L228.7,202z M228.7,143.4h52.6l-6.8-8c-3.7-4.4-3.7-10.9,0-15.3
		l6.8-8h-52.6V143.4z"/>
</g>
<g>
	<path class="st0" d="M240.5,323.2c-3,0-6-1.2-8.2-3.4l-15.2-15.2l-15.2,15.2c-4.3,4.3-11.1,4.6-15.7,0.8L163.8,302l14.9-18.1
		l14.2,11.6l15.9-15.9c4.6-4.6,12-4.6,16.6,0l15.9,15.9l14.2-11.6l14.9,18.1l-22.3,18.5C245.7,322.3,243.1,323.2,240.5,323.2
		L240.5,323.2z"/>
</g>
<g>
	<path class="st0" d="M6,440.3h500v23.4H6V440.3z"/>
</g>
</svg>
