<?xml version="1.0" encoding="utf-8"?>
<!-- Generator: Adobe Illustrator 24.0.1, SVG Export Plug-In . SVG Version: 6.00 Build 0)  -->
<svg version="1.1" id="LINE" xmlns="http://www.w3.org/2000/svg" xmlns:xlink="http://www.w3.org/1999/xlink" x="0px" y="0px"
	 width="512px" height="512px" viewBox="0 0 512 512" style="enable-background:new 0 0 512 512;" xml:space="preserve">
<style type="text/css">
	.st0{fill:#A4AFC1;}
	.st1{opacity:0.2;}
	.st2{fill:#F3F3F1;}
	.st3{fill:#D5DBE1;}
	.st4{fill:#5868FF;}
</style>
<g>
	<path class="st0" d="M429.1,173.1l13.2,25.2l-12.6,6.6l-13.2-25.2L429.1,173.1z"/>
	<path class="st0" d="M391.1,100.8l13.2,25.2l-12.6,6.6l-13.2-25.2L391.1,100.8z"/>
	<path class="st0" d="M458.2,121.7l6.6,12.6l-25.2,13.2l-6.6-12.6L458.2,121.7z"/>
	<path class="st0" d="M73.3,474.5c-11.8,0-21.3-9.6-21.3-21.3s9.6-21.3,21.3-21.3s21.3,9.6,21.3,21.3S85,474.5,73.3,474.5z
		 M73.3,446.1c-3.9,0-7.1,3.2-7.1,7.1s3.2,7.1,7.1,7.1s7.1-3.2,7.1-7.1C80.4,449.3,77.2,446.1,73.3,446.1z"/>
</g>
<g>
	<g class="st1">
		<path class="st2" d="M394.1,272c0-63.2-41.8-116.9-99.2-134.7c-10.6-3.2-40.7-12.4-75.7-2.4c-56.3,16.1-80.4,68.8-87.6,83.9
			c-3.2,6.6-18.8,41.8-14.8,89.2c6.6,83.1,67.5,135.2,82.3,147.4c8.7,4.8,47.1,24.6,90.5,10.8c36.2-11.4,55-39.4,64.8-54
			c19-28,24.9-57.4,32.8-97.6C391.1,296.9,393,282.3,394.1,272z"/>
	</g>
	<g class="st1">
		<path class="st3" d="M288,449.8c-9.8-25.1-30.7-32-47.9-47.4c-26.5-23.5-33.3-56.6-39.9-89.4c-3.4-16.7-8.7-42.6-3.2-70.4
			c14-69.6,87.3-104.8,99.7-110.3c-13.5-1.9-32.8-3.4-55.8-0.8c-18.5,2.1-42.9,5-66.7,19.6c-43.4,26.5-56.9,73.8-61.9,91.5
			c-8.2,28.8-7.1,52.4-6.1,70.6c1.6,27.5,3.4,64,27.5,100.8c7.7,11.6,31,45.8,74.1,59.5c31.5,9.8,75.1,9.3,82.3-7.4
			C290.6,464.1,291.9,460.1,288,449.8z"/>
	</g>
	<path class="st4" d="M106,303c0-110.3,61.4-175.1,150.3-175.1S406.5,193.2,406.5,303c0,110.3-61.4,178-150.3,178S106,413,106,303z
		 M344.3,303c0-76.5-34.7-122.8-88.1-122.8s-88.1,46.3-88.1,122.8s34.7,125.4,88.1,125.4C309.7,428.4,344.3,379.4,344.3,303z"/>
	<path class="st4" d="M324.2,31L256,77.3L187.7,31h-14.3v8.5l55.3,69.3h54.2l55.3-69.3V31C338.2,31,324.2,31,324.2,31z"/>
</g>
</svg>
