<?xml version="1.0" encoding="utf-8"?>
<!-- Generator: Adobe Illustrator 24.0.1, SVG Export Plug-In . SVG Version: 6.00 Build 0)  -->
<svg version="1.1" id="Layer_1" xmlns="http://www.w3.org/2000/svg" xmlns:xlink="http://www.w3.org/1999/xlink" x="0px" y="0px"
	 width="500px" height="500px" viewBox="0 0 500 500" style="enable-background:new 0 0 500 500;" xml:space="preserve">
<style type="text/css">
	.st0{fill:#D5DBE1;}
	.st1{fill:#FF9D08;}
	.st2{fill:#A4AFC1;}
	.st3{fill:#C8CCCE;}
	.st4{fill:#EFEFEF;}
	.st5{fill:#F3F3F1;}
</style>
<g>
	<ellipse class="st0" cx="250" cy="483.3" rx="233.1" ry="15.7"/>
	<g>
		<g>
			<g>
				<path class="st1" d="M255.6,478.8h2.2C257.1,478.8,256.4,478.8,255.6,478.8z"/>
				<path class="st0" d="M398.2,266c-0.1,9.5-0.5,19.1-1.3,28.5c-0.2,2.6-0.5,5.1-0.7,7.7c-1,9.3-2.4,18.6-4,27.7
					c-0.5,2.6-1,5.2-1.5,7.7c-1.9,8.9-4.1,17.6-6.7,26c-0.8,2.6-1.6,5.2-2.5,7.7c-2.7,8.1-5.7,16-9.1,23.6c-1.1,2.6-2.4,5.2-3.6,7.7
					c-2.2,4.5-4.5,8.9-6.9,13.1c-2.1,3.6-4.2,7-6.4,10.3c-1.8,2.7-3.6,5.3-5.4,7.7c-5.4,7.3-11.1,13.7-17,19.2c-3,2.8-6,5.4-9.1,7.7
					c-4.4,3.3-8.8,6.2-13.3,8.6c-4.3,2.3-8.7,4.2-13.1,5.6c-2.5,0.8-5,1.5-7.5,2.1c-5,1.1-10,1.7-15,1.8h-49.6l-1-1.8l-1.1-2.1
					l-3.1-5.6l0-0.1c-4.4-2.4-8.8-5.2-13.1-8.5c-3.1-2.3-6.1-4.9-9.1-7.7c-5.9-5.5-11.6-11.9-17-19.2c-1.9-2.5-3.7-5-5.4-7.7
					c-2.4-3.6-4.7-7.4-7-11.3c-2.2-3.9-4.4-7.9-6.4-12.1c-1.3-2.5-2.5-5.1-3.6-7.7c-3.4-7.6-6.5-15.5-9.2-23.6
					c-0.9-2.5-1.7-5.1-2.5-7.7c-2.6-8.5-4.9-17.2-6.8-26c-0.6-2.5-1.1-5.1-1.6-7.7c-1-5.4-2-10.8-2.7-16.3l-6.2-11.4l-0.7-1.3v-78.3
					l0.4-0.7l6.2-11.5c0.7-5.5,1.6-10.9,2.6-16.2c0.5-2.6,1-5.2,1.5-7.7c1.8-8.9,4-17.6,6.6-26.1c0.8-2.6,1.6-5.2,2.4-7.7
					c2.7-8.2,5.7-16.1,9.1-23.7c1.1-2.6,2.3-5.2,3.6-7.7c2.2-4.6,4.6-9.1,7.1-13.5c2-3.5,4.1-6.9,6.2-10.1c1.8-2.7,3.6-5.3,5.4-7.7
					c5.4-7.3,11-13.7,16.9-19.2c3-2.8,6-5.4,9.1-7.7c4.4-3.3,8.8-6.3,13.3-8.6c0.4-0.2,0.7-0.4,1.1-0.6l2.8-5.2l2.1-3.9h49.3
					c5.1,0.1,10.2,0.7,15.3,1.9c2.3,0.5,4.6,1.2,6.8,1.9c4.5,1.5,9,3.4,13.4,5.8c4.5,2.4,9,5.3,13.4,8.6c3,2.3,6.1,4.9,9.1,7.7
					c5.9,5.5,11.5,11.9,16.9,19.2c1.8,2.5,3.7,5,5.4,7.7c2.4,3.5,4.6,7.2,6.8,11.1c2.3,4,4.5,8.2,6.6,12.5c1.3,2.5,2.4,5.1,3.6,7.7
					c3.4,7.6,6.5,15.5,9.2,23.7c0.9,2.5,1.7,5.1,2.5,7.7c2.6,8.5,4.8,17.2,6.7,26.1c0.6,2.5,1.1,5.1,1.6,7.7
					c1.7,9.1,3.1,18.4,4.1,27.7c0.3,2.6,0.5,5.1,0.8,7.7c0.8,9.5,1.3,19,1.4,28.5C398.3,260.8,398.3,263.4,398.2,266z"/>
				<g>
					<path class="st2" d="M296.8,48.7c-2.3-0.8-4.5-1.4-6.8-1.9c-5.1-1.2-10.2-1.8-15.3-1.9h-49.3l-1,1.9l-1,1.9l-2.8,5.2
						c-0.4,0.2-0.7,0.4-1.1,0.6h90.8C305.8,52.1,301.3,50.2,296.8,48.7z"/>
					<path class="st2" d="M323.6,63.1H206.1c-3.1,2.3-6.1,4.9-9.1,7.7h135.6C329.6,68.1,326.6,65.5,323.6,63.1z"/>
					<path class="st2" d="M349.5,90H180.2c-1.8,2.5-3.6,5-5.4,7.7H355C353.2,95.1,351.4,92.5,349.5,90z"/>
					<path class="st2" d="M368.4,121.3h-207c-1.3,2.5-2.5,5.1-3.6,7.7H372C370.9,126.5,369.7,123.9,368.4,121.3z"/>
					<path class="st2" d="M381.2,152.7H148.7c-0.8,2.5-1.7,5.1-2.4,7.7h237.4C382.9,157.8,382.1,155.3,381.2,152.7z"/>
					<path class="st2" d="M390.4,186.5H139.7c-0.6,2.5-1.1,5.1-1.5,7.7H392C391.5,191.7,391,189.1,390.4,186.5z"/>
					<path class="st2" d="M396.1,222H129.3l-0.4,0.7v7h267.9C396.6,227.1,396.4,224.5,396.1,222z"/>
					<path class="st2" d="M398.2,258.2H128.9v7.7h269.3C398.3,263.4,398.3,260.8,398.2,258.2z"/>
					<path class="st2" d="M128.9,301l0.7,1.3h266.6c0.3-2.6,0.5-5.1,0.7-7.7h-268V301z"/>
					<path class="st2" d="M140,337.7h250.5c0.5-2.5,1-5.1,1.5-7.7H138.5C139,332.5,139.5,335.1,140,337.7z"/>
					<path class="st2" d="M149.3,371.4h232.1c0.9-2.5,1.7-5.1,2.5-7.7H146.8C147.6,366.3,148.4,368.9,149.3,371.4z"/>
					<path class="st2" d="M162.1,402.7h206.6c1.2-2.5,2.4-5.1,3.6-7.7H158.5C159.7,397.6,160.9,400.2,162.1,402.7z"/>
					<path class="st2" d="M181,433.8H350c1.8-2.5,3.6-5,5.4-7.7H175.5C177.3,428.8,179.1,431.3,181,433.8z"/>
					<path class="st2" d="M207.1,460.7H324c3.1-2.3,6.1-4.9,9.1-7.7H198C201,455.8,204,458.4,207.1,460.7z"/>
					<path class="st2" d="M223.3,474.9l1.1,2.1l1,1.8H275c5-0.1,10-0.6,15-1.8c2.5-0.5,5-1.2,7.5-2.1c4.4-1.5,8.8-3.3,13.1-5.6
						h-90.4L223.3,474.9z"/>
				</g>
			</g>
		</g>
		<g>
			<g>
				<path class="st3" d="M136.2,414.8c-48.6-85-48.6-222.4,0-306.9c48.6-84.5,127.4-84,176.1,1c48.6,85,48.6,222.5,0,306.9
					C263.7,500.3,184.8,499.8,136.2,414.8"/>
				<path class="st2" d="M114.3,261.1c0-55.4,12.3-107.2,34.5-145.9c20.7-36,47.4-55.8,75.1-55.8c28,0,54.9,20.2,75.8,56.7
					c22.3,38.9,34.5,90.9,34.5,146.3c0,0,0,0,0,0c0,55.4-12.2,107.2-34.5,145.9c-20.7,36-47.4,55.8-75.1,55.8
					c-28,0-54.9-20.2-75.8-56.7C126.6,368.5,114.3,316.5,114.3,261.1z"/>
				<path class="st4" d="M128.4,269.3c0-55.4,11.7-107.2,33-145.9c19.8-36,45.4-55.8,72-55.8c26.8,0,52.5,20.2,72.6,56.7
					c21.3,38.9,33,90.9,33,146.3c0,0,0,0,0,0c0,55.4-11.7,107.2-33,145.9c-19.8,36-45.4,55.8-72,55.8c-26.8,0-52.6-20.2-72.6-56.7
					C140.1,376.7,128.4,324.7,128.4,269.3z"/>
			</g>
		</g>
	</g>
</g>
<g>
	<g>
		<path class="st5" d="M282.9,266c0-36.9-17.2-68.2-40.9-78.5c-4.3-1.9-16.8-7.3-31.2-1.4c-23.3,9.4-33.3,40.2-36.1,49
			c-1.2,3.8-7.7,24.3-6.2,51.9c2.7,48.4,27.8,78.7,34,85.9c3.6,2.8,19.4,14.3,37.3,6.3c14.8-6.6,22.6-22.9,26.7-31.5
			c7.8-16.4,10.3-33.4,13.5-57C281.7,280.5,282.6,272.1,282.9,266z"/>
	</g>
	<g>
		<path class="st0" d="M239.3,369.7c-4.1-14.7-12.6-18.7-19.8-27.6C208.6,328.5,205.8,309,203,290c-1.4-9.8-3.6-24.8-1.2-41.1
			c5.8-40.6,36-61,41.2-64.4c-5.6-1.2-13.6-2.1-23-0.5c-7.7,1.2-17.7,3-27.6,11.4c-17.9,15.4-23.5,43-25.6,53.5
			c-3.3,17-3,30.6-2.5,41.3c0.6,16.1,1.5,37.4,11.4,58.8c3.1,6.8,12.7,26.8,30.5,34.6c13,5.8,31,5.4,33.9-4.4
			C240.3,378.1,240.7,375.7,239.3,369.7z"/>
	</g>
	<path class="st2" d="M164.2,284.2c0-64.4,25.4-102.1,62-102.1s62,38.1,62,102.1c0,64.4-25.4,103.7-62,103.7
		S164.2,348.4,164.2,284.2z M262.4,284.2c0-44.6-14.2-71.5-36.4-71.5s-36.4,26.9-36.4,71.5s14.2,73.1,36.4,73.1
		C248,357.3,262.4,328.8,262.4,284.2z"/>
	<path class="st2" d="M254.1,125.6L226,152.7L198,125.6h-5.8v4.9l22.9,40.4h22.4l22.8-40.4v-4.9H254.1z"/>
</g>
<g>
	<path class="st2" d="M392.8,65.9l19.5,22.6l-11.3,9.8l-19.5-22.6L392.8,65.9z"/>
	<path class="st2" d="M336.7,1l19.5,22.6l-11.3,9.8l-19.5-22.6L336.7,1z"/>
	<path class="st2" d="M410.3,6.4l9.8,11.3l-22.6,19.5l-9.8-11.3L410.3,6.4z"/>
	<path class="st2" d="M60,448.2c-12.4,0-22.3-10.1-22.3-22.3c0-12.3,10.1-22.3,22.3-22.3s22.3,10.1,22.3,22.3
		C82.3,438.1,72.2,448.2,60,448.2z M60,418.4c-4.1,0-7.4,3.4-7.4,7.4c0,4.1,3.4,7.4,7.4,7.4s7.4-3.4,7.4-7.4
		C67.4,421.7,64.1,418.4,60,418.4z"/>
</g>
</svg>
