<?xml version="1.0" encoding="utf-8"?>
<!-- Generator: Adobe Illustrator 24.0.1, SVG Export Plug-In . SVG Version: 6.00 Build 0)  -->
<svg version="1.1" id="LINE" xmlns="http://www.w3.org/2000/svg" xmlns:xlink="http://www.w3.org/1999/xlink" x="0px" y="0px"
	 width="512px" height="512px" viewBox="0 0 512 512" style="enable-background:new 0 0 512 512;" xml:space="preserve">
<style type="text/css">
	.st0{fill:#5868FF;}
</style>
<path class="st0" d="M75.8,56.5L100,32.2l12.2,12.2L88,68.7L75.8,56.5z"/>
<path class="st0" d="M6,126.2L30.3,102l12.2,12.2l-24.3,24.3L6,126.2z"/>
<path class="st0" d="M6,41.2l12.2-12.2l24.3,24.3L30.3,65.5L6,41.2z"/>
<path class="st0" d="M75.8,111L88,98.8l24.3,24.3L100,135.3L75.8,111z"/>
<path class="st0" d="M480.3,208.6c-14.2,0-25.7-11.6-25.7-25.7c0-14.2,11.6-25.7,25.7-25.7c14.2,0,25.7,11.6,25.7,25.7
	C506,197,494.4,208.6,480.3,208.6z M480.3,174.3c-4.7,0-8.6,3.9-8.6,8.6c0,4.7,3.9,8.6,8.6,8.6c4.7,0,8.6-3.9,8.6-8.6
	C488.9,178.1,485,174.3,480.3,174.3z"/>
<path class="st0" d="M401.3,328.4h-25.7v-25.7H92.3v25.7H66.6v-38.6c0-7.1,5.8-12.9,12.9-12.9h309c7.1,0,12.9,5.8,12.9,12.9
	L401.3,328.4L401.3,328.4z"/>
<path class="st0" d="M221,238.3h25.7v94.4H221V238.3z"/>
<path class="st0" d="M79.4,414.3c-14.2,0-25.7-11.6-25.7-25.7c0-14.2,11.6-25.7,25.7-25.7s25.7,11.6,25.7,25.7
	C105.1,402.7,93.6,414.3,79.4,414.3z M79.4,388.4L79.4,388.4h12.9H79.4z"/>
<path class="st0" d="M130.9,482.9h-25.7V470c0-7.1-5.8-12.9-12.9-12.9H66.6c-7.1,0-12.9,5.8-12.9,12.9v12.9H27.8V470
	c0-21.2,17.4-38.6,38.6-38.6h25.7c21.2,0,38.6,17.4,38.6,38.6L130.9,482.9L130.9,482.9z"/>
<path class="st0" d="M233.9,414.3c-14.2,0-25.7-11.6-25.7-25.7c0-14.2,11.6-25.7,25.7-25.7c14.2,0,25.7,11.6,25.7,25.7
	C259.6,402.7,248.2,414.3,233.9,414.3z M233.9,388.4L233.9,388.4h12.9H233.9z"/>
<path class="st0" d="M285.5,482.9h-25.7V470c0-7.1-5.8-12.9-12.9-12.9h-25.7c-7.1,0-12.9,5.8-12.9,12.9v12.9h-25.7V470
	c0-21.2,17.4-38.6,38.6-38.6h25.7c21.2,0,38.6,17.4,38.6,38.6V482.9z"/>
<path class="st0" d="M388.4,414.3c-14.2,0-25.7-11.6-25.7-25.7c0-14.2,11.6-25.7,25.7-25.7s25.7,11.6,25.7,25.7
	C414.1,402.7,402.7,414.3,388.4,414.3z M388.4,388.4L388.4,388.4h12.9H388.4z"/>
<path class="st0" d="M440,482.9h-25.7V470c0-7.1-5.8-12.9-12.9-12.9h-25.7c-7.1,0-12.9,5.8-12.9,12.9v12.9H337V470
	c0-21.2,17.4-38.6,38.6-38.6h25.7c21.2,0,38.6,17.4,38.6,38.6V482.9z"/>
<path class="st0" d="M233.9,139.5c-19,0-34.3-15.5-34.3-34.3s15.5-34.3,34.3-34.3s34.3,15.5,34.3,34.3S252.9,139.5,233.9,139.5z
	 M233.9,96.7c-4.7,0-8.6,3.9-8.6,8.6c0,4.7,3.9,8.6,8.6,8.6c4.7,0,8.6-3.9,8.6-8.6C242.5,100.5,238.6,96.7,233.9,96.7z"/>
<path class="st0" d="M302.6,212.5h-25.7V204c0-11.8-9.7-21.5-21.5-21.5h-43c-11.8,0-21.5,9.7-21.5,21.5v8.6h-25.7V204
	c0-26.1,21.1-47.2,47.2-47.2h43c26.1,0,47.2,21.1,47.2,47.2L302.6,212.5L302.6,212.5z"/>
</svg>
