<?xml version="1.0" encoding="utf-8"?>
<!-- Generator: Adobe Illustrator 24.0.1, SVG Export Plug-In . SVG Version: 6.00 Build 0)  -->
<svg version="1.1" id="LINE" xmlns="http://www.w3.org/2000/svg" xmlns:xlink="http://www.w3.org/1999/xlink" x="0px" y="0px"
	 width="512px" height="512px" viewBox="0 0 512 512" style="enable-background:new 0 0 512 512;" xml:space="preserve">
<style type="text/css">
	.st0{fill:#5868FF;}
</style>
<g>
	<path class="st0" d="M461.1,92.3l21.9,30l-15,11l-21.9-30L461.1,92.3z"/>
	<path class="st0" d="M398.2,6l21.9,30l-15,11l-21.9-30L398.2,6z"/>
	<path class="st0" d="M489,20.4l11,15l-30,21.9l-11-15L489,20.4z"/>
	<path class="st0" d="M39.8,506C24.4,506,12,493.5,12,478.2c0-15.3,12.5-27.8,27.8-27.8s27.8,12.5,27.8,27.8
		C67.6,493.5,55.2,506,39.8,506z M39.8,468.9c-5.1,0-9.3,4.2-9.3,9.3c0,5.1,4.2,9.3,9.3,9.3s9.3-4.2,9.3-9.3
		C49.1,473.1,44.9,468.9,39.8,468.9z"/>
</g>
<path class="st0" d="M415.7,204.4h-27.8v-83.5c0-12.8-10.4-23.2-23.2-23.2H225.4V69.8h139.3c28.2,0,51,22.8,51,51V204.4z"/>
<path class="st0" d="M401.7,218.3c-3.5,0-7.2-1.3-9.8-4L349.6,172l19.7-19.7l32.5,32.5l32.5-32.5l19.7,19.7l-42.3,42.3
	C408.9,216.9,405.4,218.3,401.7,218.3z"/>
<path class="st0" d="M234.7,403.9H132.6c-28.2,0-51-22.8-51-51v-83.5h27.8v83.5c0,12.8,10.4,23.2,23.2,23.2h102.1V403.9z"/>
<path class="st0" d="M128,321.6l-32.5-32.5L63,321.6l-19.7-19.7l42.3-42.3c5.5-5.5,14.2-5.5,19.7,0l42.3,42.3L128,321.6z"/>
<path class="st0" d="M118.6,106.9c-25.6,0-46.5-20.9-46.5-46.5S93.1,14,118.6,14s46.5,20.9,46.5,46.5S144.2,106.9,118.6,106.9z
	 M118.6,42c-10.2,0-18.5,8.4-18.5,18.5c0,10.2,8.4,18.5,18.5,18.5s18.5-8.4,18.5-18.5S128.9,42,118.6,42z"/>
<path class="st0" d="M211.6,185.8h-27.8v-9.3c0-12.8-10.4-23.2-23.2-23.2H77c-12.8,0-23.2,10.4-23.2,23.2v9.3H25.8v-9.3
	c0-28.2,22.8-51,51-51h83.5c28.2,0,51,22.8,51,51v9.3H211.6z"/>
<path class="st0" d="M378.6,366.9c-25.6,0-46.5-20.9-46.5-46.5c0-25.6,20.9-46.5,46.5-46.5c25.6,0,46.5,20.9,46.5,46.5
	C425.1,346,404.2,366.9,378.6,366.9z M378.6,301.9c-10.2,0-18.5,8.4-18.5,18.5c0,10.2,8.4,18.5,18.5,18.5s18.5-8.4,18.5-18.5
	C397.2,310.2,388.8,301.9,378.6,301.9z"/>
<path class="st0" d="M471.4,445.7h-27.8v-9.3c0-12.8-10.4-23.2-23.2-23.2h-83.5c-12.8,0-23.2,10.4-23.2,23.2v9.3h-27.8v-9.3
	c0-28.2,22.8-51,51-51h83.5c28.2,0,51,22.8,51,51L471.4,445.7L471.4,445.7z"/>
</svg>
