<?xml version="1.0" encoding="utf-8"?>
<!-- Generator: Adobe Illustrator 24.0.1, SVG Export Plug-In . SVG Version: 6.00 Build 0)  -->
<svg version="1.1" id="LINE" xmlns="http://www.w3.org/2000/svg" xmlns:xlink="http://www.w3.org/1999/xlink" x="0px" y="0px"
	 width="512px" height="512px" viewBox="0 0 512 512" style="enable-background:new 0 0 512 512;" xml:space="preserve">
<style type="text/css">
	.st0{fill:#5868FF;}
</style>
<path class="st0" d="M470,118.3h36v18h-36V118.3z"/>
<path class="st0" d="M366.3,118.3h36v18h-36V118.3z"/>
<path class="st0" d="M429.4,55.2h18v36h-18V55.2z"/>
<path class="st0" d="M33,456.8c-15,0-27-12.2-27-27c0-15,12.2-27,27-27c15,0,27,12.2,27,27S47.8,456.8,33,456.8z M33,420.7
	c-4.9,0-9,4.1-9,9s4.1,9,9,9s9-4.1,9-9S37.9,420.7,33,420.7z"/>
<path class="st0" d="M323.5,411.1h-81.1c-4.8,0-9.3-2.5-11.7-6.7c-2.4-4.2-2.4-9.3-0.1-13.4l40.6-72.1c4.8-8.5,18.8-8.5,23.6,0
	l40.6,72.1c2.3,4.2,2.3,9.4-0.1,13.4C332.7,408.5,328.3,411.1,323.5,411.1z M265.4,384.1h34.9L282.9,353L265.4,384.1z"/>
<path class="st0" d="M77.9,293.6l4.7-26.6l405.7,72.1l-4.7,26.6L77.9,293.6z"/>
<path class="st0" d="M138.7,158.7c-19.9,0-36-16.2-36-36s16.2-36,36-36s36,16.2,36,36S158.6,158.7,138.7,158.7z M138.7,113.7
	c-4.9,0-9,4.1-9,9s4.1,9,9,9c4.9,0,9-4.1,9-9S143.6,113.7,138.7,113.7z"/>
<path class="st0" d="M210.8,235.4h-27v-9c0-12.4-10.1-22.6-22.6-22.6h-45.1c-12.4,0-22.6,10.1-22.6,22.6v9h-27v-9
	c0-27.4,22.2-49.6,49.6-49.6h45.1c27.4,0,49.6,22.2,49.6,49.6V235.4z"/>
<g>
	<path class="st0" d="M385.5,228.8c0-37.3,20.8-59.2,50.8-59.2c30,0,50.8,22.1,50.8,59.2c0,37.3-20.8,60.1-50.8,60.1
		C406.3,289,385.5,266.1,385.5,228.8z M466.1,228.8c0-25.9-11.7-41.4-29.8-41.4s-29.8,15.6-29.8,41.4s11.7,42.3,29.8,42.3
		C454.3,271.3,466.1,254.7,466.1,228.8z"/>
	<path class="st0" d="M459.2,136.9l-22.9,15.7l-23.1-15.7h-4.8v2.8l18.8,23.4h18.4l18.6-23.4v-2.8L459.2,136.9L459.2,136.9z"/>
</g>
</svg>
