<?xml version="1.0" encoding="utf-8"?>
<!-- Generator: Adobe Illustrator 24.0.1, SVG Export Plug-In . SVG Version: 6.00 Build 0)  -->
<svg version="1.1" id="QBTC" xmlns="http://www.w3.org/2000/svg" xmlns:xlink="http://www.w3.org/1999/xlink" x="0px" y="0px"
	 width="300px" height="300px" viewBox="0 0 300 300" style="enable-background:new 0 0 300 300;" xml:space="preserve">
<style type="text/css">
	.st0{fill:#12122D;}
	.st1{fill:#06061E;}
	.st2{fill:#FFFFFF;}
</style>
<circle class="st0" cx="150" cy="150" r="150"/>
<circle id="bg_1_" class="st1" cx="150" cy="150" r="130"/>
<path id="qbtc" class="st2" d="M178,135.8l-0.1-0.4c14.4-10.5,18.7-24.3,15.4-36.9c-3.6-13.3-13.3-21.2-24.8-23.9
	c-7.8-2.2-15.9-2.4-26-0.9l-9-33.7c-5.1,3.8-10.2,7.6-15.3,11.4l7,26c-0.5,0.1-1,0.3-1.5,0.4c-3.2,0.9-6.4,1.8-9.6,2.8l-8.8-33
	C100.1,51.4,95,55.2,89.9,59l7.3,27.2c-6.1,2.2-11.3,4.4-14.9,6.1l37.9,141.6c4-0.5,9.3-1.3,15.8-2.6l7.1,26.4
	c6.3,0.8,12.6,1.5,19,2.3l-8.8-32.7c0.9-0.2,1.9-0.5,2.8-0.7c2.9-0.8,5.7-1.6,8.3-2.4l7,26c6.3,0.8,12.6,1.5,19,2.3l-9.2-34.3
	c13.8-5.9,22.8-12.5,28.2-19.9c7.1-9.5,10.3-21.4,6.8-34.7C211.2,145,195.6,135.7,178,135.8z M134.1,100.5
	c14.8-4,24.7-0.4,27.6,10.5c2.9,10.7-4.2,20.2-21.6,24.8l-10.7,2.9l-9-33.4C122.9,104,126.8,102.4,134.1,100.5z M159.4,200
	c-5.6,1.5-9.4,2.5-12.8,2.7L135.7,162l11.1-3c16.3-4.4,30.9-2.1,34.8,12.5C185.7,186.8,174.2,196.1,159.4,200z"/>
</svg>
