<?xml version="1.0" encoding="utf-8"?>
<!-- Generator: Adobe Illustrator 24.0.1, SVG Export Plug-In . SVG Version: 6.00 Build 0)  -->
<svg version="1.1" id="OPM" xmlns="http://www.w3.org/2000/svg" xmlns:xlink="http://www.w3.org/1999/xlink" x="0px" y="0px"
	 width="1024px" height="1024px" viewBox="0 0 1024 1024" style="enable-background:new 0 0 1024 1024;" xml:space="preserve">
<style type="text/css">
	.st0{fill:#20202B;}
	.st1{enable-background:new    ;}
	.st2{fill:#CC9800;}
	.st3{fill:#E5AB00;}
	.st4{fill:#FFBF00;}
	.st5{fill:url(#SVGID_1_);}
	.st6{fill:url(#SVGID_2_);}
</style>
<circle id="circle" class="st0" cx="512" cy="512" r="500"/>
<g id="p">
	<g class="st1">
		<g>
			<polygon class="st2" points="752.1,290.4 741,282.6 761.7,208.6 772.9,216.4 			"/>
		</g>
		<g>
			<polygon class="st3" points="772.9,216.4 761.7,208.6 806.9,208.6 818,216.4 			"/>
		</g>
		<g>
			<polygon class="st4" points="818,216.4 784.3,290.4 752.1,290.4 772.9,216.4 			"/>
		</g>
	</g>
</g>
<g id="O">
	<g class="st1">
		<g class="st1">
			<g class="st1">
				<linearGradient id="SVGID_1_" gradientUnits="userSpaceOnUse" x1="428.89" y1="522.885" x2="663.7972" y2="522.885">
					<stop  offset="0" style="stop-color:#E5AB00"/>
					<stop  offset="1" style="stop-color:#CC9800"/>
				</linearGradient>
				<path class="st5" d="M663.5,513.6c-2.7,76.8-25.4,137.1-62.2,173.2c-6,5.8-12.3,11-19,15.5c-5.5,3.7-11.2,7-17.1,9.8
					c-5.7,2.7-11.6,5-17.8,6.8c-6.8,2-13.9,3.5-21.1,4.3c-5.3,0.6-10.7,1-16.3,1c-4.8,0-9.5-0.2-14.2-0.7c-21-2.2-39.8-9.3-56-20.7
					l-11.1-7.8c16.2,11.4,35,18.5,56,20.7c4.6,0.5,9.3,0.7,14.2,0.7c5.5,0,11-0.3,16.3-0.9c7.3-0.9,14.3-2.3,21.1-4.3
					c6.1-1.8,12-4.1,17.8-6.8c5.9-2.8,11.6-6,17.1-9.8c6.7-4.5,13-9.7,19-15.5c36.8-36,59.5-96.3,62.2-173.1
					c3.2-88.3-21.7-152.7-66.4-184.2l11.1,7.8C641.8,361,666.7,425.3,663.5,513.6z"/>
			</g>
		</g>
		<g class="st1">
			<g class="st1">
				<linearGradient id="SVGID_2_" gradientUnits="userSpaceOnUse" x1="257.5348" y1="492" x2="664.17" y2="492">
					<stop  offset="0" style="stop-color:#CC9800"/>
					<stop  offset="1" style="stop-color:#E5AB00"/>
				</linearGradient>
				<path class="st6" d="M664.2,259.9c-30.3-21.3-66.4-34.6-106.9-38.8c-9.5-1-19.2-1.5-29.2-1.5c-11.4,0-22.5,0.7-33.4,2
					c-14.5,1.7-28.5,4.6-41.9,8.6c-11.7,3.5-23,7.8-33.9,12.8c-10.8,5.1-21.1,11-31,17.6c-11.4,7.8-22.2,16.6-32.2,26.4
					c-51.4,50.4-83.3,127.7-86.8,226.6c-4.3,120.2,35.5,210.2,104.1,258.6l-11.1-7.8C293.3,716,253.6,626,257.8,505.8
					c3.5-99,35.4-176.2,86.8-226.6c10-9.8,20.8-18.7,32.2-26.4c9.8-6.7,20.2-12.6,31-17.6c10.8-5.1,22.1-9.4,33.9-12.9
					c13.4-4,27.4-6.8,41.9-8.5c10.9-1.3,22-2,33.4-2c10,0,19.7,0.5,29.2,1.5c40.5,4.3,76.6,17.5,106.9,38.8L664.2,259.9z"/>
			</g>
		</g>
		<g>
			<path class="st4" d="M528.1,219.6c146.9,0,244.8,109.6,238.2,294c-6.6,185-112.4,298.6-259.3,298.6S262.4,698.6,269,513.6
				C275.5,328.7,381.2,219.6,528.1,219.6z M510.1,724.1c88.6,0,148.8-82.2,153.4-210.5c4.6-128.3-49.9-205.9-138.6-205.9
				s-148.7,77.6-153.2,205.9C367.2,642,421.5,724.1,510.1,724.1L510.1,724.1z"/>
		</g>
	</g>
</g>
</svg>
