<?xml version="1.0" encoding="utf-8"?>
<!-- Generator: Adobe Illustrator 24.0.1, SVG Export Plug-In . SVG Version: 6.00 Build 0)  -->
<svg version="1.1" id="OPM" xmlns="http://www.w3.org/2000/svg" xmlns:xlink="http://www.w3.org/1999/xlink" x="0px" y="0px"
	 width="1024px" height="1024px" viewBox="0 0 1024 1024" style="enable-background:new 0 0 1024 1024;" xml:space="preserve">
<style type="text/css">
	.st0{enable-background:new    ;}
	.st1{fill:#CC9800;}
	.st2{fill:#E5AB00;}
	.st3{fill:#FFBF00;}
	.st4{fill:url(#SVGID_1_);}
	.st5{fill:url(#SVGID_2_);}
</style>
<g id="p">
	<g class="st0">
		<g>
			<polygon class="st1" points="867.1,147.5 848.7,134.6 883,12 901.6,24.9 			"/>
		</g>
		<g>
			<polygon class="st2" points="901.6,24.9 883,12 957.9,12 976.3,24.9 			"/>
		</g>
		<g>
			<polygon class="st3" points="976.3,24.9 920.5,147.5 867.1,147.5 901.6,24.9 			"/>
		</g>
	</g>
</g>
<g id="O">
	<g class="st0">
		<g class="st0">
			<g class="st0">
				
					<linearGradient id="SVGID_1_" gradientUnits="userSpaceOnUse" x1="331.3366" y1="491.1253" x2="720.7913" y2="491.1253" gradientTransform="matrix(1 0 0 -1 0 1024)">
					<stop  offset="0" style="stop-color:#E5AB00"/>
					<stop  offset="1" style="stop-color:#CC9800"/>
				</linearGradient>
				<path class="st4" d="M720.3,517.3c-4.5,127.2-42.1,227.1-103,286.9c-9.9,9.6-20.4,18.2-31.5,25.7c-9.1,6.1-18.6,11.6-28.3,16.2
					c-9.4,4.5-19.2,8.3-29.5,11.3c-11.3,3.3-23,5.8-35,7.1c-8.8,1-17.7,1.7-27,1.7c-8,0-15.7-0.3-23.5-1.2
					c-34.8-3.6-65.9-15.4-92.8-34.3l-18.4-12.9c26.8,18.9,58,30.6,92.8,34.3c7.6,0.8,15.4,1.2,23.5,1.2c9.1,0,18.2-0.5,27-1.5
					c12.1-1.5,23.7-3.8,35-7.1c10.1-3,19.9-6.8,29.5-11.3c9.8-4.6,19.2-9.9,28.3-16.2c11.1-7.5,21.5-16.1,31.5-25.7
					c61-59.6,98.6-159.5,103-286.8c5.3-146.3-36-253-110-305.2l18.4,12.9C684.4,264.5,725.6,371,720.3,517.3z"/>
			</g>
		</g>
		<g class="st0">
			<g class="st0">
				
					<linearGradient id="SVGID_2_" gradientUnits="userSpaceOnUse" x1="47.6999" y1="542.4838" x2="721.4956" y2="542.4838" gradientTransform="matrix(1 0 0 -1 0 1024)">
					<stop  offset="0" style="stop-color:#CC9800"/>
					<stop  offset="1" style="stop-color:#E5AB00"/>
				</linearGradient>
				<path class="st5" d="M721.5,97c-50.2-35.3-110-57.3-177.1-64.3c-15.7-1.7-31.8-2.5-48.4-2.5c-18.9,0-37.3,1.2-55.3,3.3
					c-24,2.8-47.2,7.6-69.4,14.2c-19.4,5.8-38.1,12.9-56.2,21.2c-17.9,8.4-35,18.2-51.4,29.2c-18.9,12.9-36.8,27.5-53.3,43.7
					c-85.2,83.5-138,211.6-143.8,375.4c-7.1,199.1,58.8,348.2,172.5,428.4l-18.4-12.9C107,852.6,41.2,703.5,48.2,504.4
					C54,340.4,106.9,212.5,192,129c16.6-16.2,34.5-31,53.3-43.7c16.2-11.1,33.5-20.9,51.4-29.2c17.9-8.4,36.6-15.6,56.2-21.4
					c22.2-6.6,45.4-11.3,69.4-14.1c18.1-2.2,36.4-3.3,55.3-3.3c16.6,0,32.6,0.8,48.4,2.5c67.1,7.1,126.9,29,177.1,64.3L721.5,97z"/>
			</g>
		</g>
		<g>
			<path class="st3" d="M496,30.2c243.4,0,405.6,181.6,394.6,487.1C879.7,823.8,704.4,1012,461.1,1012S55.8,823.8,66.8,517.3
				C77.5,211,252.6,30.2,496,30.2z M466.2,866c146.8,0,246.5-136.2,254.1-348.7s-82.7-341.1-229.6-341.1S244.4,304.7,236.9,517.3
				C229.4,730,319.4,866,466.2,866L466.2,866z"/>
		</g>
	</g>
</g>
</svg>
